<svg version="1.1" id="Layer_1" xmlns="http://www.w3.org/2000/svg" xmlns:xlink="http://www.w3.org/1999/xlink" x="0px" y="0px"
	 width="100%" viewBox="0 0 320 320"  xml:space="preserve">
<path fill="#EDEDED" opacity="1.000000" stroke="none" 
	d="
M321.000000,241.000000 
	C321.000000,247.354401 321.000000,253.708801 320.531586,260.531433 
	C313.707153,261.001404 307.351135,261.003143 300.997070,260.535919 
	C300.997742,253.709702 300.996429,247.352448 301.463806,240.996918 
	C308.288361,240.999084 314.644165,240.999542 321.000000,241.000000 
z"/>
<path fill="#EDEDED" opacity="1.000000" stroke="none" 
	d="
M1.000000,201.000000 
	C1.000000,194.645599 1.000000,188.291214 1.468403,181.468719 
	C8.291713,180.997375 14.646620,180.994110 20.999470,181.460190 
	C20.998819,188.287369 21.000225,194.645218 20.533131,201.001892 
	C13.709751,201.000488 7.354876,201.000244 1.000000,201.000000 
z"/>
<path fill="#FEFEFE" opacity="1.000000" stroke="none" 
	d="
M1.000000,21.000000 
	C1.000000,14.407272 1.000000,7.814544 1.000000,1.000000 
	C7.352261,1.000000 13.707088,1.000000 20.531260,1.468405 
	C21.002161,8.292959 21.003716,14.649109 20.536282,21.003464 
	C13.711529,21.001112 7.355764,21.000555 1.000000,21.000000 
z"/>
<path fill="#FEFEFE" opacity="1.000000" stroke="none" 
	d="
M321.000000,181.000000 
	C321.000000,187.354401 321.000000,193.708786 320.531586,200.531921 
	C313.705963,201.001862 307.348724,201.003082 300.992981,200.535446 
	C300.993530,193.709290 300.992615,187.351990 301.460632,180.995941 
	C308.286377,180.998123 314.643188,180.999069 321.000000,181.000000 
z"/>
<path fill="#EDEDED" opacity="1.000000" stroke="none" 
	d="
M1.000000,281.000000 
	C1.000000,274.645599 1.000000,268.291199 1.468405,261.468567 
	C8.292816,260.998596 14.648823,260.996857 21.002865,261.464081 
	C21.002192,268.290314 21.003481,274.647614 20.536072,281.003113 
	C13.711582,281.000916 7.355791,281.000458 1.000000,281.000000 
z"/>
<path fill="#FEFEFE" opacity="1.000000" stroke="none" 
	d="
M1.000000,201.468414 
	C7.354876,201.000244 13.709751,201.000488 20.532349,201.000366 
	C21.000069,201.000000 20.997316,200.998169 20.998674,201.466766 
	C21.001913,208.291977 21.003794,214.648575 20.536919,221.003677 
	C13.712109,221.001450 7.356054,221.000732 1.000000,221.000000 
	C1.000000,214.645599 1.000000,208.291214 1.000000,201.468414 
z"/>
<path fill="#FEFEFE" opacity="1.000000" stroke="none" 
	d="
M21.004829,260.995117 
	C14.648823,260.996857 8.292816,260.998596 1.468405,261.000183 
	C1.000000,254.645599 1.000000,248.291214 1.468405,241.468079 
	C8.292972,240.997818 14.649134,240.996262 21.003517,241.463715 
	C20.999523,248.290100 20.997309,254.647491 20.997366,261.002441 
	C20.999638,261.000000 21.004829,260.995117 21.004829,260.995117 
z"/>
<path fill="#FEFEFE" opacity="1.000000" stroke="none" 
	d="
M321.000000,240.531586 
	C314.644165,240.999542 308.288361,240.999084 301.466248,240.999512 
	C301.000000,241.000397 301.004883,241.004776 301.002930,240.535889 
	C300.998932,233.709595 300.996887,227.352188 301.463593,220.996292 
	C308.288208,220.998550 314.644104,220.999283 321.000000,221.000000 
	C321.000000,227.354401 321.000000,233.708786 321.000000,240.531586 
z"/>
<path fill="#EDEDED" opacity="1.000000" stroke="none" 
	d="
M21.005295,240.994720 
	C14.649134,240.996262 8.292972,240.997818 1.468405,240.999680 
	C1.000000,234.645599 1.000000,228.291214 1.000000,221.468414 
	C7.356054,221.000732 13.712109,221.001450 20.533855,221.000885 
	C20.999550,220.999603 20.994762,220.994247 20.996532,221.463287 
	C20.997089,228.289993 20.995874,234.647659 20.997141,241.002838 
	C20.999622,241.000381 21.005295,240.994720 21.005295,240.994720 
z"/>
<path fill="#EDEDED" opacity="1.000000" stroke="none" 
	d="
M321.000000,220.531586 
	C314.644104,220.999283 308.288208,220.998550 301.466248,220.999115 
	C301.000183,221.000427 301.005188,221.005249 301.003479,220.536316 
	C301.002625,213.708694 301.003479,207.350021 301.002594,200.995468 
	C301.000854,200.999588 300.991516,201.004318 300.991516,201.004318 
	C307.348724,201.003082 313.705963,201.001862 320.531586,201.000320 
	C321.000000,207.354401 321.000000,213.708786 321.000000,220.531586 
z"/>
<path fill="#FEFEFE" opacity="1.000000" stroke="none" 
	d="
M41.000000,321.000000 
	C34.645603,321.000000 28.291204,321.000000 21.468102,320.531586 
	C21.001225,313.707153 21.003056,307.351135 21.002262,300.997559 
	C20.999641,301.000000 20.995094,301.004883 21.464045,301.002930 
	C28.290438,300.998901 34.647881,300.996826 41.003826,301.463501 
	C41.001549,308.288177 41.000774,314.644073 41.000000,321.000000 
z"/>
<path fill="#FEFEFE" opacity="1.000000" stroke="none" 
	d="
M321.000000,301.000000 
	C321.000000,307.592743 321.000000,314.185455 321.000000,321.000000 
	C314.647736,321.000000 308.292908,321.000000 301.468872,320.531586 
	C300.998047,313.707062 300.996429,307.350922 301.463806,300.996582 
	C308.288544,300.998871 314.644257,300.999451 321.000000,301.000000 
z"/>
<path fill="#EDEDED" opacity="1.000000" stroke="none" 
	d="
M300.994812,300.994812 
	C300.996429,307.350922 300.998047,313.707062 300.999817,320.531586 
	C294.645599,321.000000 288.291199,321.000000 281.468567,320.531586 
	C280.998596,313.707153 280.996857,307.351135 281.464081,300.997131 
	C288.290436,301.001160 294.647797,301.003174 301.002686,301.002686 
	C301.000153,301.000153 300.994812,300.994812 300.994812,300.994812 
z"/>
<path fill="#FEFEFE" opacity="1.000000" stroke="none" 
	d="
M280.995117,300.995117 
	C280.996857,307.351135 280.998596,313.707153 281.000183,320.531586 
	C274.645599,321.000000 268.291199,321.000000 261.468231,320.531586 
	C260.998047,313.707062 260.996429,307.350922 261.463806,300.996582 
	C268.290161,301.000519 274.647522,301.002686 281.002441,301.002441 
	C281.000000,301.000000 280.995117,300.995117 280.995117,300.995117 
z"/>
<path fill="#EDEDED" opacity="1.000000" stroke="none" 
	d="
M260.994812,300.994812 
	C260.996429,307.350922 260.998047,313.707062 260.999817,320.531586 
	C254.645599,321.000000 248.291214,321.000000 241.468719,320.531586 
	C240.998840,313.707153 240.997040,307.351135 241.464172,300.997131 
	C248.290466,301.001160 254.647827,301.003174 261.002686,301.002686 
	C261.000153,301.000153 260.994812,300.994812 260.994812,300.994812 
z"/>
<path fill="#FEFEFE" opacity="1.000000" stroke="none" 
	d="
M240.995239,300.995117 
	C240.997040,307.351135 240.998840,313.707153 241.000320,320.531586 
	C234.645599,321.000000 228.291214,321.000000 221.468079,320.531586 
	C220.997833,313.707062 220.996307,307.350952 221.463745,300.996582 
	C228.290085,301.000519 234.647415,301.002686 241.002579,301.002441 
	C241.000397,301.000000 240.995239,300.995117 240.995239,300.995117 
z"/>
<path fill="#EDEDED" opacity="1.000000" stroke="none" 
	d="
M220.994766,300.994843 
	C220.996307,307.350952 220.997833,313.707062 220.999680,320.531586 
	C214.645599,321.000000 208.291214,321.000000 201.468719,320.531586 
	C200.998840,313.707153 200.997040,307.351135 201.464172,300.997131 
	C208.290482,301.001190 214.647873,301.003204 221.002823,301.002716 
	C221.000397,301.000214 220.994766,300.994843 220.994766,300.994843 
z"/>
<path fill="#FEFEFE" opacity="1.000000" stroke="none" 
	d="
M200.995239,300.995117 
	C200.997040,307.351135 200.998840,313.707153 201.000320,320.531586 
	C194.645599,321.000000 188.291214,321.000000 181.468079,320.531586 
	C180.997833,313.706879 180.996307,307.350555 181.463776,300.996033 
	C188.290085,301.000183 194.647415,301.002533 201.002563,301.002441 
	C201.000397,301.000000 200.995239,300.995117 200.995239,300.995117 
z"/>
<path fill="#EDEDED" opacity="1.000000" stroke="none" 
	d="
M180.994797,300.994263 
	C180.996307,307.350555 180.997833,313.706879 180.999680,320.531586 
	C174.645599,321.000000 168.291214,321.000000 161.468719,320.531586 
	C160.999100,313.707977 160.997559,307.352753 161.464859,300.999634 
	C168.290756,301.002472 174.647797,301.003265 181.002518,301.002045 
	C181.000183,301.000000 180.994797,300.994263 180.994797,300.994263 
z"/>
<path fill="#FEFEFE" opacity="1.000000" stroke="none" 
	d="
M160.996017,300.997559 
	C160.997559,307.352753 160.999100,313.707977 161.000320,320.531586 
	C154.645599,321.000000 148.291214,321.000000 141.468079,320.531586 
	C140.998016,313.706268 140.996689,307.349365 141.464264,300.994080 
	C148.289413,300.997955 154.645615,301.000214 161.000916,301.001221 
	C161.000000,301.000000 160.996017,300.997559 160.996017,300.997559 
z"/>
<path fill="#EDEDED" opacity="1.000000" stroke="none" 
	d="
M140.995346,300.992462 
	C140.996689,307.349365 140.998016,313.706268 140.999680,320.531586 
	C134.645599,321.000000 128.291199,321.000000 121.468689,320.531586 
	C120.998795,313.707367 120.997002,307.351532 121.464149,300.997681 
	C128.291245,301.001251 134.649384,301.002838 141.003952,301.002594 
	C141.000366,301.000732 140.995346,300.992462 140.995346,300.992462 
z"/>
<path fill="#FEFEFE" opacity="1.000000" stroke="none" 
	d="
M120.995209,300.995728 
	C120.997002,307.351532 120.998795,313.707367 121.000290,320.531586 
	C114.645599,321.000000 108.291206,321.000000 101.468109,320.531586 
	C100.997849,313.707062 100.996284,307.350952 101.463715,300.996582 
	C108.289909,301.000519 114.647102,301.002716 121.002304,301.002441 
	C121.000298,301.000000 120.995209,300.995728 120.995209,300.995728 
z"/>
<path fill="#EDEDED" opacity="1.000000" stroke="none" 
	d="
M100.994720,300.994843 
	C100.996284,307.350952 100.997849,313.707062 100.999710,320.531586 
	C94.645599,321.000000 88.291206,321.000000 81.468689,320.531586 
	C80.998787,313.707153 80.996994,307.351135 81.464127,300.997131 
	C88.290474,301.001160 94.647888,301.003174 101.002838,301.002716 
	C101.000374,301.000244 100.994720,300.994843 100.994720,300.994843 
z"/>
<path fill="#FEFEFE" opacity="1.000000" stroke="none" 
	d="
M80.995193,300.995117 
	C80.996994,307.351135 80.998787,313.707153 81.000290,320.531586 
	C74.645599,321.000000 68.291206,321.000000 61.468102,320.531586 
	C60.997841,313.707062 60.996281,307.350952 61.463707,300.996582 
	C68.290062,301.000519 74.647423,301.002716 81.002586,301.002441 
	C81.000381,301.000000 80.995193,300.995117 80.995193,300.995117 
z"/>
<path fill="#EDEDED" opacity="1.000000" stroke="none" 
	d="
M60.994720,300.994843 
	C60.996281,307.350952 60.997841,313.707062 60.999699,320.531586 
	C54.645603,321.000000 48.291203,321.000000 41.468403,321.000000 
	C41.000774,314.644073 41.001549,308.288177 41.000969,301.466309 
	C40.999611,301.000336 40.994648,301.005280 41.463646,301.003601 
	C48.290195,301.002991 54.647747,301.004089 61.002838,301.002716 
	C61.000378,301.000244 60.994720,300.994843 60.994720,300.994843 
z"/>
<path fill="#FEFEFE" opacity="1.000000" stroke="none" 
	d="
M300.995117,261.004883 
	C307.351135,261.003143 313.707153,261.001404 320.531586,260.999817 
	C321.000000,267.354401 321.000000,273.708801 320.531586,280.531769 
	C313.707153,280.998596 307.351135,280.996857 300.997559,280.997559 
	C301.000000,281.000000 301.004883,281.004883 301.002930,280.535950 
	C301.002258,273.709747 301.003571,267.352417 301.002441,260.997559 
	C301.000000,261.000000 300.995117,261.004883 300.995117,261.004883 
z"/>
<path fill="#EDEDED" opacity="1.000000" stroke="none" 
	d="
M21.004885,300.995117 
	C21.003056,307.351135 21.001225,313.707153 20.999699,320.531586 
	C14.407270,321.000000 7.814542,321.000000 1.000000,321.000000 
	C1.000000,314.647736 1.000000,308.292908 1.468403,301.469208 
	C8.292832,300.998596 14.648858,300.996857 21.004885,300.995117 
z"/>
<path fill="#EDEDED" opacity="1.000000" stroke="none" 
	d="
M300.995117,280.995117 
	C307.351135,280.996857 313.707153,280.998596 320.531586,281.000183 
	C321.000000,287.354401 321.000000,293.708801 321.000000,300.531616 
	C314.644257,300.999451 308.288544,300.998871 301.463806,300.996582 
	C300.994812,300.994812 301.000153,301.000153 301.000946,300.533691 
	C300.999542,293.709839 300.997345,287.352478 300.995117,280.995117 
z"/>
<path fill="#FEFEFE" opacity="1.000000" stroke="none" 
	d="
M21.002262,300.997559 
	C14.648858,300.996857 8.292832,300.998596 1.468403,301.000183 
	C1.000000,294.645599 1.000000,288.291199 1.000000,281.468384 
	C7.355791,281.000458 13.711582,281.000916 20.533508,281.000671 
	C20.999645,281.000000 20.995152,280.995117 20.997116,281.464050 
	C20.997753,288.290253 20.996424,294.647583 20.995094,301.004883 
	C20.995094,301.004883 20.999641,301.000000 21.002262,300.997559 
z"/>
<path fill="#EDEDED" opacity="1.000000" stroke="none" 
	d="
M261.000000,1.000000 
	C267.354401,1.000000 273.708801,1.000000 280.531433,1.468404 
	C281.001312,8.292227 281.002960,14.647646 280.535736,21.001001 
	C273.709595,21.000387 267.352356,21.001837 260.996643,20.534679 
	C260.998779,13.710715 260.999390,7.355358 261.000000,1.000000 
z"/>
<path fill="#FEFEFE" opacity="1.000000" stroke="none" 
	d="
M161.000000,1.000000 
	C167.354401,1.000000 173.708786,1.000000 180.531921,1.468405 
	C181.002167,8.292959 181.003693,14.649109 180.536255,21.003464 
	C173.709732,21.002884 167.352219,21.004099 160.996185,20.536579 
	C160.998459,13.711898 160.999222,7.355949 161.000000,1.000000 
z"/>
<path fill="#EDEDED" opacity="1.000000" stroke="none" 
	d="
M160.531586,1.000000 
	C160.999222,7.355949 160.998459,13.711898 160.999023,20.533733 
	C161.000381,20.999622 161.005341,20.994646 160.536407,20.996387 
	C153.710007,21.000364 147.352554,21.002600 140.996826,20.536131 
	C140.999023,13.711617 140.999512,7.355809 141.000000,1.000000 
	C147.354401,1.000000 153.708786,1.000000 160.531586,1.000000 
z"/>
<path fill="#EDEDED" opacity="1.000000" stroke="none" 
	d="
M181.005234,21.005259 
	C181.003693,14.649109 181.002167,8.292959 181.000320,1.468405 
	C187.354401,1.000000 193.708786,1.000000 200.531281,1.468405 
	C201.001190,8.292800 201.003006,14.648789 200.535889,21.002783 
	C193.709549,20.998760 187.352142,20.996733 180.997192,20.997173 
	C180.999619,20.999643 181.005234,21.005259 181.005234,21.005259 
z"/>
<path fill="#FEFEFE" opacity="1.000000" stroke="none" 
	d="
M140.531586,1.000000 
	C140.999512,7.355809 140.999023,13.711617 140.999420,20.533613 
	C141.000290,20.999800 141.004410,20.995529 140.535553,20.998314 
	C133.709579,21.003277 127.352440,21.005451 120.996597,20.538750 
	C120.998596,13.713248 120.999298,7.356624 121.000000,1.000000 
	C127.354393,1.000000 133.708786,1.000000 140.531586,1.000000 
z"/>
<path fill="#FEFEFE" opacity="1.000000" stroke="none" 
	d="
M201.004822,21.004780 
	C201.003006,14.648789 201.001190,8.292800 200.999680,1.468405 
	C207.354401,1.000000 213.708786,1.000000 220.531921,1.468408 
	C221.001373,8.294942 221.002106,14.653069 220.534149,21.009907 
	C213.709442,21.004845 207.353455,21.001068 200.998779,20.998680 
	C201.000076,21.000069 201.004822,21.004780 201.004822,21.004780 
z"/>
<path fill="#EDEDED" opacity="1.000000" stroke="none" 
	d="
M120.531601,1.000000 
	C120.999298,7.356624 120.998596,13.713248 120.999001,20.534760 
	C121.000107,20.999649 121.006760,20.997137 120.537674,20.997044 
	C113.710983,20.998821 107.353363,21.000692 100.997269,20.534000 
	C100.999184,13.710293 100.999588,7.355146 101.000000,1.000000 
	C107.354401,1.000000 113.708794,1.000000 120.531601,1.000000 
z"/>
<path fill="#FEFEFE" opacity="1.000000" stroke="none" 
	d="
M100.531601,1.000000 
	C100.999588,7.355146 100.999184,13.710293 100.999390,20.532764 
	C100.999992,21.000088 101.000610,21.000153 100.532150,21.002922 
	C93.708160,21.007549 87.352623,21.009411 80.997818,20.542164 
	C80.999023,13.715370 80.999512,7.357685 81.000000,1.000000 
	C87.354401,1.000000 93.708794,1.000000 100.531601,1.000000 
z"/>
<path fill="#EDEDED" opacity="1.000000" stroke="none" 
	d="
M221.002853,21.011194 
	C221.002106,14.653069 221.001373,8.294942 221.000320,1.468408 
	C227.354401,1.000000 233.708786,1.000000 240.531281,1.468404 
	C241.001038,8.292241 241.002716,14.647674 240.535507,21.001057 
	C233.707443,20.998962 227.348297,20.998919 220.994324,20.998936 
	C220.999496,20.998995 221.002853,21.011194 221.002853,21.011194 
z"/>
<path fill="#FEFEFE" opacity="1.000000" stroke="none" 
	d="
M241.004410,21.003107 
	C241.002716,14.647674 241.001038,8.292241 240.999680,1.468404 
	C247.354401,1.000000 253.708801,1.000000 260.531616,1.000000 
	C260.999390,7.355358 260.998779,13.710715 260.999084,20.533108 
	C261.000000,21.000143 261.001221,20.998680 260.532684,21.001850 
	C253.709229,21.003168 247.354309,21.001318 240.999695,20.999788 
	C241.000000,21.000111 241.004410,21.003107 241.004410,21.003107 
z"/>
<path fill="#EDEDED" opacity="1.000000" stroke="none" 
	d="
M321.000000,41.000000 
	C321.000000,47.354397 321.000000,53.708797 320.531677,60.530491 
	C314.024567,61.001083 307.985748,61.004383 301.706848,60.896690 
	C301.324768,60.471798 301.182739,60.157890 301.019836,59.388187 
	C300.998901,52.953957 300.998840,46.975517 301.467255,40.998291 
	C308.290497,40.999664 314.645233,40.999832 321.000000,41.000000 
z"/>
<path fill="#EDEDED" opacity="1.000000" stroke="none" 
	d="
M80.531601,1.000000 
	C80.999512,7.357685 80.999023,13.715370 80.999512,20.536079 
	C81.000496,20.999105 81.010529,20.999819 80.540970,20.998745 
	C73.712914,20.999310 67.354416,21.000948 60.997375,20.534023 
	C60.999226,13.710307 60.999615,7.355154 61.000000,1.000000 
	C67.354401,1.000000 73.708794,1.000000 80.531601,1.000000 
z"/>
<path fill="#FEFEFE" opacity="1.000000" stroke="none" 
	d="
M60.531597,1.000000 
	C60.999615,7.355154 60.999226,13.710307 60.999481,20.532770 
	C61.000122,21.000080 61.002144,20.997252 60.533524,20.999317 
	C53.708336,21.003368 47.351776,21.005358 40.996536,20.538486 
	C40.998569,13.713082 40.999283,7.356541 41.000000,1.000000 
	C47.354397,1.000000 53.708797,1.000000 60.531597,1.000000 
z"/>
<path fill="#FEFEFE" opacity="1.000000" stroke="none" 
	d="
M321.000000,40.531597 
	C314.645233,40.999832 308.290497,40.999664 301.467865,40.999825 
	C301.000000,41.000153 301.002441,41.001587 301.001343,40.533020 
	C301.001801,33.708004 301.003326,27.351553 301.002441,20.997551 
	C301.000000,21.000000 300.995117,21.004906 301.464020,21.002949 
	C308.288605,21.000662 314.644318,21.000330 321.000000,21.000000 
	C321.000000,27.354399 321.000000,33.708797 321.000000,40.531597 
z"/>
<path fill="#FEFEFE" opacity="1.000000" stroke="none" 
	d="
M281.004639,21.003065 
	C281.002960,14.647646 281.001312,8.292227 280.999817,1.468404 
	C287.354401,1.000000 293.708801,1.000000 300.531769,1.468403 
	C300.998596,8.292839 300.996857,14.648872 300.995117,21.004906 
	C300.995117,21.004906 301.000000,21.000000 300.533478,20.999615 
	C293.710297,20.998041 287.353668,20.996851 280.998505,20.997801 
	C281.000000,20.999941 281.004639,21.003065 281.004639,21.003065 
z"/>
<path fill="#EDEDED" opacity="1.000000" stroke="none" 
	d="
M301.464020,21.002949 
	C300.996857,14.648872 300.998596,8.292839 301.000183,1.468403 
	C307.592743,1.000000 314.185455,1.000000 321.000000,1.000000 
	C321.000000,7.352261 321.000000,13.707088 321.000000,20.530956 
	C314.644318,21.000330 308.288605,21.000662 301.464020,21.002949 
z"/>
<path fill="#EDEDED" opacity="1.000000" stroke="none" 
	d="
M40.531597,1.000000 
	C40.999283,7.356541 40.998569,13.713082 40.999149,20.534466 
	C41.000443,20.999306 41.007439,20.995161 40.538284,20.996708 
	C33.710991,20.997072 27.352850,20.995890 20.997169,20.997169 
	C20.999634,20.999634 21.005270,21.005259 21.005270,21.005259 
	C21.003716,14.649109 21.002161,8.292959 21.000301,1.468405 
	C27.354399,1.000000 33.708797,1.000000 40.531597,1.000000 
z"/>
<path fill="#EDEDED" opacity="1.000000" stroke="none" 
	d="
M1.000000,21.468403 
	C7.355764,21.000555 13.711529,21.001112 20.536282,21.003464 
	C21.005270,21.005259 20.999634,20.999634 20.998962,21.466162 
	C21.000454,28.290058 21.002617,34.647427 20.536081,41.003063 
	C13.711587,41.000889 7.355793,41.000446 1.000000,41.000000 
	C1.000000,34.645603 1.000000,28.291204 1.000000,21.468403 
z"/>
<path fill="#FEFEFE" opacity="1.000000" stroke="none" 
	d="
M1.000000,41.468403 
	C7.355793,41.000446 13.711587,41.000889 20.533611,41.000587 
	C20.999844,40.999844 20.995890,40.995888 20.999020,41.464600 
	C21.026459,47.982353 21.050764,54.031399 21.035370,60.054329 
	C20.995670,60.028217 21.087351,60.052544 20.841413,60.154598 
	C20.442026,60.564987 20.288576,60.873322 20.148193,61.190323 
	C20.161264,61.198994 20.183722,61.224277 19.708633,61.154694 
	C13.155696,61.056736 7.077848,61.028370 1.000000,61.000000 
	C1.000000,54.645603 1.000000,48.291203 1.000000,41.468403 
z"/>
<path fill="#ECEDED" opacity="1.000000" stroke="none" 
	d="
M321.000000,180.531586 
	C314.643188,180.999069 308.286377,180.998123 301.464722,180.998413 
	C300.999878,180.999649 301.001221,181.005417 301.002625,180.543610 
	C300.971161,176.917358 300.938232,173.752930 300.907227,170.334473 
	C301.219421,169.712448 301.529663,169.344437 302.114929,168.821045 
	C302.586121,168.081711 302.782257,167.497772 302.995728,166.571320 
	C303.977875,164.481461 304.942688,162.734085 306.379395,160.989014 
	C311.567535,160.994217 316.283783,160.997101 321.000000,161.000000 
	C321.000000,167.354401 321.000000,173.708786 321.000000,180.531586 
z"/>
<path fill="#FEFEFE" opacity="1.000000" stroke="none" 
	d="
M21.001526,180.990845 
	C14.646620,180.994110 8.291713,180.997375 1.468403,181.000320 
	C1.000000,174.645599 1.000000,168.291214 1.467936,161.466705 
	C6.078474,160.853363 10.221076,160.710129 14.347454,160.632919 
	C14.331229,160.698944 14.227754,160.781891 14.157693,161.146515 
	C14.700827,162.341370 15.314021,163.171600 16.039953,164.134689 
	C16.152691,164.267548 16.141191,164.615829 16.102036,164.991211 
	C16.651154,166.245728 17.239428,167.124847 17.950855,168.168610 
	C18.074007,168.333237 18.101377,168.743515 18.071999,169.107712 
	C18.638369,170.315826 19.234119,171.159729 20.036247,172.239136 
	C20.533445,173.235107 20.824266,173.995590 21.078104,175.200775 
	C21.027922,177.427246 21.014725,179.209045 21.001526,180.990845 
z"/>
<path fill="#EAEDEC" opacity="1.000000" stroke="none" 
	d="
M1.000000,61.468403 
	C7.077848,61.028370 13.155696,61.056736 19.629219,61.487122 
	C16.551773,68.294518 13.078651,74.699890 9.122738,81.078995 
	C6.093298,81.035156 3.546649,81.017578 1.000000,81.000000 
	C1.000000,74.645599 1.000000,68.291206 1.000000,61.468403 
z"/>
<path fill="#FBFEFC" opacity="1.000000" stroke="none" 
	d="
M301.946960,61.007683 
	C307.985748,61.004383 314.024567,61.001083 320.531677,60.998894 
	C321.000000,67.354401 321.000000,73.708794 320.547607,80.535217 
	C317.675385,81.063965 315.255585,81.120689 312.847382,81.166214 
	C312.859009,81.155014 312.881683,81.147446 312.854523,80.909424 
	C312.702972,80.356995 312.484680,80.134903 311.989502,79.695648 
	C308.519989,73.260017 305.233459,67.133850 301.946960,61.007683 
z"/>
<path fill="#FBFEFC" opacity="1.000000" stroke="none" 
	d="
M321.000000,160.531586 
	C316.283783,160.997101 311.567535,160.994217 306.419617,160.618378 
	C308.556824,153.782944 311.125793,147.320450 314.151367,140.897675 
	C316.738678,140.958267 318.869324,140.979141 321.000000,141.000000 
	C321.000000,147.354401 321.000000,153.708786 321.000000,160.531586 
z"/>
<path fill="#E8EDEB" opacity="1.000000" stroke="none" 
	d="
M14.363678,160.566895 
	C10.221076,160.710129 6.078474,160.853363 1.467936,160.998291 
	C1.000000,154.645599 1.000000,148.291214 1.431673,141.471313 
	C3.874986,141.000626 5.886627,140.995438 8.082972,141.316010 
	C10.299676,147.950150 12.331677,154.258514 14.363678,160.566895 
z"/>
<path fill="#F9FDFC" opacity="1.000000" stroke="none" 
	d="
M1.000000,81.468399 
	C3.546649,81.017578 6.093298,81.035156 9.001003,81.474670 
	C7.851124,88.252068 6.340187,94.607529 4.446434,100.975418 
	C3.042413,100.991905 2.021206,100.995956 1.000000,101.000000 
	C1.000000,94.645599 1.000000,88.291206 1.000000,81.468399 
z"/>
<path fill="#E5EDEA" opacity="1.000000" stroke="none" 
	d="
M312.835754,81.177414 
	C315.255585,81.120689 317.675385,81.063965 320.547607,81.003624 
	C321.000000,87.354401 321.000000,93.708794 320.565643,100.529068 
	C319.262817,101.014465 318.394318,101.033974 317.367462,100.727943 
	C315.751312,93.994072 314.293518,87.585739 312.835754,81.177414 
z"/>
<path fill="#E5EDEA" opacity="1.000000" stroke="none" 
	d="
M321.000000,140.531586 
	C318.869324,140.979141 316.738678,140.958267 314.187500,140.488525 
	C315.061066,133.678146 316.355164,127.316635 318.067932,120.968719 
	C319.324432,120.988213 320.162201,120.994110 321.000000,121.000000 
	C321.000000,127.354393 321.000000,133.708786 321.000000,140.531586 
z"/>
<path fill="#F7FCFA" opacity="1.000000" stroke="none" 
	d="
M7.898269,140.990250 
	C5.886627,140.995438 3.874986,141.000626 1.431673,141.002914 
	C1.000000,134.645599 1.000000,128.291199 1.340898,121.462914 
	C2.749584,121.667213 3.817371,122.345406 4.961111,123.424881 
	C5.990799,129.547516 6.944534,135.268890 7.898269,140.990250 
z"/>
<path fill="#DCEAE4" opacity="1.000000" stroke="none" 
	d="
M4.885159,123.023598 
	C3.817371,122.345406 2.749584,121.667213 1.340898,120.994507 
	C1.000000,114.645599 1.000000,108.291206 1.000000,101.468399 
	C2.021206,100.995956 3.042413,100.991905 4.503395,101.443573 
	C4.923833,108.940720 4.904495,115.982155 4.885159,123.023598 
z"/>
<path fill="#F6FDFA" opacity="1.000000" stroke="none" 
	d="
M321.000000,120.531601 
	C320.162201,120.994110 319.324432,120.988213 318.056335,120.502266 
	C317.592621,113.699310 317.559235,107.376396 317.525848,101.053490 
	C318.394318,101.033974 319.262817,101.014465 320.565643,100.997475 
	C321.000000,107.354401 321.000000,113.708794 321.000000,120.531601 
z"/>
<path fill="#FEFEFE" opacity="1.000000" stroke="none" 
	d="
M300.997559,240.997803 
	C300.996429,247.352448 300.997742,253.709702 300.997070,260.535919 
	C300.995117,261.004883 301.000000,261.000000 300.533478,260.999512 
	C293.709564,261.001129 287.352173,261.003204 280.996460,260.536255 
	C280.997009,253.709732 280.995911,247.352219 281.463501,240.996155 
	C288.289795,241.000015 294.647339,241.002396 301.004883,241.004776 
	C301.004883,241.004776 301.000000,241.000397 300.997559,240.997803 
z"/>
<path fill="#F7FCFA" opacity="1.000000" stroke="none" 
	d="
M20.999470,181.460190 
	C21.014725,179.209045 21.027922,177.427246 21.347162,175.417206 
	C27.259056,183.756226 32.864906,192.323502 37.974510,200.921921 
	C31.984615,200.968094 26.490965,200.983124 20.997316,200.998169 
	C20.997316,200.998169 21.000069,201.000000 21.000851,201.001526 
	C21.000225,194.645218 20.998819,188.287369 20.999470,181.460190 
z"/>
<path fill="#E8EDEB" opacity="1.000000" stroke="none" 
	d="
M300.995789,180.997177 
	C300.992615,187.351990 300.993530,193.709290 300.992981,200.535446 
	C300.991516,201.004318 301.000854,200.999588 300.533630,200.997040 
	C294.951355,200.995712 289.833496,201.098618 284.722382,200.957336 
	C281.966980,200.881180 280.882477,201.861847 280.956299,204.670349 
	C281.099335,210.111588 280.993866,215.559326 280.995667,221.002258 
	C281.000000,221.000122 281.004333,220.991348 280.535492,220.992889 
	C273.966949,220.888397 267.867218,220.782364 261.868652,220.360657 
	C272.772400,207.018188 283.575043,193.991425 294.784424,180.970398 
	C297.127869,180.985886 299.064545,180.995651 301.001221,181.005402 
	C301.001221,181.005417 300.999878,180.999649 300.995789,180.997177 
z"/>
<path fill="#FEFEFE" opacity="1.000000" stroke="none" 
	d="
M21.002209,281.002441 
	C21.003481,274.647614 21.002192,268.290314 21.002865,261.464081 
	C21.004829,260.995117 20.999638,261.000000 21.466318,261.000488 
	C28.290434,260.998871 34.647869,260.996826 41.003563,261.463745 
	C40.999615,268.290131 40.997417,274.647491 40.997444,281.002441 
	C40.999668,281.000000 41.004757,280.995117 40.536060,280.996887 
	C33.709961,280.997467 27.352556,280.996277 20.995152,280.995117 
	C20.995152,280.995117 20.999645,281.000000 21.002209,281.002441 
z"/>
<path fill="#ECEDED" opacity="1.000000" stroke="none" 
	d="
M20.998674,201.466766 
	C26.490965,200.983124 31.984615,200.968094 38.212708,201.087677 
	C39.622536,202.181412 40.297920,203.140549 40.989914,204.559418 
	C41.005173,210.347321 41.003822,215.675491 40.533920,221.002090 
	C33.708496,220.998428 27.351629,220.996338 20.994762,220.994247 
	C20.994762,220.994247 20.999550,220.999603 21.002613,221.002396 
	C21.003794,214.648575 21.001913,208.291977 20.998674,201.466766 
z"/>
<path fill="#EDEDED" opacity="1.000000" stroke="none" 
	d="
M41.005306,260.994781 
	C34.647869,260.996826 28.290434,260.998871 21.464046,261.002930 
	C20.997309,254.647491 20.999523,248.290100 21.003517,241.463715 
	C21.005295,240.994720 20.999622,241.000381 21.466141,241.001099 
	C28.290026,240.999619 34.647392,240.997437 41.002769,241.464203 
	C40.998737,248.290512 40.996693,254.647903 40.997139,261.002808 
	C40.999634,261.000336 41.005306,260.994781 41.005306,260.994781 
z"/>
<path fill="#EDEDED" opacity="1.000000" stroke="none" 
	d="
M301.002930,240.535889 
	C294.647339,241.002396 288.289795,241.000015 281.466309,240.999008 
	C281.000366,241.000381 281.005280,241.005341 281.003601,240.536407 
	C281.002716,233.708755 281.003510,227.350052 281.004333,220.991348 
	C281.004333,220.991348 281.000000,221.000122 281.465027,221.000854 
	C288.288422,221.002792 294.646820,221.004028 301.005188,221.005249 
	C301.005188,221.005249 301.000183,221.000427 300.997528,220.997589 
	C300.996887,227.352188 300.998932,233.709595 301.002930,240.535889 
z"/>
<path fill="#FEFEFE" opacity="1.000000" stroke="none" 
	d="
M41.004757,240.995270 
	C34.647392,240.997437 28.290026,240.999619 21.463659,241.003555 
	C20.995874,234.647659 20.997089,228.289993 20.996532,221.463287 
	C27.351629,220.996338 33.708496,220.998428 40.532669,221.000259 
	C40.999969,221.000000 40.996197,220.997559 40.998020,221.466248 
	C40.998314,228.291519 40.996784,234.648132 40.997490,241.002533 
	C40.999725,241.000351 41.004757,240.995270 41.004757,240.995270 
z"/>
<path fill="#FEFEFE" opacity="1.000000" stroke="none" 
	d="
M301.003479,220.536316 
	C294.646820,221.004028 288.288422,221.002792 281.460693,221.002975 
	C280.993866,215.559326 281.099335,210.111588 280.956299,204.670349 
	C280.882477,201.861847 281.966980,200.881180 284.722382,200.957336 
	C289.833496,201.098618 294.951355,200.995712 300.535370,200.992920 
	C301.003479,207.350021 301.002625,213.708694 301.003479,220.536316 
z"/>
<path fill="#EDEDED" opacity="1.000000" stroke="none" 
	d="
M20.997116,281.464050 
	C27.352556,280.996277 33.709961,280.997467 40.534073,281.465851 
	C40.998734,288.290466 40.996693,294.647858 40.994652,301.005280 
	C40.994648,301.005280 40.999611,301.000336 41.002468,300.997559 
	C34.647881,300.996826 28.290438,300.998901 21.464045,301.002930 
	C20.996424,294.647583 20.997753,288.290253 20.997116,281.464050 
z"/>
<path fill="#FEFEFE" opacity="1.000000" stroke="none" 
	d="
M300.997559,280.997559 
	C300.997345,287.352478 300.999542,293.709839 301.003479,300.536194 
	C294.647797,301.003174 288.290436,301.001160 281.464081,300.997131 
	C280.995117,300.995117 281.000000,301.000000 281.000427,300.533478 
	C280.998810,293.709564 280.996765,287.352173 281.463745,280.996460 
	C288.290131,281.000397 294.647491,281.002625 301.004883,281.004883 
	C301.004883,281.004883 301.000000,281.000000 300.997559,280.997559 
z"/>
<path fill="#EDEDED" opacity="1.000000" stroke="none" 
	d="
M280.994751,280.994781 
	C280.996765,287.352173 280.998810,293.709564 281.002869,300.535919 
	C274.647522,301.002686 268.290161,301.000519 261.463806,300.996582 
	C260.994812,300.994812 261.000153,301.000153 261.000946,300.533691 
	C260.999542,293.709839 260.997314,287.352478 261.464081,280.997131 
	C268.290466,281.001190 274.647858,281.003235 281.002777,281.002777 
	C281.000275,281.000275 280.994751,280.994781 280.994751,280.994781 
z"/>
<path fill="#FEFEFE" opacity="1.000000" stroke="none" 
	d="
M260.995117,280.995117 
	C260.997314,287.352478 260.999542,293.709839 261.003479,300.536194 
	C254.647827,301.003174 248.290466,301.001160 241.464172,300.997131 
	C240.995239,300.995117 241.000397,301.000000 241.000595,300.533478 
	C240.998764,293.709564 240.996735,287.352173 241.463684,280.996460 
	C248.290085,281.000397 254.647476,281.002655 261.002441,281.002441 
	C261.000000,281.000000 260.995117,280.995117 260.995117,280.995117 
z"/>
<path fill="#EDEDED" opacity="1.000000" stroke="none" 
	d="
M240.994690,280.994781 
	C240.996735,287.352173 240.998764,293.709564 241.002777,300.535919 
	C234.647415,301.002686 228.290085,301.000519 221.463745,300.996582 
	C220.994766,300.994843 221.000397,301.000214 221.001068,300.533691 
	C220.999573,293.709839 220.997406,287.352478 221.464172,280.997131 
	C228.290527,281.001160 234.647934,281.003204 241.002869,281.002808 
	C241.000381,281.000366 240.994690,280.994781 240.994690,280.994781 
z"/>
<path fill="#FEFEFE" opacity="1.000000" stroke="none" 
	d="
M220.995239,280.995117 
	C220.997406,287.352478 220.999573,293.709839 221.003479,300.536194 
	C214.647873,301.003204 208.290482,301.001190 201.464172,300.997131 
	C200.995239,300.995117 201.000397,301.000000 201.000397,300.533478 
	C200.998505,293.708862 200.996597,287.350769 201.463684,280.994263 
	C208.289932,280.998810 214.647171,281.001709 221.002380,281.002319 
	C221.000336,281.000000 220.995255,280.995117 220.995239,280.995117 
z"/>
<path fill="#ECEDED" opacity="1.000000" stroke="none" 
	d="
M200.994705,280.992676 
	C200.996597,287.350769 200.998505,293.708862 201.002563,300.535919 
	C194.647415,301.002533 188.290085,301.000183 181.463776,300.996033 
	C180.994797,300.994263 181.000183,301.000000 181.002014,300.534424 
	C180.999405,294.779419 180.994965,289.489990 181.227936,283.959839 
	C182.995209,282.818207 184.525055,281.917267 186.516449,281.004272 
	C191.653549,280.995178 196.329117,280.998199 201.002197,281.000549 
	C200.999710,280.999908 200.994705,280.992676 200.994705,280.992676 
z"/>
<path fill="#F9FDFC" opacity="1.000000" stroke="none" 
	d="
M180.990509,284.200562 
	C180.994965,289.489990 180.999405,294.779419 181.004364,300.536469 
	C174.647797,301.003265 168.290756,301.002472 161.464859,300.999634 
	C160.996017,300.997559 161.000000,301.000000 160.998093,300.582947 
	C161.004105,298.494202 161.012039,296.822510 161.368042,295.051880 
	C168.140900,291.368774 174.565704,287.784668 180.990509,284.200562 
z"/>
<path fill="#E9EDEC" opacity="1.000000" stroke="none" 
	d="
M161.019974,295.150848 
	C161.012039,296.822510 161.004105,298.494202 160.999008,300.584167 
	C154.645615,301.000214 148.289413,300.997955 141.464264,300.994080 
	C140.995346,300.992462 141.000366,301.000732 141.002533,300.536011 
	C140.991837,295.119354 140.978989,290.167450 141.303436,285.280212 
	C148.100479,288.613556 154.560226,291.882202 161.019974,295.150848 
z"/>
<path fill="#FDFEFE" opacity="1.000000" stroke="none" 
	d="
M140.966125,285.215515 
	C140.978989,290.167450 140.991837,295.119354 141.006104,300.537872 
	C134.649384,301.002838 128.291245,301.001251 121.464149,300.997681 
	C120.995209,300.995728 121.000298,301.000000 121.000275,300.533478 
	C120.999382,293.707581 120.998512,287.348175 121.460953,280.989746 
	C125.701241,280.945526 129.478210,280.900391 133.589325,280.920410 
	C136.271027,282.395569 138.618576,283.805542 140.966125,285.215515 
z"/>
<path fill="#EDEDED" opacity="1.000000" stroke="none" 
	d="
M120.997643,280.988800 
	C120.998512,287.348175 120.999382,293.707581 121.002281,300.535919 
	C114.647102,301.002716 108.289909,301.000519 101.463715,300.996582 
	C100.994720,300.994843 101.000374,301.000244 101.001038,300.533722 
	C100.999535,293.709839 100.997368,287.352478 101.464142,280.997131 
	C108.292572,281.000366 114.652054,281.001617 121.006104,281.002167 
	C121.000671,281.001465 120.997643,280.988800 120.997643,280.988800 
z"/>
<path fill="#FEFEFE" opacity="1.000000" stroke="none" 
	d="
M100.995209,280.995117 
	C100.997368,287.352478 100.999535,293.709839 101.003494,300.536194 
	C94.647888,301.003174 88.290474,301.001160 81.464127,300.997131 
	C80.995193,300.995117 81.000381,301.000000 81.000587,300.533478 
	C80.998756,293.709564 80.996719,287.352173 81.463676,280.996460 
	C88.290054,281.000397 94.647430,281.002655 101.002594,281.002441 
	C101.000381,281.000000 100.995209,280.995117 100.995209,280.995117 
z"/>
<path fill="#EDEDED" opacity="1.000000" stroke="none" 
	d="
M80.994675,280.994781 
	C80.996719,287.352173 80.998756,293.709564 81.002792,300.535919 
	C74.647423,301.002716 68.290062,301.000519 61.463707,300.996582 
	C60.994720,300.994843 61.000378,301.000244 61.001045,300.533722 
	C61.002911,293.709717 61.004108,287.352264 61.002472,280.997559 
	C60.999634,281.000305 60.994667,281.005249 61.463661,281.003540 
	C68.290222,281.002991 74.647781,281.004120 81.002853,281.002808 
	C81.000366,281.000336 80.994675,280.994781 80.994675,280.994781 
z"/>
<path fill="#FEFEFE" opacity="1.000000" stroke="none" 
	d="
M61.005310,280.994812 
	C61.004108,287.352264 61.002911,293.709717 61.003506,300.536194 
	C54.647747,301.004089 48.290195,301.002991 41.463646,301.003601 
	C40.996693,294.647858 40.998734,288.290466 41.002769,281.464081 
	C41.004757,280.995117 40.999668,281.000000 41.466377,281.000427 
	C48.290493,280.998840 54.647903,280.996826 61.005310,280.994812 
z"/>
<path fill="#EDEDED" opacity="1.000000" stroke="none" 
	d="
M301.002930,280.535950 
	C294.647491,281.002625 288.290131,281.000397 281.463745,280.996460 
	C280.994751,280.994781 281.000275,281.000275 281.001099,280.533813 
	C281.003021,273.709778 281.004150,267.352264 281.002777,260.997223 
	C281.000275,260.999725 280.994781,261.005249 280.994781,261.005249 
	C287.352173,261.003204 293.709564,261.001129 300.535919,260.997070 
	C301.003571,267.352417 301.002258,273.709747 301.002930,280.535950 
z"/>
<path fill="#FBFEFC" opacity="1.000000" stroke="none" 
	d="
M260.997559,21.001715 
	C267.352356,21.001837 273.709595,21.000387 280.535736,21.001001 
	C281.004639,21.003065 281.000000,20.999941 281.000549,21.466106 
	C280.674011,27.625399 280.346893,33.318527 279.669373,39.032909 
	C279.086914,39.084305 278.854858,39.114441 278.284241,39.082932 
	C272.308044,36.283321 266.670410,33.545357 261.024658,30.365448 
	C261.011444,26.948563 261.006317,23.973621 261.001221,20.998680 
	C261.001221,20.998680 261.000000,21.000143 260.997559,21.001715 
z"/>
<path fill="#EDEDED" opacity="1.000000" stroke="none" 
	d="
M160.997528,21.002468 
	C167.352219,21.004099 173.709732,21.002884 180.536255,21.003464 
	C181.005234,21.005259 180.999619,20.999643 180.998932,21.466167 
	C181.002106,28.289001 181.005936,34.645309 180.540253,40.999577 
	C173.711914,40.997910 167.353104,40.998283 160.997223,40.999283 
	C161.000153,40.999905 161.004715,41.007645 161.003448,40.538765 
	C161.003220,33.711472 161.004288,27.353060 161.005341,20.994646 
	C161.005341,20.994646 161.000381,20.999622 160.997528,21.002468 
z"/>
<path fill="#FEFEFE" opacity="1.000000" stroke="none" 
	d="
M160.536407,20.996387 
	C161.004288,27.353060 161.003220,33.711472 160.534409,40.537148 
	C154.951767,41.003204 149.834061,40.900196 144.723129,41.041653 
	C141.967712,41.117916 140.882233,40.137707 140.957703,37.328991 
	C141.103928,31.888016 141.002945,26.440395 141.004410,20.995529 
	C141.004410,20.995529 141.000290,20.999800 140.997696,21.002317 
	C147.352554,21.002600 153.710007,21.000364 160.536407,20.996387 
z"/>
<path fill="#FEFEFE" opacity="1.000000" stroke="none" 
	d="
M181.009766,41.001621 
	C181.005936,34.645309 181.002106,28.289001 180.996506,21.463699 
	C187.352142,20.996733 193.709549,20.998760 200.535889,21.002783 
	C201.004822,21.004780 201.000076,21.000069 201.002609,21.455620 
	C200.997986,25.251566 200.990829,28.591963 200.776031,31.977148 
	C200.568390,32.021938 200.144257,32.047146 199.890594,32.136658 
	C199.420456,32.504543 199.203979,32.782913 198.888824,33.153618 
	C198.790115,33.245953 198.542389,33.137787 198.229401,33.171169 
	C197.610275,33.472519 197.304138,33.740482 196.895981,34.111828 
	C196.793961,34.215210 196.507690,34.165882 196.109177,34.124001 
	C194.810181,34.727448 193.909714,35.372780 193.005066,36.008331 
	C193.000885,35.998554 193.019135,36.011524 192.712433,36.026218 
	C191.944244,36.388794 191.482773,36.736679 190.843872,37.337708 
	C189.753067,38.051842 188.839676,38.512825 187.624695,39.005936 
	C186.897125,39.415321 186.471146,39.792576 185.882935,40.430901 
	C184.818726,41.139912 183.916763,41.587856 182.852142,41.782700 
	C182.129593,41.353603 181.569672,41.177612 181.009766,41.001621 
z"/>
<path fill="#E9EDEC" opacity="1.000000" stroke="none" 
	d="
M140.535553,20.998314 
	C141.002945,26.440395 141.103928,31.888016 140.957703,37.328991 
	C140.882233,40.137707 141.967712,41.117916 144.723129,41.041653 
	C149.834061,40.900196 154.951767,41.003204 160.535675,41.006027 
	C161.004715,41.007645 161.000153,40.999905 160.996857,41.467903 
	C160.994278,47.078831 161.080994,52.223812 160.958023,57.363777 
	C160.900024,59.786892 161.561432,61.229748 164.130234,61.437210 
	C163.077026,62.970879 162.121292,64.167435 161.028015,65.536179 
	C158.122757,61.835037 155.755615,58.651344 153.214767,55.612915 
	C144.428345,45.105907 133.119202,38.026489 120.988815,31.627312 
	C120.997383,27.774721 121.002068,24.385929 121.006760,20.997137 
	C121.006760,20.997137 121.000107,20.999649 120.997704,21.003639 
	C127.352440,21.005451 133.709579,21.003277 140.535553,20.998314 
z"/>
<path fill="#E5EDEA" opacity="1.000000" stroke="none" 
	d="
M200.983673,31.932358 
	C200.990829,28.591963 200.997986,25.251566 201.001312,21.454231 
	C207.353455,21.001068 213.709442,21.004845 220.534149,21.009907 
	C221.002853,21.011194 220.999496,20.998995 220.994751,21.383961 
	C221.333420,23.465069 221.676819,25.161209 221.640167,26.975328 
	C214.501312,28.706324 207.742493,30.319342 200.983673,31.932358 
z"/>
<path fill="#F9FDFC" opacity="1.000000" stroke="none" 
	d="
M120.537674,20.997044 
	C121.002068,24.385929 120.997383,27.774721 120.602257,31.600460 
	C113.814697,30.317066 107.417580,28.596725 101.014069,26.457067 
	C101.005325,24.358549 101.002960,22.679352 101.000610,21.000153 
	C101.000610,21.000153 100.999992,21.000088 100.997871,21.001324 
	C107.353363,21.000692 113.710983,20.998821 120.537674,20.997044 
z"/>
<path fill="#E5EDEA" opacity="1.000000" stroke="none" 
	d="
M100.532150,21.002922 
	C101.002960,22.679352 101.005325,24.358549 100.546303,26.505135 
	C93.704872,26.829531 87.324829,26.686541 80.955711,26.152027 
	C80.981270,24.173611 80.995903,22.586714 81.010529,20.999819 
	C81.010529,20.999819 81.000496,20.999105 80.998795,21.005188 
	C87.352623,21.009411 93.708160,21.007549 100.532150,21.002922 
z"/>
<path fill="#FBFEFC" opacity="1.000000" stroke="none" 
	d="
M222.020233,26.857349 
	C221.676819,25.161209 221.333420,23.465069 220.989563,21.383904 
	C227.348297,20.998919 233.707443,20.998962 240.535507,21.001057 
	C241.004410,21.003107 241.000000,21.000111 241.003372,21.451149 
	C240.990265,23.407385 240.973785,24.912584 240.494858,26.423679 
	C234.028351,26.572166 228.024292,26.714758 222.020233,26.857349 
z"/>
<path fill="#E5EDEA" opacity="1.000000" stroke="none" 
	d="
M240.957306,26.417782 
	C240.973785,24.912584 240.990265,23.407385 241.003067,21.450827 
	C247.354309,21.001318 253.709229,21.003168 260.532684,21.001850 
	C261.006317,23.973621 261.011444,26.948563 260.641998,30.360371 
	C253.830734,29.337420 247.394028,27.877602 240.957306,26.417782 
z"/>
<path fill="#4FAC87" opacity="1.000000" stroke="none" 
	d="
M240.494858,26.423679 
	C247.394028,27.877602 253.830734,29.337420 260.650116,30.802315 
	C266.670410,33.545357 272.308044,36.283321 278.455017,39.332745 
	C279.323547,39.815693 279.682678,39.987183 280.171356,40.360344 
	C280.730804,40.743256 281.160767,40.924500 281.780945,41.398659 
	C288.327698,47.742374 294.684204,53.793179 301.040710,59.843983 
	C301.182739,60.157890 301.324768,60.471798 301.706848,60.896694 
	C305.233459,67.133850 308.519989,73.260017 311.988617,79.945312 
	C312.407715,80.718781 312.644714,80.933113 312.881683,81.147446 
	C312.881683,81.147446 312.859009,81.155014 312.847382,81.166214 
	C314.293518,87.585739 315.751312,93.994072 317.367462,100.727943 
	C317.559235,107.376396 317.592621,113.699310 317.637634,120.488678 
	C316.355164,127.316635 315.061066,133.678146 313.730835,140.448792 
	C311.125793,147.320450 308.556824,153.782944 305.947693,160.616089 
	C304.942688,162.734085 303.977875,164.481461 302.746765,166.751328 
	C302.266968,167.841370 302.053436,168.408890 301.839905,168.976425 
	C301.529663,169.344437 301.219421,169.712448 300.621948,170.550751 
	C298.349030,174.335587 296.363342,177.650116 294.377655,180.964661 
	C283.575043,193.991425 272.772400,207.018188 261.882996,220.378067 
	C261.796234,220.711182 261.790558,220.752350 261.532410,220.825821 
	C261.100403,221.198700 260.926544,221.498108 260.814209,221.767456 
	C260.875763,221.737396 260.739014,221.745255 260.424286,221.843719 
	C253.334915,228.265808 246.560272,234.589417 239.494354,241.049133 
	C237.459503,242.753220 235.715927,244.321198 233.709717,245.983612 
	C233.216339,246.363449 232.985580,246.648849 232.463379,247.036652 
	C231.110931,248.077576 230.049927,249.016068 228.738129,250.035645 
	C228.290176,250.396591 228.093033,250.676453 227.936676,250.953674 
	C227.977478,250.951065 227.929916,250.884552 227.626144,250.942383 
	C226.583954,251.678543 225.845535,252.356857 224.795212,253.133423 
	C223.329437,254.198685 222.175583,255.165710 220.790558,256.168243 
	C220.233719,256.357880 220.091110,256.613983 219.912598,257.241821 
	C213.457657,261.989136 207.221756,266.466644 200.643402,271.009796 
	C195.552277,274.389069 190.803589,277.702728 186.054901,281.016357 
	C184.525055,281.917267 182.995209,282.818207 181.227936,283.959839 
	C174.565704,287.784668 168.140900,291.368774 161.368042,295.051880 
	C154.560226,291.882202 148.100479,288.613556 141.303436,285.280212 
	C138.618576,283.805542 136.271027,282.395569 133.385300,280.644073 
	C128.887756,277.919189 124.928383,275.535797 120.839584,273.032440 
	C120.710152,272.912476 120.358070,272.887573 120.204849,272.642639 
	C119.704941,272.249420 119.358253,272.101105 118.882187,271.721008 
	C118.272911,271.292419 117.793022,271.095581 117.166397,270.657043 
	C116.681206,270.270874 116.342735,270.126434 115.873215,269.749512 
	C115.263092,269.311859 114.784012,269.106689 114.158066,268.662109 
	C113.675255,268.278595 113.339310,268.134521 113.001678,267.995239 
	C113.000000,268.000000 113.009293,267.994080 112.859940,267.718933 
	C111.812675,266.946777 110.914757,266.449768 109.895981,265.722473 
	C109.309593,265.289551 108.844070,265.086914 108.221573,264.637207 
	C107.718910,264.225006 107.373207,264.059906 106.918694,263.668762 
	C106.360367,263.251404 105.910851,263.060089 105.296265,262.613953 
	C104.769836,262.196411 104.408470,262.033661 104.048035,261.915039 
	C104.048965,261.959198 104.119743,261.906403 103.959579,261.611755 
	C96.189484,255.580475 88.579544,249.843872 80.843010,243.820984 
	C79.546104,242.670776 78.375786,241.806870 77.046249,240.641159 
	C71.584717,235.581741 66.282410,230.824142 60.854961,225.760300 
	C58.839611,223.613800 56.949402,221.773529 54.913780,219.633209 
	C50.170017,214.255325 45.571663,209.177490 40.973305,204.099670 
	C40.297920,203.140549 39.622536,202.181412 38.708954,201.056519 
	C32.864906,192.323502 27.259056,183.756226 21.384146,174.972519 
	C20.824266,173.995590 20.533445,173.235107 20.026745,171.922180 
	C19.241037,170.494324 18.671207,169.618927 18.101377,168.743515 
	C18.101377,168.743515 18.074007,168.333237 17.947746,167.845703 
	C17.261387,166.444046 16.701288,165.529938 16.141190,164.615829 
	C16.141191,164.615829 16.152691,164.267548 16.040037,163.814178 
	C15.360841,162.501160 14.794299,161.641525 14.227756,160.781891 
	C14.227754,160.781891 14.331229,160.698944 14.347454,160.632919 
	C12.331677,154.258514 10.299676,147.950150 8.082973,141.316010 
	C6.944534,135.268890 5.990799,129.547516 4.961111,123.424881 
	C4.904495,115.982155 4.923833,108.940720 4.886210,101.431129 
	C6.340187,94.607529 7.851124,88.252068 9.483795,81.500938 
	C13.078651,74.699890 16.551773,68.294518 20.104307,61.556709 
	C20.183722,61.224277 20.161264,61.198994 20.401783,61.099480 
	C20.790651,60.684158 20.938999,60.368351 21.087349,60.052544 
	C21.087351,60.052544 20.995670,60.028217 21.326471,59.891289 
	C28.091597,53.495117 34.525921,47.235882 40.974693,40.983963 
	C40.989147,40.991283 40.980026,40.956390 41.317665,40.874748 
	C48.109241,37.472393 54.563183,34.151676 61.397453,30.832975 
	C67.185555,29.514679 72.593330,28.194368 78.253670,26.914242 
	C78.667679,26.899588 78.829117,26.844748 79.323471,26.826218 
	C80.085854,26.756201 80.515312,26.649874 80.944778,26.543549 
	C87.324829,26.686541 93.704872,26.829531 100.552689,26.924454 
	C107.417580,28.596725 113.814697,30.317066 120.598373,32.064259 
	C133.119202,38.026489 144.428345,45.105907 153.214767,55.612915 
	C155.755615,58.651344 158.122757,61.835037 161.028015,65.536179 
	C162.121292,64.167435 163.077026,62.970879 164.407318,61.265640 
	C170.859497,54.516575 176.937149,48.276184 183.014801,42.035797 
	C183.916763,41.587856 184.818726,41.139912 186.172104,40.380951 
	C187.057770,39.704552 187.492035,39.339176 187.926300,38.973801 
	C188.839676,38.512825 189.753067,38.051842 191.142197,37.312767 
	C192.085007,36.693623 192.552078,36.352573 193.019135,36.011520 
	C193.019135,36.011524 193.000885,35.998554 193.339294,35.978432 
	C194.621033,35.360836 195.564362,34.763359 196.507690,34.165882 
	C196.507690,34.165882 196.793961,34.215210 197.205887,34.075836 
	C197.925995,33.670231 198.234192,33.404007 198.542389,33.137783 
	C198.542389,33.137787 198.790115,33.245953 199.163620,33.104836 
	C199.739502,32.658195 199.941879,32.352669 200.144257,32.047142 
	C200.144257,32.047146 200.568390,32.021938 200.776031,31.977148 
	C207.742493,30.319342 214.501312,28.706324 221.640167,26.975328 
	C228.024292,26.714758 234.028351,26.572166 240.494858,26.423679 
z"/>
<path fill="#F7FCFA" opacity="1.000000" stroke="none" 
	d="
M301.019836,59.388187 
	C294.684204,53.793179 288.327698,47.742374 282.283875,41.367779 
	C288.731873,41.029854 294.867157,41.015720 301.002441,41.001587 
	C301.002441,41.001587 301.000000,41.000153 300.999390,40.998619 
	C300.998840,46.975517 300.998901,52.953957 301.019836,59.388187 
z"/>
<path fill="#F9FDFC" opacity="1.000000" stroke="none" 
	d="
M80.955711,26.152027 
	C80.515312,26.649874 80.085854,26.756201 79.220978,26.689171 
	C78.524086,26.635227 78.262589,26.754642 78.001099,26.874056 
	C72.593330,28.194368 67.185555,29.514679 61.394669,30.391571 
	C61.008411,26.964518 61.005280,23.980885 61.002144,20.997252 
	C61.002144,20.997252 61.000122,21.000080 60.998016,21.001333 
	C67.354416,21.000948 73.712914,20.999310 80.540970,20.998745 
	C80.995903,22.586714 80.981270,24.173611 80.955711,26.152027 
z"/>
<path fill="#EAEDEC" opacity="1.000000" stroke="none" 
	d="
M60.533524,20.999317 
	C61.005280,23.980885 61.008411,26.964518 61.014336,30.389555 
	C54.563183,34.151676 48.109241,37.472393 41.319366,40.409828 
	C40.991432,33.682751 40.999435,27.338955 41.007439,20.995161 
	C41.007439,20.995161 41.000443,20.999306 40.997826,21.003326 
	C47.351776,21.005358 53.708336,21.003368 60.533524,20.999317 
z"/>
<path fill="#EDEDED" opacity="1.000000" stroke="none" 
	d="
M301.001343,40.533020 
	C294.867157,41.015720 288.731873,41.029854 282.093628,41.074867 
	C281.160767,40.924500 280.730804,40.743256 280.158691,40.073181 
	C280.017609,39.393448 280.018707,39.202553 280.019775,39.011654 
	C280.346893,33.318527 280.674011,27.625399 280.999084,21.463966 
	C287.353668,20.996851 293.710297,20.998041 300.535919,20.997166 
	C301.003326,27.351553 301.001801,33.708004 301.001343,40.533020 
z"/>
<path fill="#FEFEFE" opacity="1.000000" stroke="none" 
	d="
M40.538288,20.996708 
	C40.999435,27.338955 40.991432,33.682751 40.981728,40.491467 
	C40.980026,40.956390 40.989147,40.991283 40.509583,40.981567 
	C33.685310,40.979862 27.340601,40.987877 20.995890,40.995888 
	C20.995890,40.995888 20.999844,40.999844 21.002312,41.002319 
	C21.002617,34.647427 21.000454,28.290058 20.996498,21.463697 
	C27.352850,20.995890 33.710991,20.997072 40.538288,20.996708 
z"/>
<path fill="#E8EDEB" opacity="1.000000" stroke="none" 
	d="
M20.999020,41.464600 
	C27.340601,40.987877 33.685310,40.979862 40.495132,40.974247 
	C34.525921,47.235882 28.091597,53.495117 21.366171,59.917397 
	C21.050764,54.031399 21.026459,47.982353 20.999020,41.464600 
z"/>
<path fill="#EAEDEC" opacity="1.000000" stroke="none" 
	d="
M20.841412,60.154598 
	C20.938999,60.368351 20.790651,60.684158 20.388714,61.090813 
	C20.288576,60.873322 20.442026,60.564987 20.841412,60.154598 
z"/>
<path fill="#F6FDFA" opacity="1.000000" stroke="none" 
	d="
M294.784424,180.970383 
	C296.363342,177.650116 298.349030,174.335587 300.620026,170.804779 
	C300.938232,173.752930 300.971161,176.917358 301.002625,180.543594 
	C299.064545,180.995651 297.127869,180.985886 294.784424,180.970383 
z"/>
<path fill="#F6FDFA" opacity="1.000000" stroke="none" 
	d="
M302.114929,168.821045 
	C302.053436,168.408890 302.266968,167.841370 302.729462,167.093842 
	C302.782257,167.497772 302.586121,168.081711 302.114929,168.821045 
z"/>
<path fill="#F7FCFA" opacity="1.000000" stroke="none" 
	d="
M16.102036,164.991211 
	C16.701288,165.529938 17.261387,166.444046 17.824593,167.681061 
	C17.239428,167.124847 16.651154,166.245728 16.102036,164.991211 
z"/>
<path fill="#F7FCFA" opacity="1.000000" stroke="none" 
	d="
M18.071999,169.107712 
	C18.671207,169.618927 19.241037,170.494324 19.820370,171.686691 
	C19.234119,171.159729 18.638369,170.315826 18.071999,169.107712 
z"/>
<path fill="#F7FCFA" opacity="1.000000" stroke="none" 
	d="
M14.157695,161.146515 
	C14.794299,161.641525 15.360841,162.501160 15.927299,163.681305 
	C15.314021,163.171600 14.700827,162.341370 14.157695,161.146515 
z"/>
<path fill="#E5EDEA" opacity="1.000000" stroke="none" 
	d="
M312.854523,80.909424 
	C312.644714,80.933113 312.407715,80.718781 312.171631,80.254791 
	C312.484680,80.134903 312.702972,80.356995 312.854523,80.909424 
z"/>
<path fill="#EDEDED" opacity="1.000000" stroke="none" 
	d="
M280.997559,240.997528 
	C280.995911,247.352219 280.997009,253.709732 280.996460,260.536255 
	C280.994781,261.005249 281.000275,260.999725 280.533813,260.998901 
	C273.709839,260.997009 267.352325,260.995911 260.997498,260.997498 
	C261.000153,261.000153 261.005188,261.005188 261.003479,260.536194 
	C261.002625,253.708588 261.003479,247.349960 261.002594,240.995468 
	C261.000854,240.999588 260.991516,241.004288 261.460449,241.003143 
	C268.288025,241.003098 274.646637,241.004211 281.005280,241.005341 
	C281.005280,241.005341 281.000366,241.000381 280.997559,240.997528 
z"/>
<path fill="#FEFEFE" opacity="1.000000" stroke="none" 
	d="
M281.003601,240.536407 
	C274.646637,241.004211 268.288025,241.003098 261.461853,240.534332 
	C260.909241,233.959534 260.824097,227.852402 260.739014,221.745255 
	C260.739014,221.745255 260.875763,221.737396 261.091553,221.720032 
	C261.468445,221.385895 261.629517,221.069122 261.790558,220.752350 
	C261.790558,220.752350 261.796234,220.711182 261.781860,220.693756 
	C267.867218,220.782364 273.966949,220.888397 280.535492,220.992889 
	C281.003510,227.350052 281.002716,233.708755 281.003601,240.536407 
z"/>
<path fill="#EDEDED" opacity="1.000000" stroke="none" 
	d="
M61.002472,280.997559 
	C54.647903,280.996826 48.290493,280.998840 41.464153,281.002869 
	C40.997417,274.647491 40.999615,268.290131 41.003563,261.463745 
	C41.005306,260.994781 40.999634,261.000336 41.466141,261.001099 
	C48.290039,260.999634 54.647438,260.997375 61.002865,261.464081 
	C60.998817,268.290436 60.996742,274.647858 60.994667,281.005249 
	C60.994667,281.005249 60.999634,281.000305 61.002472,280.997559 
z"/>
<path fill="#F9FDFC" opacity="1.000000" stroke="none" 
	d="
M40.989914,204.559418 
	C45.571663,209.177490 50.170017,214.255325 54.622620,219.938995 
	C49.983311,220.695755 45.489754,220.846664 40.996197,220.997559 
	C40.996197,220.997559 40.999969,221.000000 41.001221,221.001831 
	C41.003822,215.675491 41.005173,210.347321 40.989914,204.559418 
z"/>
<path fill="#FEFEFE" opacity="1.000000" stroke="none" 
	d="
M61.004833,260.995117 
	C54.647438,260.997375 48.290039,260.999634 41.463646,261.003601 
	C40.996693,254.647903 40.998737,248.290512 41.002769,241.464203 
	C41.004757,240.995270 40.999725,241.000351 41.466423,241.000381 
	C48.290646,240.998367 54.648167,240.996307 61.003967,241.463318 
	C60.999886,248.289871 60.997524,254.647369 60.997414,261.002441 
	C60.999668,261.000000 61.004833,260.995117 61.004833,260.995117 
z"/>
<path fill="#ECEDED" opacity="1.000000" stroke="none" 
	d="
M61.005688,240.994263 
	C54.648167,240.996307 48.290646,240.998367 41.464188,241.002563 
	C40.996784,234.648132 40.998314,228.291519 40.998020,221.466248 
	C45.489754,220.846664 49.983311,220.695755 54.768028,220.239059 
	C56.949402,221.773529 58.839611,223.613800 60.865669,226.221191 
	C60.999878,231.660004 60.998241,236.331680 60.998337,241.001617 
	C61.000076,240.999863 61.005688,240.994263 61.005688,240.994263 
z"/>
<path fill="#FEFEFE" opacity="1.000000" stroke="none" 
	d="
M260.994843,260.994812 
	C267.352325,260.995911 273.709839,260.997009 280.536316,260.996399 
	C281.004150,267.352264 281.003021,273.709778 281.003601,280.536316 
	C274.647858,281.003235 268.290466,281.001190 261.464081,280.997131 
	C260.995117,280.995117 261.000000,281.000000 261.000427,280.533478 
	C260.998871,273.709564 260.996857,267.352203 260.994843,260.994812 
z"/>
<path fill="#EDEDED" opacity="1.000000" stroke="none" 
	d="
M260.997498,260.997498 
	C260.996857,267.352203 260.998871,273.709564 261.002869,280.535950 
	C254.647476,281.002655 248.290085,281.000397 241.463684,280.996460 
	C240.994690,280.994781 241.000381,281.000366 241.001114,280.533844 
	C241.002808,273.709106 241.003784,267.350891 241.002167,260.996704 
	C240.999588,261.000763 240.992554,261.004883 241.461777,261.003296 
	C248.289062,261.002899 254.647125,261.004059 261.005188,261.005188 
	C261.005188,261.005188 261.000153,261.000153 260.997498,260.997498 
z"/>
<path fill="#FEFEFE" opacity="1.000000" stroke="none" 
	d="
M241.004761,260.992676 
	C241.003784,267.350891 241.002808,273.709106 241.003601,280.536316 
	C234.647934,281.003204 228.290527,281.001160 221.464188,280.997131 
	C220.995255,280.995117 221.000336,281.000000 220.999649,280.533295 
	C220.999146,274.951721 221.100998,269.833984 220.958725,264.723083 
	C220.882004,261.967499 221.862671,260.883575 224.671280,260.957520 
	C230.112320,261.100800 235.559891,260.995148 241.004761,260.992676 
z"/>
<path fill="#EAEDEC" opacity="1.000000" stroke="none" 
	d="
M241.002167,260.996704 
	C235.559891,260.995148 230.112320,261.100800 224.671280,260.957520 
	C221.862671,260.883575 220.882004,261.967499 220.958725,264.723083 
	C221.100998,269.833984 220.999146,274.951721 221.001694,280.535583 
	C214.647171,281.001709 208.289932,280.998810 201.463684,280.994263 
	C200.994705,280.992676 200.999710,280.999908 201.002869,280.545166 
	C200.999298,277.041656 200.992584,273.992889 200.985870,270.944153 
	C207.221756,266.466644 213.457657,261.989136 220.098938,257.147278 
	C220.735397,256.612854 220.907852,256.396118 221.021713,256.132751 
	C222.175583,255.165710 223.329437,254.198685 225.145599,253.115814 
	C226.515244,252.294830 227.222580,251.589691 227.929916,250.884552 
	C227.929916,250.884552 227.977478,250.951065 228.180023,250.861984 
	C228.584686,250.500122 228.786804,250.227341 228.988937,249.954559 
	C230.049927,249.016068 231.110931,248.077576 232.737000,246.956207 
	C233.525482,246.478607 233.748917,246.183899 233.972351,245.889191 
	C235.715927,244.321198 237.459503,242.753220 239.803345,241.080490 
	C240.609848,240.989288 240.816116,241.002838 241.013641,241.483047 
	C241.000793,248.301437 240.996674,254.653168 240.992554,261.004883 
	C240.992554,261.004883 240.999588,261.000763 241.002167,260.996704 
z"/>
<path fill="#F6FDFA" opacity="1.000000" stroke="none" 
	d="
M200.643417,271.009796 
	C200.992584,273.992889 200.999298,277.041656 201.005341,280.545807 
	C196.329117,280.998199 191.653549,280.995178 186.516449,281.004272 
	C190.803589,277.702728 195.552277,274.389069 200.643417,271.009796 
z"/>
<path fill="#E5EDEA" opacity="1.000000" stroke="none" 
	d="
M120.969017,273.152405 
	C124.928383,275.535797 128.887756,277.919189 133.051147,280.578918 
	C129.478210,280.900391 125.701241,280.945526 121.460953,280.989746 
	C120.997643,280.988800 121.000671,281.001465 121.004883,280.563263 
	C120.995735,277.800842 120.982376,275.476624 120.969017,273.152405 
z"/>
<path fill="#FEFEFE" opacity="1.000000" stroke="none" 
	d="
M120.839584,273.032440 
	C120.982376,275.476624 120.995735,277.800842 121.010323,280.563965 
	C114.652054,281.001617 108.292572,281.000366 101.464142,280.997131 
	C100.995209,280.995117 101.000381,281.000000 101.000610,280.533630 
	C101.003899,274.045776 101.006966,268.024292 101.398293,262.001221 
	C102.564285,261.968567 103.342010,261.937500 104.119743,261.906433 
	C104.119743,261.906403 104.048965,261.959198 104.191315,262.190613 
	C104.709549,262.570923 105.085442,262.719849 105.461334,262.868774 
	C105.910851,263.060089 106.360367,263.251404 107.057007,263.933685 
	C107.662270,264.577881 108.020409,264.731079 108.378548,264.884277 
	C108.844070,265.086914 109.309593,265.289551 109.939865,266.072357 
	C111.072838,267.099701 112.041069,267.546875 113.009293,267.994080 
	C113.009293,267.994080 113.000000,268.000000 113.145660,268.236298 
	C113.629196,268.615601 113.967064,268.758575 114.304932,268.901550 
	C114.784012,269.106689 115.263092,269.311859 116.017609,269.992371 
	C116.633072,270.611420 116.973099,270.755096 117.313126,270.898773 
	C117.793022,271.095581 118.272911,271.292419 119.028122,271.972626 
	C119.654984,272.599884 120.006523,272.743713 120.358070,272.887573 
	C120.358070,272.887573 120.710152,272.912476 120.839584,273.032440 
z"/>
<path fill="#EDEDED" opacity="1.000000" stroke="none" 
	d="
M101.010033,262.002838 
	C101.006966,268.024292 101.003899,274.045776 101.002823,280.536072 
	C94.647430,281.002655 88.290054,281.000397 81.463669,280.996460 
	C80.994675,280.994781 81.000366,281.000336 81.001099,280.533813 
	C81.002991,273.709625 81.004150,267.351898 81.002739,260.997070 
	C81.000168,260.999939 80.996658,261.002441 81.465378,261.003052 
	C88.292740,261.336731 94.651390,261.669769 101.010033,262.002838 
z"/>
<path fill="#FEFEFE" opacity="1.000000" stroke="none" 
	d="
M81.005310,260.994202 
	C81.004150,267.351898 81.002991,273.709625 81.003586,280.536316 
	C74.647781,281.004120 68.290222,281.002991 61.463661,281.003540 
	C60.996742,274.647858 60.998817,268.290436 61.002865,261.464081 
	C61.004833,260.995117 60.999668,261.000000 61.466358,261.000244 
	C68.290466,260.998383 74.647888,260.996307 81.005310,260.994202 
z"/>
<path fill="#F7FCFA" opacity="1.000000" stroke="none" 
	d="
M279.669373,39.032909 
	C280.018707,39.202553 280.017609,39.393448 280.029175,39.871506 
	C279.682678,39.987183 279.323547,39.815693 278.793579,39.394394 
	C278.854858,39.114441 279.086914,39.084305 279.669373,39.032909 
z"/>
<path fill="#F7FCFA" opacity="1.000000" stroke="none" 
	d="
M182.852142,41.782696 
	C176.937149,48.276184 170.859497,54.516575 164.504761,60.928535 
	C161.561432,61.229748 160.900024,59.786892 160.958023,57.363777 
	C161.080994,52.223812 160.994278,47.078831 160.993927,41.467281 
	C167.353104,40.998283 173.711914,40.997910 180.540253,40.999577 
	C181.569672,41.177612 182.129593,41.353603 182.852142,41.782696 
z"/>
<path fill="#F7FCFA" opacity="1.000000" stroke="none" 
	d="
M196.109177,34.124001 
	C195.564362,34.763359 194.621033,35.360836 193.343475,35.988213 
	C193.909714,35.372780 194.810181,34.727448 196.109177,34.124001 
z"/>
<path fill="#F7FCFA" opacity="1.000000" stroke="none" 
	d="
M192.712433,36.026215 
	C192.552078,36.352573 192.085007,36.693623 191.319626,37.059616 
	C191.482773,36.736679 191.944244,36.388794 192.712433,36.026215 
z"/>
<path fill="#F7FCFA" opacity="1.000000" stroke="none" 
	d="
M187.624695,39.005932 
	C187.492035,39.339176 187.057770,39.704552 186.334351,40.119881 
	C186.471146,39.792576 186.897125,39.415321 187.624695,39.005932 
z"/>
<path fill="#F7FCFA" opacity="1.000000" stroke="none" 
	d="
M198.229401,33.171165 
	C198.234192,33.404007 197.925995,33.670231 197.307907,33.972450 
	C197.304138,33.740482 197.610275,33.472519 198.229401,33.171165 
z"/>
<path fill="#F7FCFA" opacity="1.000000" stroke="none" 
	d="
M199.890594,32.136658 
	C199.941879,32.352669 199.739502,32.658195 199.262329,33.012505 
	C199.203979,32.782913 199.420456,32.504543 199.890594,32.136658 
z"/>
<path fill="#ECEDED" opacity="1.000000" stroke="none" 
	d="
M81.002739,260.997070 
	C74.647888,260.996307 68.290466,260.998383 61.464104,261.002686 
	C60.997524,254.647369 60.999886,248.289871 61.003967,241.463318 
	C61.005688,240.994263 61.000076,240.999863 61.465893,241.001984 
	C67.022964,240.983734 72.114220,240.963348 77.205475,240.942978 
	C78.375786,241.806870 79.546104,242.670776 80.856514,244.280182 
	C80.996628,250.351273 80.996643,255.676849 80.996658,261.002441 
	C80.996658,261.002441 81.000168,260.999939 81.002739,260.997070 
z"/>
<path fill="#E8EDEB" opacity="1.000000" stroke="none" 
	d="
M241.022369,241.016373 
	C240.816116,241.002838 240.609848,240.989288 240.094604,240.944366 
	C246.560272,234.589417 253.334915,228.265808 260.424255,221.843719 
	C260.824097,227.852402 260.909241,233.959534 260.992920,240.535492 
	C260.991516,241.004288 261.000854,240.999588 260.533722,240.997040 
	C253.718521,241.001770 247.370438,241.009079 241.022369,241.016373 
z"/>
<path fill="#F6FDFA" opacity="1.000000" stroke="none" 
	d="
M81.465378,261.003052 
	C80.996643,255.676849 80.996628,250.351273 80.983109,244.566483 
	C88.579544,249.843872 96.189484,255.580475 103.959579,261.611755 
	C103.342010,261.937500 102.564285,261.968567 101.398293,262.001221 
	C94.651390,261.669769 88.292740,261.336731 81.465378,261.003052 
z"/>
<path fill="#F7FCFA" opacity="1.000000" stroke="none" 
	d="
M77.046249,240.641159 
	C72.114220,240.963348 67.022964,240.983734 61.464157,241.003754 
	C60.998241,236.331680 60.999878,231.660004 60.990807,226.527420 
	C66.282410,230.824142 71.584717,235.581741 77.046249,240.641159 
z"/>
<path fill="#F6FDFA" opacity="1.000000" stroke="none" 
	d="
M112.859940,267.718933 
	C112.041069,267.546875 111.072838,267.099701 110.060722,266.302612 
	C110.914757,266.449768 111.812675,266.946777 112.859940,267.718933 
z"/>
<path fill="#E8EDEB" opacity="1.000000" stroke="none" 
	d="
M227.626144,250.942383 
	C227.222580,251.589691 226.515244,252.294830 225.457520,253.017578 
	C225.845535,252.356857 226.583954,251.678543 227.626144,250.942383 
z"/>
<path fill="#E8EDEB" opacity="1.000000" stroke="none" 
	d="
M261.532410,220.825821 
	C261.629517,221.069122 261.468445,221.385895 261.030029,221.750092 
	C260.926544,221.498108 261.100403,221.198700 261.532410,220.825821 
z"/>
<path fill="#F6FDFA" opacity="1.000000" stroke="none" 
	d="
M120.204849,272.642639 
	C120.006523,272.743713 119.654984,272.599884 119.157509,272.204407 
	C119.358253,272.101105 119.704941,272.249420 120.204849,272.642639 
z"/>
<path fill="#E8EDEB" opacity="1.000000" stroke="none" 
	d="
M233.709717,245.983612 
	C233.748917,246.183899 233.525482,246.478607 233.028442,246.853775 
	C232.985580,246.648849 233.216339,246.363449 233.709717,245.983612 
z"/>
<path fill="#E8EDEB" opacity="1.000000" stroke="none" 
	d="
M228.738129,250.035645 
	C228.786804,250.227341 228.584686,250.500122 228.139221,250.864594 
	C228.093033,250.676453 228.290176,250.396591 228.738129,250.035645 
z"/>
<path fill="#E8EDEB" opacity="1.000000" stroke="none" 
	d="
M220.790558,256.168243 
	C220.907852,256.396118 220.735397,256.612854 220.317978,256.877472 
	C220.091110,256.613983 220.233719,256.357880 220.790558,256.168243 
z"/>
<path fill="#E5EDEA" opacity="1.000000" stroke="none" 
	d="
M78.253670,26.914242 
	C78.262589,26.754642 78.524086,26.635227 78.888062,26.652861 
	C78.829117,26.844748 78.667679,26.899588 78.253670,26.914242 
z"/>
<path fill="#F6FDFA" opacity="1.000000" stroke="none" 
	d="
M105.296272,262.613953 
	C105.085442,262.719849 104.709549,262.570923 104.190384,262.146484 
	C104.408470,262.033661 104.769836,262.196411 105.296272,262.613953 
z"/>
<path fill="#F6FDFA" opacity="1.000000" stroke="none" 
	d="
M108.221573,264.637207 
	C108.020409,264.731079 107.662270,264.577881 107.165817,264.159729 
	C107.373207,264.059906 107.718910,264.225006 108.221573,264.637207 
z"/>
<path fill="#F6FDFA" opacity="1.000000" stroke="none" 
	d="
M114.158066,268.662109 
	C113.967064,268.758575 113.629196,268.615601 113.147346,268.231506 
	C113.339310,268.134521 113.675255,268.278595 114.158066,268.662109 
z"/>
<path fill="#F6FDFA" opacity="1.000000" stroke="none" 
	d="
M117.166397,270.657043 
	C116.973099,270.755096 116.633072,270.611420 116.148651,270.224884 
	C116.342735,270.126434 116.681206,270.270874 117.166397,270.657043 
z"/>
<path fill="#FEFEFE" opacity="1.000000" stroke="none" 
	d="
M241.013641,241.483047 
	C247.370438,241.009079 253.718521,241.001770 260.535461,240.992920 
	C261.003479,247.349960 261.002625,253.708588 261.003479,260.536194 
	C254.647125,261.004059 248.289062,261.002899 241.461777,261.003296 
	C240.996674,254.653168 241.000793,248.301437 241.013641,241.483047 
z"/>
</svg>