<svg version="1.1" id="Layer_1" xmlns="http://www.w3.org/2000/svg" xmlns:xlink="http://www.w3.org/1999/xlink" x="0px" y="0px"
	 width="100%" viewBox="0 0 320 320" enable-background="new 0 0 320 320" xml:space="preserve">
<!-- <path fill="#FEFFFF" opacity="1.000000" stroke="none" 
	d="
M186.000000,321.000000 
	C124.000023,321.000000 62.500046,321.000000 1.000050,321.000000 
	C1.000033,214.333389 1.000033,107.666786 1.000016,1.000135 
	C107.666565,1.000090 214.333130,1.000090 320.999756,1.000045 
	C320.999847,107.666534 320.999847,214.333069 320.999939,320.999817 
	C276.166656,321.000000 231.333328,321.000000 186.000000,321.000000 
M198.082397,272.576569 
	C218.757507,258.484924 238.301682,242.999527 256.299316,225.583389 
	C275.197479,207.295792 292.100983,187.455688 304.130493,163.878571 
	C314.968964,142.635864 321.302155,120.182480 316.591980,96.364403 
	C309.663483,61.329380 288.417969,37.883202 253.859512,29.091444 
	C218.816208,20.176340 189.246780,31.325863 166.096573,59.167095 
	C164.444931,61.153423 162.872375,63.205505 161.068558,65.471313 
	C160.149887,64.368889 159.596725,63.778240 159.125031,63.128456 
	C139.339142,35.872318 112.631393,23.517517 79.157410,27.025675 
	C35.579994,31.592690 1.578456,70.031860 4.436614,117.208961 
	C6.428470,150.086761 20.289396,178.178345 40.704132,203.218185 
	C72.399315,242.094147 112.512062,270.333038 156.567627,293.447998 
	C159.954193,295.224884 162.754257,295.064270 165.870300,293.061371 
	C176.372604,286.310913 186.947052,279.672668 198.082397,272.576569 
z"/> -->
<path fill="#4FAC87" opacity="1.000000" stroke="none" 
	d="
M197.788147,272.784058 
	C186.947052,279.672668 176.372604,286.310913 165.870300,293.061371 
	C162.754257,295.064270 159.954193,295.224884 156.567627,293.447998 
	C112.512062,270.333038 72.399315,242.094147 40.704132,203.218185 
	C20.289396,178.178345 6.428470,150.086761 4.436614,117.208961 
	C1.578456,70.031860 35.579994,31.592690 79.157410,27.025675 
	C112.631393,23.517517 139.339142,35.872318 159.125031,63.128456 
	C159.596725,63.778240 160.149887,64.368889 161.068558,65.471313 
	C162.872375,63.205505 164.444931,61.153423 166.096573,59.167095 
	C189.246780,31.325863 218.816208,20.176340 253.859512,29.091444 
	C288.417969,37.883202 309.663483,61.329380 316.591980,96.364403 
	C321.302155,120.182480 314.968964,142.635864 304.130493,163.878571 
	C292.100983,187.455688 275.197479,207.295792 256.299316,225.583389 
	C238.301682,242.999527 218.757507,258.484924 197.788147,272.784058 
z"/>
</svg>