<?xml version="1.0" standalone="no"?>
<!DOCTYPE svg PUBLIC "-//W3C//DTD SVG 20010904//EN"
 "http://www.w3.org/TR/2001/REC-SVG-20010904/DTD/svg10.dtd">
<svg version="1.0" xmlns="http://www.w3.org/2000/svg"
 width="123.000000pt" height="123.000000pt" viewBox="0 0 123.000000 123.000000"
 preserveAspectRatio="xMidYMid meet">
<metadata>
Created by potrace 1.16, written by Peter Selinger 2001-2019
</metadata>
<g transform="translate(0.000000,123.000000) scale(0.100000,-0.100000)"
fill="#000000" stroke="none">
<path d="M540 921 c-75 -24 -108 -43 -154 -88 -49 -48 -68 -93 -67 -161 1 -91
59 -170 162 -217 74 -33 160 -49 237 -41 58 5 66 3 105 -24 48 -34 129 -61
148 -50 9 6 6 16 -13 38 -24 29 -54 90 -47 95 79 53 129 130 129 197 0 113
-91 213 -230 254 -71 21 -200 20 -270 -3z m253 -30 c150 -41 230 -140 205
-254 -9 -45 -46 -93 -103 -133 l-29 -21 17 -43 c9 -24 15 -45 13 -48 -6 -5
-47 17 -71 38 -16 15 -43 19 -140 22 -106 3 -127 7 -180 31 -162 75 -203 217
-95 325 89 89 242 122 383 83z"/>
<path d="M542 713 c-7 -3 -17 -13 -22 -24 -23 -43 39 -82 70 -44 26 31 -9 81
-48 68z"/>
<path d="M650 700 c-24 -24 -25 -34 -4 -54 32 -32 79 -10 72 35 -5 33 -44 43
-68 19z"/>
<path d="M776 707 c-38 -27 2 -95 42 -71 24 16 28 55 6 71 -10 7 -21 13 -24
13 -3 0 -14 -6 -24 -13z"/>
<path d="M257 738 c-90 -86 -87 -219 7 -294 43 -34 44 -47 11 -96 -31 -46 -31
-58 -2 -58 26 0 121 43 131 59 4 7 41 11 90 11 176 0 198 25 29 32 -102 5
-121 3 -138 -12 -22 -19 -65 -43 -65 -37 0 3 7 22 16 42 15 36 15 39 -3 48
-38 21 -91 84 -101 120 -13 47 -1 94 40 152 41 58 32 77 -15 33z"/>
</g>
</svg>
