<?xml version="1.0" standalone="yes"?>
<svg xmlns="http://www.w3.org/2000/svg" width="512" height="512">
<path style="fill:#0d0d0e; stroke:none;" d="M0 0L0 512L512 512L512 0L0 0z"/>
<path style="fill:#6f8793; stroke:none;" d="M427 48L427 49L454 76C464.251 68.7793 482.88 53.1666 486.775 41C491.107 27.4644 476.793 12.2931 463 15.9321C449.398 19.5208 436.679 38.3212 427 48M84 49C79.2859 42.3077 72.7796 36.7797 67 31C62.8796 26.8796 58.8874 22.0886 54 18.8542C41.0763 10.3015 22.2385 21.5986 23.213 37C23.9108 48.0285 34.818 55.818 42 63C45.1071 66.1071 51.9574 75.9114 57 74.6543C66.0323 72.4027 77.4486 55.5514 84 49z"/>
<path style="fill:#dbdec7; stroke:none;" d="M87 160L88 160C88 153.115 85.4771 140.35 91.1481 135.318C96.2407 130.799 107.636 133 114 133L174 133C180.457 133 192.676 130.649 197.772 135.318C201.63 138.853 201 144.259 201 149C201.001 158.689 205.271 178.509 192 180L192 205C203.809 207.39 201 220.751 201 230L201 305L311 305L311 212C311 204.025 314.506 184.762 309.397 178.39C305.948 174.089 298.708 171.69 294 168.999C282.042 162.165 270.071 155.325 258 148.694C221.776 128.798 186.307 107.513 150 87.7693C137.893 81.1856 125.992 74.2147 114 67.4244C109.56 64.9105 103.128 59.6355 98 59.1327C94.2738 58.7673 91.3566 62.6614 89 65.0008C82.4081 71.5443 70.9365 79.4884 67.0671 88C64.5603 93.5144 69.5876 102.604 71.1412 108C76.1398 125.36 82.9272 142.395 87 160z"/>
<path style="fill:#6f8793; stroke:none;" d="M98 58L99 59L98 58M413 58L414 59L413 58z"/>
<path style="fill:#dbdec7; stroke:none;" d="M265 135L311 161C311 153.839 308.417 140.643 314.228 135.318C319.323 130.649 331.543 133 338 133L397 133C403.324 133 414.533 130.864 419.941 134.603C426.454 139.107 424 151.122 424 158L440.333 109L445.212 90L430 73L414 59.2407L403 63.7531L376 77.7531L295 119.139L265 135z"/>
<path style="fill:#f8b24f; stroke:none;" d="M99 59L100 60L99 59z"/>
<path style="fill:#6f8793; stroke:none;" d="M411 59L412 60L411 59M101 60L102 61L101 60M409 60L410 61L409 60M103 61L104 62L103 61M407 61L408 62L407 61M105 62L106 63L105 62M405 62L406 63L405 62z"/>
<path style="fill:#f8b24f; stroke:none;" d="M106 63L107 64L106 63z"/>
<path style="fill:#6f8793; stroke:none;" d="M403 63L404 64L403 63M108 64L109 65L108 64M401 64L402 65L401 64M110 65L111 66L110 65M399 65L400 66L399 65M112 66L113 67L112 66M397 66L398 67L397 66M114 67L115 68L114 67M395 67L396 68L395 67z"/>
<path style="fill:#f8b24f; stroke:none;" d="M115 68L116 69L115 68z"/>
<path style="fill:#6f8793; stroke:none;" d="M393 68L394 69L393 68M117 69L118 70L117 69M391 69L392 70L391 69M119 70L120 71L119 70M389.667 70.3333L390.333 70.6667L389.667 70.3333M121 71L122 72L121 71M388 71L389 72L388 71z"/>
<path style="fill:#f8b24f; stroke:none;" d="M122 72L123 73L122 72z"/>
<path style="fill:#6f8793; stroke:none;" d="M386 72L387 73L386 72z"/>
<path style="fill:#f8b24f; stroke:none;" d="M124 73L125 74L124 73z"/>
<path style="fill:#6f8793; stroke:none;" d="M384 73L385 74L384 73M126 74L127 75L126 74M382 74L383 75L382 74M128 75L129 76L128 75M380 75L381 76L380 75z"/>
<path style="fill:#f8b24f; stroke:none;" d="M129 76L130 77L129 76z"/>
<path style="fill:#6f8793; stroke:none;" d="M378 76L379 77L378 76z"/>
<path style="fill:#f8b24f; stroke:none;" d="M131 77L132 78L131 77z"/>
<path style="fill:#6f8793; stroke:none;" d="M376 77L377 78L376 77M133 78L134 79L133 78M374 78L375 79L374 78M135 79L136 80L135 79M372 79L373 80L372 79M137 80L138 81L137 80M370 80L371 81L370 80z"/>
<path style="fill:#f8b24f; stroke:none;" d="M138 81L139 82L138 81z"/>
<path style="fill:#6f8793; stroke:none;" d="M368 81L369 82L368 81M140 82L141 83L140 82M366 82L367 83L366 82M142 83L143 84L142 83M364 83L365 84L364 83M144 84L145 85L144 84M362 84L363 85L362 84z"/>
<path style="fill:#f8b24f; stroke:none;" d="M145 85L146 86L145 85z"/>
<path style="fill:#6f8793; stroke:none;" d="M360 85L361 86L360 85z"/>
<path style="fill:#f8b24f; stroke:none;" d="M147 86L148 87L147 86z"/>
<path style="fill:#6f8793; stroke:none;" d="M358 86L359 87L358 86M149 87L150 88L149 87M356 87L357 88L356 87M151 88L152 89L151 88M354 88L355 89L354 88z"/>
<path style="fill:#f8b24f; stroke:none;" d="M65 89L66 90L65 89z"/>
<path style="fill:#6f8793; stroke:none;" d="M352 89L353 90L352 89M65 90L66 91L65 90z"/>
<path style="fill:#f8b24f; stroke:none;" d="M154 90L155 91L154 90z"/>
<path style="fill:#6f8793; stroke:none;" d="M350 90L351 91L350 90M446 90L447 91L446 90M156 91L157 92L156 91M348 91L349 92L348 91z"/>
<path style="fill:#f8b24f; stroke:none;" d="M66 92L67 93L66 92z"/>
<path style="fill:#6f8793; stroke:none;" d="M158 92L159 93L158 92M346 92L347 93L346 92M445.333 92.6667L445.667 93.3333L445.333 92.6667M66 93L67 94L66 93M160 93L161 94L160 93M344 93L345 94L344 93z"/>
<path style="fill:#f8b24f; stroke:none;" d="M161 94L162 95L161 94z"/>
<path style="fill:#6f8793; stroke:none;" d="M342.667 94.3333L343.333 94.6667L342.667 94.3333z"/>
<path style="fill:#f8b24f; stroke:none;" d="M163 95L164 96L163 95z"/>
<path style="fill:#6f8793; stroke:none;" d="M341 95L342 96L341 95M444.333 95.6667L444.667 96.3333L444.333 95.6667M67 96L68 97L67 96M165 96L166 97L165 96M339 96L340 97L339 96M167 97L168 98L167 97M337 97L338 98L337 97M335 98L336 99L335 98M443.333 98.6667L443.667 99.3333L443.333 98.6667M68.3333 99.6667L68.6667 100.333L68.3333 99.6667z"/>
<path style="fill:#f8b24f; stroke:none;" d="M170 99L171 100L170 99z"/>
<path style="fill:#6f8793; stroke:none;" d="M333 99L334 100L333 99M172 100L173 101L172 100M331 100L332 101L331 100M174 101L175 102L174 101M329 101L330 102L329 101z"/>
<path style="fill:#f8b24f; stroke:none;" d="M69 102L70 103L69 102z"/>
<path style="fill:#6f8793; stroke:none;" d="M176 102L177 103L176 102M327 102L328 103L327 102M442 102L443 103L442 102M69 103L70 104L69 103z"/>
<path style="fill:#f8b24f; stroke:none;" d="M177 103L178 104L177 103z"/>
<path style="fill:#6f8793; stroke:none;" d="M325 103L326 104L325 103M179 104L180 105L179 104M323 104L324 105L323 104z"/>
<path style="fill:#f8b24f; stroke:none;" d="M70 105L71 106L70 105z"/>
<path style="fill:#6f8793; stroke:none;" d="M181 105L182 106L181 105M321 105L322 106L321 105M441 105L442 106L441 105M70 106L71 107L70 106M183 106L184 107L183 106M319 106L320 107L319 106z"/>
<path style="fill:#f8b24f; stroke:none;" d="M184 107L185 108L184 107z"/>
<path style="fill:#6f8793; stroke:none;" d="M317 107L318 108L317 107z"/>
<path style="fill:#f8b24f; stroke:none;" d="M186 108L187 109L186 108z"/>
<path style="fill:#6f8793; stroke:none;" d="M315 108L316 109L315 108M440.333 108.667L440.667 109.333L440.333 108.667M71 109L72 110L71 109M188 109L189 110L188 109M313 109L314 110L313 109M190 110L191 111L190 110M311 110L312 111L311 110M192 111L193 112L192 111M309 111L310 112L309 111M439.333 111.667L439.667 112.333L439.333 111.667M72.3333 112.667L72.6667 113.333L72.3333 112.667z"/>
<path style="fill:#f8b24f; stroke:none;" d="M193 112L194 113L193 112z"/>
<path style="fill:#6f8793; stroke:none;" d="M307 112L308 113L307 112M195 113L196 114L195 113M305 113L306 114L305 113M197 114L198 115L197 114M303 114L304 115L303 114M438.333 114.667L438.667 115.333L438.333 114.667z"/>
<path style="fill:#f8b24f; stroke:none;" d="M73 115L74 116L73 115z"/>
<path style="fill:#6f8793; stroke:none;" d="M199 115L200 116L199 115M301 115L302 116L301 115M73 116L74 117L73 116z"/>
<path style="fill:#f8b24f; stroke:none;" d="M200 116L201 117L200 116z"/>
<path style="fill:#6f8793; stroke:none;" d="M299 116L300 117L299 116z"/>
<path style="fill:#f8b24f; stroke:none;" d="M202 117L203 118L202 117z"/>
<path style="fill:#6f8793; stroke:none;" d="M297 117L298 118L297 117M437.333 117.667L437.667 118.333L437.333 117.667z"/>
<path style="fill:#f8b24f; stroke:none;" d="M74 118L75 119L74 118z"/>
<path style="fill:#6f8793; stroke:none;" d="M204 118L205 119L204 118M295.667 118.333L296.333 118.667L295.667 118.333M74 119L75 120L74 119M206 119L207 120L206 119M294 119L295 120L294 119M208 120L209 121L208 120M292 120L293 121L292 120z"/>
<path style="fill:#f8b24f; stroke:none;" d="M209 121L210 122L209 121z"/>
<path style="fill:#6f8793; stroke:none;" d="M290 121L291 122L290 121M436 121L437 122L436 121M75 122L76 123L75 122M211 122L212 123L211 122M288 122L289 123L288 122M213 123L214 124L213 123M286 123L287 124L286 123M215 124L216 125L215 124M284 124L285 125L284 124M435 124L436 125L435 124M76.3333 125.667L76.6667 126.333L76.3333 125.667z"/>
<path style="fill:#f8b24f; stroke:none;" d="M216 125L217 126L216 125z"/>
<path style="fill:#6f8793; stroke:none;" d="M282 125L283 126L282 125M218 126L219 127L218 126M280 126L281 127L280 126M220 127L221 128L220 127M278 127L279 128L278 127M434.333 127.667L434.667 128.333L434.333 127.667z"/>
<path style="fill:#f8b24f; stroke:none;" d="M77 128L78 129L77 128z"/>
<path style="fill:#6f8793; stroke:none;" d="M222 128L223 129L222 128M276 128L277 129L276 128M77 129L78 130L77 129z"/>
<path style="fill:#f8b24f; stroke:none;" d="M223 129L224 130L223 129z"/>
<path style="fill:#6f8793; stroke:none;" d="M274 129L275 130L274 129z"/>
<path style="fill:#f8b24f; stroke:none;" d="M225 130L226 131L225 130z"/>
<path style="fill:#6f8793; stroke:none;" d="M272 130L273 131L272 130M433.333 130.667L433.667 131.333L433.333 130.667z"/>
<path style="fill:#f8b24f; stroke:none;" d="M78 131L79 132L78 131z"/>
<path style="fill:#6f8793; stroke:none;" d="M227 131L228 132L227 131M270 131L271 132L270 131M78 132L79 133L78 132M229 132L230 133L229 132M268 132L269 133L268 132M92.6667 133.333L93.3333 133.667L92.6667 133.333M195 133L196 134L195 133z"/>
<path style="fill:#f8b24f; stroke:none;" d="M196 133L197 134L196 133z"/>
<path style="fill:#6f8793; stroke:none;" d="M231 133L232 134L231 133M266 133L267 134L266 133M315.667 133.333L316.333 133.667L315.667 133.333M419 133L420 134L419 133M432.333 133.667L432.667 134.333L432.333 133.667z"/>
<path style="fill:#f8b24f; stroke:none;" d="M79 134L80 135L79 134z"/>
<path style="fill:#6f8793; stroke:none;" d="M197 134L198 135L197 134z"/>
<path style="fill:#f8b24f; stroke:none;" d="M232 134L233 135L232 134z"/>
<path style="fill:#6f8793; stroke:none;" d="M264 134L265 135L264 134M314 134L315 135L314 134M79 135L80 136L79 135M234 135L235 136L234 135M265 135L266 136L265 135M199 136L200 137L199 136M236 136L237 137L236 136M267 136L268 137L267 136M312 136L313 137L312 136M431.333 136.667L431.667 137.333L431.333 136.667z"/>
<path style="fill:#f8b24f; stroke:none;" d="M88 137L89 138L88 137z"/>
<path style="fill:#6f8793; stroke:none;" d="M238 137L239 138L238 137M269 137L270 138L269 137M423.333 137.667L423.667 138.333L423.333 137.667M80 138L81 139L80 138M88 138L89 139L88 138M200 138L200 175L201 175C201 164.351 204.111 147.798 200 138z"/>
<path style="fill:#f8b24f; stroke:none;" d="M239 138L240 139L239 138z"/>
<path style="fill:#6f8793; stroke:none;" d="M270 138L271 139L270 138M311.333 138.667L311.667 139.333L311.333 138.667z"/>
<path style="fill:#f8b24f; stroke:none;" d="M241 139L242 140L241 139z"/>
<path style="fill:#6f8793; stroke:none;" d="M272 139L273 140L272 139M243 140L244 141L243 140M274 140L275 141L274 140M430 140L431 141L430 140M81.3333 141.667L81.6667 142.333L81.3333 141.667M245 141L246 142L245 141M276 141L277 142L276 141M247 142L248 143L247 142M277 142L278 143L277 142z"/>
<path style="fill:#f8b24f; stroke:none;" d="M248 143L249 144L248 143z"/>
<path style="fill:#6f8793; stroke:none;" d="M279 143L280 144L279 143M429 143L430 144L429 143z"/>
<path style="fill:#f8b24f; stroke:none;" d="M82 144L83 145L82 144z"/>
<path style="fill:#6f8793; stroke:none;" d="M250 144L251 145L250 144M281 144L282 145L281 144M82 145L83 146L82 145M252 145L253 146L252 145M283 145L284 146L283 145M254 146L255 147L254 146M285 146L286 147L285 146M428.333 146.667L428.667 147.333L428.333 146.667z"/>
<path style="fill:#f8b24f; stroke:none;" d="M83 147L84 148L83 147M255 147L256 148L255 147z"/>
<path style="fill:#6f8793; stroke:none;" d="M286 147L287 148L286 147M83 148L84 149L83 148M103 148L103 305L104 305L104 195C104 181.747 108.107 160.17 103 148z"/>
<path style="fill:#dbdec7; stroke:none;" d="M104 148L104 305L162 305L162 288C154.799 290.576 148.916 293.553 141 292.907C107.912 290.205 108.279 241.611 140 236.326C148.228 234.955 154.952 238.293 162 242L162 218C155.31 221.108 148.694 224.827 141 223.532C107.454 217.882 108.134 168.23 143 166.598C149.976 166.271 155.776 169.412 162 172L162 148L104 148z"/>
<path style="fill:#6f8793; stroke:none;" d="M162 148L160 171L160 172C175.99 184.448 176.079 205.645 160 218L160 219C164.137 219 161.392 237.017 162 241C163.254 249.21 172.093 254.242 172.5 264C172.952 274.849 164.663 278.369 161.667 287C160.154 291.357 162 300.159 162 305L186 305L186.059 214L191.999 198L191.4 181.375L186.228 172.996L186 148L162 148M257 148L258 149L257 148M288 148L289 149L288 148M326 148L326 305L327 305L327 195C327 181.747 331.107 160.17 326 148z"/>
<path style="fill:#dbdec7; stroke:none;" d="M327 148L327 305C333.065 305 353.501 307.325 341.852 317.682C337.508 321.544 329.379 320 324 320L280 320L103 320L103 382C127.701 370.468 154.917 369.191 172 395L174 395C195.693 366.528 233.333 366.562 255 395L257 395C277.727 365.576 316.932 367.349 338 395L340 395C357.296 368.869 382.796 371.828 408 381L408 320C397.422 320 380.906 323.161 371.015 319.397C365.33 317.233 363.238 309.485 369.109 306.179C373.386 303.771 380.251 305 385 305L385 288C373.382 292.22 363.472 295.928 352.004 288.451C330.21 274.244 337.692 241.02 363 236.465C371.27 234.976 377.389 238.808 385 241L385 218C379.134 221.073 372.852 224.221 366 223.787C330.132 221.518 331.038 167.278 367 166.457C373.493 166.309 379.272 169.413 385 172L385 148L327 148z"/>
<path style="fill:#6f8793; stroke:none;" d="M385 148L383 171L383 172C389.968 177.354 395.226 184.951 395.787 194C396.478 205.131 385.912 211.155 385.059 221C384.571 226.63 383.325 236.729 385.312 242C386.989 246.445 391.362 249.541 393.316 254C398.628 266.121 394.031 279.009 384 287L385 305L409 305L409 148L385 148M259 149L260 150L259 149M290 149L291 150L290 149M427.333 149.667L427.667 150.333L427.333 149.667M261 150L262 151L261 150M292 150L293 151L292 150M84 151L85 152L84 151M293 151L294 152L293 151z"/>
<path style="fill:#f8b24f; stroke:none;" d="M264 152L265 153L264 152z"/>
<path style="fill:#6f8793; stroke:none;" d="M295 152L296 153L295 152M426.333 152.667L426.667 153.333L426.333 152.667M266 153L267 154L266 153M297 153L298 154L297 153M85.3333 154.667L85.6667 155.333L85.3333 154.667M268 154L269 155L268 154M299 154L300 155L299 154M270 155L271 156L270 155M301 155L302 156L301 155M425.333 155.667L425.667 156.333L425.333 155.667z"/>
<path style="fill:#f8b24f; stroke:none;" d="M271 156L272 157L271 156z"/>
<path style="fill:#6f8793; stroke:none;" d="M302 156L303 157L302 156z"/>
<path style="fill:#f8b24f; stroke:none;" d="M86 157L87 158L86 157z"/>
<path style="fill:#6f8793; stroke:none;" d="M273 157L274 158L273 157M304 157L305 158L304 157M86 158L87 159L86 158M275 158L276 159L275 158M306 158L307 159L306 158M424.333 158.667L424.667 159.333L424.333 158.667M277 159L278 160L277 159M308 159L309 160L308 159z"/>
<path style="fill:#f8b24f; stroke:none;" d="M87 160L88 161L87 160M278 160L279 161L278 160z"/>
<path style="fill:#6f8793; stroke:none;" d="M309 160L310 161L309 160M87 161L88 162L87 161M280 161L281 162L280 161M282 162L283 163L282 162M284 163L285 164L284 163M286 164L287 165L286 164z"/>
<path style="fill:#f8b24f; stroke:none;" d="M287 165L288 166L287 165z"/>
<path style="fill:#6f8793; stroke:none;" d="M142 166L142 167L146 167L142 166M289 166L290 167L289 166M365 166L365 167L370 167L365 166M136.667 167.333L137.333 167.667L136.667 167.333z"/>
<path style="fill:#0d0d0e; stroke:none;" d="M138 167.518C101.57 175.302 115.013 230.289 151 222.481C186.682 214.74 173.392 159.956 138 167.518z"/>
<path style="fill:#6f8793; stroke:none;" d="M150.667 167.333L151.333 167.667L150.667 167.333M291 167L292 168L291 167M359.667 167.333L360.333 167.667L359.667 167.333z"/>
<path style="fill:#0d0d0e; stroke:none;" d="M361 167.518C324.762 175.261 338.055 230.163 374 222.482C409.894 214.813 396.576 159.916 361 167.518z"/>
<path style="fill:#6f8793; stroke:none;" d="M373.667 167.333L374.333 167.667L373.667 167.333M133.667 168.333L134.333 168.667L133.667 168.333M154 168L155 169L154 168M293 168L294 169L293 168M356.667 168.333L357.333 168.667L356.667 168.333M377 168L378 169L377 168M131 169L132 170L131 169M156 169L157 170L156 169z"/>
<path style="fill:#f8b24f; stroke:none;" d="M294 169L295 170L294 169z"/>
<path style="fill:#6f8793; stroke:none;" d="M354 169L355 170L354 169M379.667 169.333L380.333 169.667L379.667 169.333M129 170L130 171L129 170M158 170L159 171L158 170z"/>
<path style="fill:#f8b24f; stroke:none;" d="M296 170L297 171L296 170z"/>
<path style="fill:#6f8793; stroke:none;" d="M352 170L353 171L352 170M381 170L382 171L381 170M128 171L129 172L128 171M298 171L299 172L298 171M351 171L352 172L351 171M126 172L127 173L126 172M300 172L301 173L300 172M125 173L126 174L125 173M348 173L349 174L348 173M124 174L125 175L124 174z"/>
<path style="fill:#f8b24f; stroke:none;" d="M303 174L304 175L303 174z"/>
<path style="fill:#6f8793; stroke:none;" d="M347 174L348 175L347 174M123 175L124 176L123 175z"/>
<path style="fill:#f8b24f; stroke:none;" d="M200 175L201 176L200 175z"/>
<path style="fill:#6f8793; stroke:none;" d="M305 175L306 176L305 175M346 175L347 176L346 175M122 176L123 177L122 176M307 176L308 177L307 176M345 176L346 177L345 176M121 177L122 178L121 177M309 177L310 178L309 177M344 177L345 178L344 177z"/>
<path style="fill:#f8b24f; stroke:none;" d="M198 178L199 179L198 178M310 178L311 179L310 178z"/>
<path style="fill:#6f8793; stroke:none;" d="M196 179L197 180L196 179M311 179L311 305L312 305L312 217C312 206.104 315.208 189.028 311 179M343 179L344 180L343 179M119 180L120 181L119 180M342 180L343 181L342 180M118 182L119 183L118 182M141 182.576C124.954 186.988 131.907 212.34 147.999 207.346C163.199 202.63 156.364 178.352 141 182.576M341 182L342 183L341 182M364 182.657C348.379 187.37 355.258 212.23 370.999 207.346C386.36 202.581 379.526 177.972 364 182.657M117 184L118 185L117 184M340.333 184.667L340.667 185.333L340.333 184.667M116.333 187.667L116.667 188.333L116.333 187.667M339 187L339 190L340 190L339 187M115 191L115 199L116 199L115 191M338 193L338 197L339 197L338 193M116 201L116 204L117 204L116 201M339.333 201.667L339.667 202.333L339.333 201.667M340.333 204.667L340.667 205.333L340.333 204.667M117 205L118 206L117 205M194.667 205.333L195.333 205.667L194.667 205.333M197 206L198 207L197 206M118 207L119 208L118 207M341 207L342 208L341 207M199 208L200 209L199 208M119 209L120 210L119 209M342 209L343 210L342 209M200 210L200 305L201 305L201 239L200 210M343 210L344 211L343 210M120 211L121 212L120 211M121 212L122 213L121 212M344 212L345 213L344 212M122 213L123 214L122 213M345 213L346 214L345 213M123 214L124 215L123 214M346 214L347 215L346 214M124 215L125 216L124 215M347 215L348 216L347 215M125 216L126 217L125 216M348 216L349 217L348 216M126 217L127 218L126 217M349 217L350 218L349 217M127 218L128 219L127 218M383 218L384 219L383 218M129 219L130 220L129 219M158 219L159 220L158 219M352 219L353 220L352 219M382 219L383 220L382 219M131 220L132 221L131 220M157 220L158 221L157 220M354 220L355 221L354 220M380 220L381 221L380 220M133 221L134 222L133 221M154.667 221.333L155.333 221.667L154.667 221.333M356 221L357 222L356 221M377.667 221.333L378.333 221.667L377.667 221.333M136.667 222.333L137.333 222.667L136.667 222.333M151.667 222.333L152.333 222.667L151.667 222.333M359.667 222.333L360.333 222.667L359.667 222.333M374.667 222.333L375.333 222.667L374.667 222.333M140 223L140 224L148 224L140 223M363 223L363 224L371 224L363 223M138 236L138 237L150 237L138 236M362 236L362 237L373 237L362 236M135.667 237.333L136.333 237.667L135.667 237.333z"/>
<path style="fill:#0d0d0e; stroke:none;" d="M137 237.468C102.376 244.013 114.458 298.601 149 292.384C186.576 285.621 174.377 230.402 137 237.468z"/>
<path style="fill:#6f8793; stroke:none;" d="M152.667 237.333L153.333 237.667L152.667 237.333M358.667 237.333L359.333 237.667L358.667 237.333z"/>
<path style="fill:#0d0d0e; stroke:none;" d="M360 237.519C324.398 245.242 338.839 299.724 374 291.985C410.478 283.956 396.166 229.672 360 237.519z"/>
<path style="fill:#6f8793; stroke:none;" d="M375.667 237.333L376.333 237.667L375.667 237.333M132 238L133 239L132 238M155 238L156 239L155 238M355.667 238.333L356.333 238.667L355.667 238.333M378 238L379 239L378 238M130 239L131 240L130 239M157 239L158 240L157 239M353 239L354 240L353 239M380 239L381 240L380 239M128 240L129 241L128 240M159 240L160 241L159 240M352 240L353 241L352 240M382 240L383 241L382 240M127 241L128 242L127 241M160 241L161 242L160 241M350 241L351 242L350 241M126 242L127 243L126 242M349 242L350 243L349 242M348 243L349 244L348 243M346 245L347 246L346 245M345 246L346 247L345 246M121 247L122 248L121 247M344 247L345 248L344 247M120 248L121 249L120 248M343 248L344 249L343 248M119 250L120 251L119 250M342 250L343 251L342 250M118.333 251.667L118.667 252.333L118.333 251.667M140.001 252.653C125.111 257.322 132.043 281.173 147 277.157C163.558 272.71 156.423 247.503 140.001 252.653M341 252L342 253L341 252M363.004 252.653C348.246 257.338 355.818 281.838 370.996 276.877C386.804 271.709 379.047 247.56 363.004 252.653M117.333 253.667L117.667 254.333L117.333 253.667M340 254L341 255L340 254M116.333 256.667L116.667 257.333L116.333 256.667M339.333 257.667L339.667 258.333L339.333 257.667M115 261L115 268L116 268L115 261M338 263L338 266L339 266L338 263M339.333 270.667L339.667 271.333L339.333 270.667M116.333 271.667L116.667 272.333L116.333 271.667M117.333 274.667L117.667 275.333L117.333 274.667M340 274L341 275L340 274M341 276L342 277L341 276M118 277L119 278L118 277M342 278L343 279L342 278M119 279L120 280L119 279M120 280L121 281L120 280M343 280L344 281L343 280M344 281L345 282L344 281M121 282L122 283L121 282M122 283L123 284L122 283M123 284L124 285L123 284M346 284L347 285L346 284M124 285L125 286L124 285M347 285L348 286L347 285M125 286L126 287L125 286M350 287L351 288L350 287M128 288L129 289L128 288M159 288L160 289L159 288M351 288L352 289L351 288M130 289L131 290L130 289M158 289L159 290L158 289M353 289L354 290L353 289M381 289L382 290L381 289M132 290L133 291L132 290M156 290L157 291L156 290M355 290L356 291L355 290M379 290L380 291L379 290M134 291L135 292L134 291M153 291L154 292L153 291M357.667 291.333L358.333 291.667L357.667 291.333M376.667 291.333L377.333 291.667L376.667 291.333M137 292L137 293L140 293L137 292M148 292L148 293L151 293L148 292M360 292L360 293L363 293L360 292M371 292L371 293L374 293L371 292M340 305L341 306L340 305M369 305L370 306L369 305M342 306L343 307L342 306M367 306L368 307L367 306M343 307L344 308L343 307M366 307L367 308L366 307M344 309L345 310L344 309M365.333 309.667L365.667 310.333L365.333 309.667M344.333 314.667L344.667 315.333L344.333 314.667M365 314L366 315L365 314M340 319L341 320L340 319M369 319L370 320L369 319M408 320C408 339.531 411.525 362.995 407 382C410.531 378.914 409 371.411 409 367C409 353.747 413.107 332.17 408 320M124 373L124 374L128 374L124 373M136 373L136 374L139 374L136 373M207 373L207 374L211 374L207 373M219 373L219 374L222 374L219 373M290 373L290 374L293 374L290 373M301 373L301 374L305 374L301 373M373 373L373 374L376 374L373 373M384 373L384 374L388 374L384 373M119.667 374.333L120.333 374.667L119.667 374.333M142.667 374.333L143.333 374.667L142.667 374.333M202.667 374.333L203.333 374.667L202.667 374.333M225.667 374.333L226.333 374.667L225.667 374.333M285.667 374.333L286.333 374.667L285.667 374.333M308.667 374.333L309.333 374.667L308.667 374.333M368.667 374.333L369.333 374.667L368.667 374.333M391.667 374.333L392.333 374.667L391.667 374.333M116 375L117 376L116 375M146 375L147 376L146 375M199 375L200 376L199 375M229 375L230 376L229 375M282 375L283 376L282 375M312 375L313 376L312 375M365 375L366 376L365 375M395 375L396 376L395 375M113.667 376.333L114.333 376.667L113.667 376.333M149 376L150 377L149 376M196 376L197 377L196 376M232 376L233 377L232 376M279 376L280 377L279 376M315 376L316 377L315 376M362 376L363 377L362 376M398 376L399 377L398 376M111 377L112 378L111 377M151 377L152 378L151 377M194 377L195 378L194 377M234 377L235 378L234 377M277 377L278 378L277 377M317 377L318 378L317 377M360 377L361 378L360 377M400 377L401 378L400 377M109 378L110 379L109 378M192 378L193 379L192 378M236 378L237 379L236 378M275 378L276 379L275 378M319 378L320 379L319 378M402 378L403 379L402 378M107 379L108 380L107 379M155 379L156 380L155 379M190 379L191 380L190 379M238 379L239 380L238 379M273 379L274 380L273 379M321 379L322 380L321 379M356 379L357 380L356 379M404 379L405 380L404 379M157 380L158 381L157 380M188 380L189 381L188 380M240 380L241 381L240 380M271 380L272 381L271 380M323 380L324 381L323 380M354 380L355 381L354 380M104 381L105 382L104 381M187 381L188 382L187 381M324 381L325 382L324 381M160 382L161 383L160 382M243 382L244 383L243 382M268 382L269 383L268 382M351 382L352 383L351 382M184 383L185 384L184 383M244 383L245 384L244 383M267 383L268 384L267 383M327 383L328 384L327 383M183 384L184 385L183 384M328 384L329 385L328 384M165 386L166 387L165 386M346 386L347 387L346 386M166 387L167 388L166 387M345 387L346 388L345 387M43 454C46.0198 433.838 63.5536 420.338 82 415C80.0364 408.228 77.2525 402.056 71.9599 397.185C67.5378 393.116 61.8929 390.235 56 389.096C39.0666 385.823 21.9545 395.198 16.7739 412C11.2269 429.991 22.8155 452.953 43 454M167 388L168 389L167 388z"/>
<path style="fill:#bb6d59; stroke:none;" d="M209 388L209 389L214 389L209 388z"/>
<path style="fill:#f8b24f; stroke:none;" d="M182 415C195.375 418.796 205.43 424.752 214 436C222.469 431.712 227.923 423.041 237 418.782C239.528 417.595 245.263 416.712 246.211 413.697C249.086 404.555 233.877 393.256 227 390.711C208.462 383.849 185.075 394.483 182 415z"/>
<path style="fill:#bb6d59; stroke:none;" d="M216 388L216 389L220 389L216 388z"/>
<path style="fill:#6f8793; stroke:none;" d="M344 388L345 389L344 388M347 415C360.668 417.829 372.262 425.303 380 437C387.247 431.156 392.404 423.674 401 419.377C403.816 417.968 411.197 417.116 412.187 413.697C415.64 401.766 394.857 390.49 386 388.924C367.114 385.584 352.615 397.773 347 415z"/>
<path style="fill:#bb6d59; stroke:none;" d="M430 415C449.671 420.584 465.233 433.405 470 454C490.571 452.193 501.394 428.151 494.895 410C489.064 393.712 470.305 384.776 454 389.429C448.305 391.054 443.247 393.834 439.043 398.043C434.383 402.709 431.511 408.639 430 415z"/>
<path style="fill:#6f8793; stroke:none;" d="M99 415C111.977 417.686 123.871 424.604 131 436L133 436C141.326 425.072 151.156 419.179 164 415C158.621 379.115 106.756 382.346 99 415z"/>
<path style="fill:#bb6d59; stroke:none;" d="M205 389L206 390L205 389M223.667 389.333L224.333 389.667L223.667 389.333z"/>
<path style="fill:#6f8793; stroke:none;" d="M265 415C278.329 417.758 288.785 425.218 297 436L299 436C306.412 424.825 317.369 418.586 330 415C322.243 382.342 270.377 379.129 265 415z"/>
<path style="fill:#bb6d59; stroke:none;" d="M202 390L203 391L202 390M226 390L227 391L226 390z"/>
<path style="fill:#6f8793; stroke:none;" d="M176 391L177 392L176 391z"/>
<path style="fill:#bb6d59; stroke:none;" d="M200 391L201 392L200 391M229 391L230 392L229 391z"/>
<path style="fill:#6f8793; stroke:none;" d="M335 391L336 392L335 391M170 392L171 393L170 392M175 392L176 393L175 392z"/>
<path style="fill:#bb6d59; stroke:none;" d="M198 392L199 393L198 392z"/>
<path style="fill:#6f8793; stroke:none;" d="M253 392L254 393L253 392M258 392L259 393L258 392M336 392L337 393L336 392M341 392L342 393L341 392M171 393L172 394L171 393z"/>
<path style="fill:#bb6d59; stroke:none;" d="M196 393L197 394L196 393M232 393L233 394L232 393z"/>
<path style="fill:#6f8793; stroke:none;" d="M257 393L258 394L257 393M340 393L341 394L340 393M173 395L174 396L173 395z"/>
<path style="fill:#bb6d59; stroke:none;" d="M193 395L194 396L193 395M235 395L236 396L235 395z"/>
<path style="fill:#6f8793; stroke:none;" d="M255.667 395.333L256.333 395.667L255.667 395.333M338 395L339 396L338 395z"/>
<path style="fill:#bb6d59; stroke:none;" d="M192 396L193 397L192 396M236 396L237 397L236 396M191 397L192 398L191 397M190 398L191 399L190 398M189 399L190 400L189 399M239 399L240 400L239 399M188 400L189 401L188 400M240 400L241 401L240 400M241 401L242 402L241 401M186 403L187 404L186 403M185 404L186 405L185 404M243 404L244 405L243 404M184 406L185 407L184 406M244 406L245 407L244 406M183 408L184 409L183 408M245 408L246 409L245 408M246.333 410.667L246.667 411.333L246.333 410.667M182 411L183 412L182 411M181 414L182 415L181 414M247 414L248 415L247 414M182.667 415.333L183.333 415.667L182.667 415.333M246 415L247 416L246 415M187 416L188 417L187 416M242 416L243 417L242 416M190 417L191 418L190 417M239 417L240 418L239 417M193 418L194 419L193 418M237 418L238 419L237 418M195 419L196 420L195 419M197 420L198 421L197 420M198 421L199 422L198 421M231 421L232 422L231 421M200 422L201 423L200 422M229 422L230 423L229 422M228 423L229 424L228 423M203 424L204 425L203 424M204 425L205 426L204 425M225 425L226 426L225 425M205 426L206 427L205 426M224 426L225 427L224 426M223 427L224 428L223 427M222 428L223 429L222 428M89 429L89 430L93 430L89 429M420 429L420 430L424 430L420 429M82.6667 430.333L83.3333 430.667L82.6667 430.333z"/>
<path style="fill:#f8b24f; stroke:none;" d="M58 456C72.1787 461.437 79.4323 468.673 91 478C95.9614 470.5 102.795 464.165 111 460.323C114.089 458.877 121.994 458 122.469 453.856C123.715 442.988 107.698 433.013 99 430.9C80.7082 426.456 62.3315 437.764 58 456z"/>
<path style="fill:#bb6d59; stroke:none;" d="M97.6667 430.333L98.3333 430.667L97.6667 430.333M141 457C153.733 458.88 165.248 467.205 172 478L174 478C183.058 466.111 193.263 460.69 207 456C203.162 444.66 196.692 435.672 185 431.548C166.628 425.068 142.801 436.5 141 457M220 430L221 431L220 430z"/>
<path style="fill:#6f8793; stroke:none;" d="M224 457C236.576 458.26 248.475 467.569 255 478L257 478C261.482 470.246 268.902 464.115 277 460.323C280.066 458.888 287.99 458.01 288.353 453.856C289.202 444.171 275.861 434.354 268 431.75C249.58 425.649 225.836 436.106 224 457z"/>
<path style="fill:#bb6d59; stroke:none;" d="M306 456C319.229 461.073 329.154 466.39 338 478L340 478C345.016 469.98 352.379 463.831 361 459.9C363.951 458.555 371 457.892 371.353 453.856C372.385 442.082 354.869 431.247 345 430.174C326.086 428.117 311.811 438.177 306 456M414.667 430.333L415.333 430.667L414.667 430.333z"/>
<path style="fill:#f8b24f; stroke:none;" d="M390 457C402.849 458.898 413.949 467.342 421 478C432.778 468.503 439.868 460.296 455 456C447.353 423.805 391.918 420.023 390 457z"/>
<path style="fill:#bb6d59; stroke:none;" d="M429.667 430.333L430.333 430.667L429.667 430.333M79.6667 431.333L80.3333 431.667L79.6667 431.333M101 431L102 432L101 431M210 431L211 432L210 431M219 431L220 432L219 431M411 431L412 432L411 431M432.667 431.333L433.333 431.667L432.667 431.333M77 432L78 433L77 432M104 432L105 433L104 432M211 432L212 433L211 432M218 432L219 433L218 432M408 432L409 433L408 432M435 432L436 433L435 432M75 433L76 434L75 433M106 433L107 434L106 433M212 433L213 434L212 433M406 433L407 434L406 433M437 433L438 434L437 433M73 434L74 435L73 434M108 434L109 435L108 434M404 434L405 435L404 434M439 434L440 435L439 434M71 435L72 436L71 435M109 435L110 436L109 435M216 435L217 436L216 435M403 435L404 436L403 435M70 436L71 437L70 436M214.667 436.333L215.333 436.667L214.667 436.333M401 436L402 437L401 436M442 436L443 437L442 436M69 437L70 438L69 437M112 437L113 438L112 437M400 437L401 438L400 437M443 437L444 438L443 437M113 438L114 439L113 438M399 438L400 439L399 438M114 439L115 440L114 439M398 439L399 440L398 439M115 440L116 441L115 440M397 440L398 441L397 440M116 441L117 442L116 441M396 441L397 442L396 441M64 442L65 443L64 442M117 442L118 443L117 442M395 442L396 443L395 442M448 442L449 443L448 442M63 443L64 444L63 443M449 443L450 444L449 443M119 445L120 446L119 445M393 445L394 446L393 445M61 446L62 447L61 446M451 446L452 447L451 446M120 447L121 448L120 447M392 447L393 448L392 447M60 448L61 449L60 448M452 448L453 449L452 448M121 449L122 450L121 449M391 449L392 450L391 449M59 450L60 451L59 450M453 450L454 451L453 450M122 451L123 452L122 451M390 451L391 452L390 451M58 453L59 454L58 453M454 453L455 454L454 453M123 454L122 457L123 454M389 454L389 457L390 457L389 454M58 456L59 457L58 456M453.667 456.333L454.333 456.667L453.667 456.333M61.6667 457.333L62.3333 457.667L61.6667 457.333M118 457L119 458L118 457M393 457L394 458L393 457M449 457L450 458L449 457M65 458L66 459L65 458M115 458L116 459L115 458M396 458L397 459L396 458M446 458L447 459L446 458M67 459L68 460L67 459M112 459L113 460L112 459M399 459L400 460L399 459M444 459L445 460L444 459M70 460L71 461L70 460M110 460L111 461L110 460M401 460L402 461L401 460M441 460L442 461L441 460M72 461L73 462L72 461M108 461L109 462L108 461M403 461L404 462L403 461M439 461L440 462L439 461M106 462L107 463L106 462M405 462L406 463L405 462M438 462L439 463L438 462M75 463L76 464L75 463M105 463L106 464L105 463M406 463L407 464L406 463M436 463L437 464L436 463M103 464L104 465L103 464M408 464L409 465L408 464M78 465L79 466L78 465M102 465L103 466L102 465M409 465L410 466L409 465M433 465L434 466L433 465M79 466L80 467L79 466M432 466L433 467L432 466M98 468L99 469L98 468M413 468L414 469L413 468M97 469L98 470L97 469M414 469L415 470L414 469M96 470L97 471L96 470M415 470L416 471L415 470M95 471L96 472L95 471M416 471L417 472L416 471M15 506L83 506C82.0801 461.432 15.3691 461.411 15 506z"/>
<path style="fill:#6f8793; stroke:none;" d="M98 506L165 506C164.995 461.523 98.3675 461.608 98 506M181 506L248 506C247.878 461.855 181.908 462.012 181 506M264 506L331 506C330.091 461.972 264.121 461.965 264 506M347 506L414 506C413.633 461.616 347.005 461.572 347 506z"/>
<path style="fill:#bb6d59; stroke:none;" d="M429 506L497 506C496.631 461.398 429.919 461.472 429 506M86 473L87 474L86 473M425 473L426 474L425 473M87 474L88 475L87 474M424 474L425 475L424 474M92 475L93 476L92 475M419 475L420 476L419 475M91 476L92 477L91 476M420 476L421 477L420 476M89 477L90 478L89 477M422 477L423 478L422 477z"/>
</svg>
