<?xml version="1.0" standalone="no"?>
<!DOCTYPE svg PUBLIC "-//W3C//DTD SVG 20010904//EN"
 "http://www.w3.org/TR/2001/REC-SVG-20010904/DTD/svg10.dtd">
<svg version="1.0" xmlns="http://www.w3.org/2000/svg"
 width="512.000000pt" height="512.000000pt" viewBox="0 0 512.000000 512.000000"
 preserveAspectRatio="xMidYMid meet">

<g transform="translate(0.000000,512.000000) scale(0.100000,-0.100000)"
fill="#000000" stroke="none">
<path d="M305 5028 c-33 -12 -90 -52 -118 -83 -39 -44 -61 -108 -61 -180 0
-107 23 -140 231 -347 l178 -177 198 192 198 192 -188 187 c-212 211 -238 228
-343 227 -36 0 -78 -5 -95 -11z"/>
<path d="M4610 5023 c-36 -13 -83 -53 -235 -204 l-189 -187 188 -196 c104
-108 194 -196 201 -196 6 0 93 82 192 183 157 160 183 190 202 240 26 72 27
131 1 199 -53 141 -212 212 -360 161z"/>
<path d="M1340 3334 c-92 -40 -140 -137 -118 -239 21 -101 139 -179 238 -156
115 26 177 111 168 227 -11 137 -160 223 -288 168z"/>
<path d="M3589 3327 c-114 -61 -145 -219 -62 -318 105 -124 312 -81 358 75 52
176 -134 328 -296 243z"/>
<path d="M1366 2640 c-168 -51 -203 -272 -58 -374 89 -63 224 -37 288 55 39
56 45 147 15 206 -46 91 -153 140 -245 113z"/>
<path d="M3621 2635 c-125 -40 -182 -203 -108 -313 38 -58 119 -96 192 -90
108 9 188 97 188 207 0 62 -16 102 -59 145 -57 56 -137 76 -213 51z"/>
<path d="M1235 1258 c-160 -22 -318 -172 -341 -325 -3 -24 -9 -43 -13 -43 -4
0 -12 26 -19 59 -23 110 -116 223 -232 278 -80 39 -216 45 -303 13 -151 -55
-248 -170 -277 -328 -22 -123 23 -257 119 -353 67 -66 148 -108 225 -116 31
-3 56 -9 56 -13 0 -4 -24 -10 -53 -13 -168 -17 -329 -184 -344 -357 l-6 -60
2513 0 2513 0 -6 60 c-11 128 -110 267 -229 323 -109 52 -251 52 -358 0 -113
-55 -210 -184 -228 -305 l-8 -53 -13 57 c-38 177 -172 308 -344 339 l-68 12 7
41 c32 196 165 333 356 367 125 23 252 -17 351 -109 64 -61 103 -129 123 -221
l17 -73 50 5 c124 15 252 112 310 235 30 62 32 75 32 172 0 99 -2 109 -33 173
-43 86 -113 156 -199 199 -64 31 -74 33 -173 33 -100 0 -109 -2 -175 -34 -125
-62 -217 -185 -232 -311 -7 -57 -16 -50 -27 19 -17 113 -117 241 -231 297 -56
27 -68 29 -175 29 -105 0 -120 -2 -170 -27 -117 -57 -209 -169 -232 -279 -7
-33 -15 -59 -19 -59 -3 0 -9 19 -12 41 -9 67 -61 161 -122 218 -245 231 -641
93 -697 -243 l-11 -63 -54 -6 c-170 -18 -332 -181 -350 -353 l-7 -59 -13 64
c-18 89 -52 157 -107 218 -59 65 -162 119 -245 129 l-58 6 -11 64 c-39 235
-242 384 -477 352z m-297 -418 c86 -12 182 -59 240 -117 58 -58 108 -156 120
-234 l8 -56 -68 -11 c-176 -31 -301 -151 -347 -334 l-18 -73 -5 56 c-18 167
-178 329 -343 346 -31 3 -58 9 -60 13 -9 15 16 116 44 176 53 114 150 194 270
226 78 20 79 20 159 8z"/>
</g>
</svg>
