<?xml version="1.0" standalone="yes"?>
<svg xmlns="http://www.w3.org/2000/svg" width="512" height="512">
<path style="fill:#020202; stroke:none;" d="M0 0L0 512L512 512L512 0L0 0z"/>
<path style="fill:#3eaaf3; stroke:none;" d="M250 16L251 17L250 16z"/>
<path style="fill:#8638d0; stroke:none;" d="M251 16L252 17L251 16M260 16L261 17L260 16z"/>
<path style="fill:#3eaaf3; stroke:none;" d="M261 16L262 17L261 16z"/>
<path style="fill:#8638d0; stroke:none;" d="M245.667 17.3333L246.333 17.6667L245.667 17.3333M265.667 17.3333L266.333 17.6667L265.667 17.3333M240.667 18.3333L241.333 18.6667L240.667 18.3333M270.667 18.3333L271.333 18.6667L270.667 18.3333M236.667 19.3333L237.333 19.6667L236.667 19.3333M275 19L276 20L275 19z"/>
<path style="fill:#3eaaf3; stroke:none;" d="M276 19L277 20L276 19z"/>
<path style="fill:#8638d0; stroke:none;" d="M231.667 20.3333L232.333 20.6667L231.667 20.3333M280 20L281 21L280 20M226.667 21.3333L227.333 21.6667L226.667 21.3333M284 21L285 22L284 21z"/>
<path style="fill:#3eaaf3; stroke:none;" d="M285 21L286 22L285 21z"/>
<path style="fill:#8638d0; stroke:none;" d="M221.667 22.3333L222.333 22.6667L221.667 22.3333M289 22L290 23L289 22z"/>
<path style="fill:#3eaaf3; stroke:none;" d="M290 22L291 23L290 22z"/>
<path style="fill:#8638d0; stroke:none;" d="M216.667 23.3333L217.333 23.6667L216.667 23.3333M293 23L294 24L293 23z"/>
<path style="fill:#3eaaf3; stroke:none;" d="M294.667 23.3333L295.333 23.6667L294.667 23.3333z"/>
<path style="fill:#8638d0; stroke:none;" d="M211.667 24.3333L212.333 24.6667L211.667 24.3333M298 24L299 25L298 24z"/>
<path style="fill:#3eaaf3; stroke:none;" d="M299.667 24.3333L300.333 24.6667L299.667 24.3333z"/>
<path style="fill:#8638d0; stroke:none;" d="M207.667 25.3333L208.333 25.6667L207.667 25.3333M303 25L304 26L303 25z"/>
<path style="fill:#3eaaf3; stroke:none;" d="M304.667 25.3333L305.333 25.6667L304.667 25.3333z"/>
<path style="fill:#8638d0; stroke:none;" d="M202.667 26.3333L203.333 26.6667L202.667 26.3333M308 26L309 27L308 26z"/>
<path style="fill:#3eaaf3; stroke:none;" d="M309 26L310 27L309 26z"/>
<path style="fill:#8638d0; stroke:none;" d="M197.667 27.3333L198.333 27.6667L197.667 27.3333M313 27L314 28L313 27z"/>
<path style="fill:#3eaaf3; stroke:none;" d="M314 27L315 28L314 27z"/>
<path style="fill:#8638d0; stroke:none;" d="M192.667 28.3333L193.333 28.6667L192.667 28.3333M318 28L319 29L318 28z"/>
<path style="fill:#3eaaf3; stroke:none;" d="M319 28L320 29L319 28z"/>
<path style="fill:#8638d0; stroke:none;" d="M187.667 29.3333L188.333 29.6667L187.667 29.3333M322 29L323 30L322 29z"/>
<path style="fill:#3eaaf3; stroke:none;" d="M323.667 29.3333L324.333 29.6667L323.667 29.3333z"/>
<path style="fill:#8638d0; stroke:none;" d="M182.667 30.3333L183.333 30.6667L182.667 30.3333M327 30L328 31L327 30z"/>
<path style="fill:#3eaaf3; stroke:none;" d="M328.667 30.3333L329.333 30.6667L328.667 30.3333z"/>
<path style="fill:#8638d0; stroke:none;" d="M178.667 31.3333L179.333 31.6667L178.667 31.3333M332 31L333 32L332 31z"/>
<path style="fill:#3eaaf3; stroke:none;" d="M333.667 31.3333L334.333 31.6667L333.667 31.3333z"/>
<path style="fill:#8638d0; stroke:none;" d="M173.667 32.3333L174.333 32.6667L173.667 32.3333M254 32L255 33L254 32z"/>
<path style="fill:#3eaaf3; stroke:none;" d="M32 78L32 96L480 96L478.397 78.9383L450 72.2107L376 57L293 39.8002L255 32.6096L200 43.7893L92 66.0031L32 78z"/>
<path style="fill:#8638d0; stroke:none;" d="M257 32L258 33L257 32M336 32L337 33L336 32z"/>
<path style="fill:#3eaaf3; stroke:none;" d="M337.667 32.3333L338.333 32.6667L337.667 32.3333z"/>
<path style="fill:#8638d0; stroke:none;" d="M168.667 33.3333L169.333 33.6667L168.667 33.3333M249 33L250 34L249 33M262 33L263 34L262 33M342 33L343 34L342 33z"/>
<path style="fill:#3eaaf3; stroke:none;" d="M343 33L344 34L343 33z"/>
<path style="fill:#8638d0; stroke:none;" d="M163.667 34.3333L164.333 34.6667L163.667 34.3333M244 34L245 35L244 34M267 34L268 35L267 34M347 34L348 35L347 34z"/>
<path style="fill:#3eaaf3; stroke:none;" d="M348 34L349 35L348 34z"/>
<path style="fill:#8638d0; stroke:none;" d="M158.667 35.3333L159.333 35.6667L158.667 35.3333M351 35L352 36L351 35z"/>
<path style="fill:#3eaaf3; stroke:none;" d="M352.667 35.3333L353.333 35.6667L352.667 35.3333z"/>
<path style="fill:#8638d0; stroke:none;" d="M153.667 36.3333L154.333 36.6667L153.667 36.3333M356.667 36.3333L357.333 36.6667L356.667 36.3333z"/>
<path style="fill:#3eaaf3; stroke:none;" d="M358 36L359 37L358 36z"/>
<path style="fill:#8638d0; stroke:none;" d="M149.667 37.3333L150.333 37.6667L149.667 37.3333M230 37L231 38L230 37M281 37L282 38L281 37M361 37L362 38L361 37z"/>
<path style="fill:#3eaaf3; stroke:none;" d="M362.667 37.3333L363.333 37.6667L362.667 37.3333z"/>
<path style="fill:#8638d0; stroke:none;" d="M144.667 38.3333L145.333 38.6667L144.667 38.3333M225 38L226 39L225 38M286 38L287 39L286 38M366 38L367 39L366 38z"/>
<path style="fill:#3eaaf3; stroke:none;" d="M367 38L368 39L367 38z"/>
<path style="fill:#8638d0; stroke:none;" d="M139.667 39.3333L140.333 39.6667L139.667 39.3333M220 39L221 40L220 39M291 39L292 40L291 39M371 39L372 40L371 39z"/>
<path style="fill:#3eaaf3; stroke:none;" d="M372 39L373 40L372 39z"/>
<path style="fill:#8638d0; stroke:none;" d="M134.667 40.3333L135.333 40.6667L134.667 40.3333M215 40L216 41L215 40M296 40L297 41L296 40M376 40L377 41L376 40z"/>
<path style="fill:#3eaaf3; stroke:none;" d="M377 40L378 41L377 40z"/>
<path style="fill:#8638d0; stroke:none;" d="M129.667 41.3333L130.333 41.6667L129.667 41.3333M380 41L381 42L380 41z"/>
<path style="fill:#3eaaf3; stroke:none;" d="M381.667 41.3333L382.333 41.6667L381.667 41.3333z"/>
<path style="fill:#8638d0; stroke:none;" d="M124.667 42.3333L125.333 42.6667L124.667 42.3333M385 42L386 43L385 42z"/>
<path style="fill:#3eaaf3; stroke:none;" d="M386.667 42.3333L387.333 42.6667L386.667 42.3333z"/>
<path style="fill:#8638d0; stroke:none;" d="M120.667 43.3333L121.333 43.6667L120.667 43.3333M201 43L202 44L201 43M310 43L311 44L310 43M390 43L391 44L390 43z"/>
<path style="fill:#3eaaf3; stroke:none;" d="M391.667 43.3333L392.333 43.6667L391.667 43.3333z"/>
<path style="fill:#8638d0; stroke:none;" d="M115.667 44.3333L116.333 44.6667L115.667 44.3333M196 44L197 45L196 44M315 44L316 45L315 44M395 44L396 45L395 44z"/>
<path style="fill:#3eaaf3; stroke:none;" d="M396 44L397 45L396 44z"/>
<path style="fill:#8638d0; stroke:none;" d="M110.667 45.3333L111.333 45.6667L110.667 45.3333M191 45L192 46L191 45M320 45L321 46L320 45M400 45L401 46L400 45z"/>
<path style="fill:#3eaaf3; stroke:none;" d="M401 45L402 46L401 45z"/>
<path style="fill:#8638d0; stroke:none;" d="M105.667 46.3333L106.333 46.6667L105.667 46.3333M186 46L187 47L186 46M325 46L326 47L325 46M405 46L406 47L405 46z"/>
<path style="fill:#3eaaf3; stroke:none;" d="M406 46L407 47L406 46z"/>
<path style="fill:#8638d0; stroke:none;" d="M100.667 47.3333L101.333 47.6667L100.667 47.3333M409 47L410 48L409 47z"/>
<path style="fill:#3eaaf3; stroke:none;" d="M410.667 47.3333L411.333 47.6667L410.667 47.3333z"/>
<path style="fill:#8638d0; stroke:none;" d="M95.6667 48.3333L96.3333 48.6667L95.6667 48.3333M414 48L415 49L414 48z"/>
<path style="fill:#3eaaf3; stroke:none;" d="M415.667 48.3333L416.333 48.6667L415.667 48.3333z"/>
<path style="fill:#8638d0; stroke:none;" d="M91.6667 49.3333L92.3333 49.6667L91.6667 49.3333M172 49L173 50L172 49M339 49L340 50L339 49M419 49L420 50L419 49z"/>
<path style="fill:#3eaaf3; stroke:none;" d="M420.667 49.3333L421.333 49.6667L420.667 49.3333z"/>
<path style="fill:#8638d0; stroke:none;" d="M86.6667 50.3333L87.3333 50.6667L86.6667 50.3333M167 50L168 51L167 50M344 50L345 51L344 50M424 50L425 51L424 50z"/>
<path style="fill:#3eaaf3; stroke:none;" d="M425 50L426 51L425 50z"/>
<path style="fill:#8638d0; stroke:none;" d="M81.6667 51.3333L82.3333 51.6667L81.6667 51.3333M162 51L163 52L162 51M349 51L350 52L349 51M429 51L430 52L429 51z"/>
<path style="fill:#3eaaf3; stroke:none;" d="M430 51L431 52L430 51z"/>
<path style="fill:#8638d0; stroke:none;" d="M76.6667 52.3333L77.3333 52.6667L76.6667 52.3333M157 52L158 53L157 52M354 52L355 53L354 52M434 52L435 53L434 52z"/>
<path style="fill:#3eaaf3; stroke:none;" d="M435 52L436 53L435 52z"/>
<path style="fill:#8638d0; stroke:none;" d="M71.6667 53.3333L72.3333 53.6667L71.6667 53.3333M438 53L439 54L438 53z"/>
<path style="fill:#3eaaf3; stroke:none;" d="M439.667 53.3333L440.333 53.6667L439.667 53.3333z"/>
<path style="fill:#8638d0; stroke:none;" d="M66.6667 54.3333L67.3333 54.6667L66.6667 54.3333M443 54L444 55L443 54z"/>
<path style="fill:#3eaaf3; stroke:none;" d="M444.667 54.3333L445.333 54.6667L444.667 54.3333z"/>
<path style="fill:#8638d0; stroke:none;" d="M62.6667 55.3333L63.3333 55.6667L62.6667 55.3333M143 55L144 56L143 55M368 55L369 56L368 55M448 55L449 56L448 55z"/>
<path style="fill:#3eaaf3; stroke:none;" d="M449.667 55.3333L450.333 55.6667L449.667 55.3333z"/>
<path style="fill:#8638d0; stroke:none;" d="M57.6667 56.3333L58.3333 56.6667L57.6667 56.3333M138 56L139 57L138 56M373 56L374 57L373 56M453 56L454 57L453 56z"/>
<path style="fill:#3eaaf3; stroke:none;" d="M454 56L455 57L454 56z"/>
<path style="fill:#8638d0; stroke:none;" d="M52.6667 57.3333L53.3333 57.6667L52.6667 57.3333M133 57L134 58L133 57M378 57L379 58L378 57M458 57L459 58L458 57z"/>
<path style="fill:#3eaaf3; stroke:none;" d="M459 57L460 58L459 57z"/>
<path style="fill:#8638d0; stroke:none;" d="M47.6667 58.3333L48.3333 58.6667L47.6667 58.3333M128 58L129 59L128 58M383 58L384 59L383 58M463 58L464 59L463 58z"/>
<path style="fill:#3eaaf3; stroke:none;" d="M464 58L465 59L464 58z"/>
<path style="fill:#8638d0; stroke:none;" d="M42.6667 59.3333L43.3333 59.6667L42.6667 59.3333M467 59L468 60L467 59z"/>
<path style="fill:#3eaaf3; stroke:none;" d="M468.667 59.3333L469.333 59.6667L468.667 59.3333z"/>
<path style="fill:#8638d0; stroke:none;" d="M37.6667 60.3333L38.3333 60.6667L37.6667 60.3333M472 60L473 61L472 60z"/>
<path style="fill:#3eaaf3; stroke:none;" d="M473.667 60.3333L474.333 60.6667L473.667 60.3333z"/>
<path style="fill:#8638d0; stroke:none;" d="M33.6667 61.3333L34.3333 61.6667L33.6667 61.3333M114 61L115 62L114 61M397 61L398 62L397 61M477 61L478 62L477 61z"/>
<path style="fill:#3eaaf3; stroke:none;" d="M478.667 61.3333L479.333 61.6667L478.667 61.3333z"/>
<path style="fill:#8638d0; stroke:none;" d="M28.6667 62.3333L29.3333 62.6667L28.6667 62.3333M109 62L110 63L109 62M402 62L403 63L402 62M482 62L483 63L482 62z"/>
<path style="fill:#3eaaf3; stroke:none;" d="M483 62L484 63L483 62z"/>
<path style="fill:#8638d0; stroke:none;" d="M23.6667 63.3333L24.3333 63.6667L23.6667 63.3333M104 63L105 64L104 63M407 63L408 64L407 63M487 63L488 64L487 63z"/>
<path style="fill:#3eaaf3; stroke:none;" d="M488 63L489 64L488 63z"/>
<path style="fill:#8638d0; stroke:none;" d="M20 64L21 65L20 64M99 64L100 65L99 64M412 64L413 65L412 64z"/>
<path style="fill:#3eaaf3; stroke:none;" d="M491 64L492 65L491 64z"/>
<path style="fill:#8638d0; stroke:none;" d="M18 65L17 67L18 65M94 65L95 66L94 65z"/>
<path style="fill:#3eaaf3; stroke:none;" d="M493 65L495 67L493 65z"/>
<path style="fill:#8638d0; stroke:none;" d="M421 66L422 67L421 66M85 67L86 68L85 67M426 67L427 68L426 67M16 68L17 69L16 68M80 68L81 69L80 68M431 68L432 69L431 68z"/>
<path style="fill:#3eaaf3; stroke:none;" d="M495 68L496 69L495 68z"/>
<path style="fill:#8638d0; stroke:none;" d="M75 69L76 70L75 69M436 69L437 70L436 69M70 70L71 71L70 70M441 70L442 71L441 70M56 73L57 74L56 73M455 73L456 74L455 73M51 74L52 75L51 74M460 74L461 75L460 74M46 75L47 76L46 75M465 75L466 76L465 75M41 76L42 77L41 76M470 76L471 77L470 76M479 78L480 79L479 78z"/>
<path style="fill:#f33856; stroke:none;" d="M118.015 192.757C104.121 197.856 120.476 220.779 129 218.654C148.746 213.732 130.344 188.233 118.015 192.757z"/>
<path style="fill:#8638d0; stroke:none;" d="M123 192L124 193L123 192z"/>
<path style="fill:#f33856; stroke:none;" d="M388 192.746C383.474 194.412 374.543 202.197 373.346 207C372.298 211.203 380.797 219.702 385 218.654C390.299 217.333 398.847 207.365 399.612 202C400.515 195.664 393.958 190.553 388 192.746z"/>
<path style="fill:#8638d0; stroke:none;" d="M112 203L113 204L112 203M399 203L400 204L399 203M153 218L154 219L153 218M358 218L359 219L358 218z"/>
<path style="fill:#dfdfdf; stroke:none;" d="M145 243L163 225C160.318 223.193 156.474 219.601 153 220.022C139.968 221.605 139.651 235.063 145 243z"/>
<path style="fill:#f33856; stroke:none;" d="M154 219L155 220L154 219M357 219L358 220L357 219z"/>
<path style="fill:#dfdfdf; stroke:none;" d="M349 225L367 243C372.349 235.063 372.032 221.605 359 220.022C355.526 219.601 351.682 223.193 349 225z"/>
<path style="fill:#8638d0; stroke:none;" d="M156 220L157 221L156 220M355 220L356 221L355 220z"/>
<path style="fill:#f33856; stroke:none;" d="M157 221L158 222L157 221M354 221L355 222L354 221z"/>
<path style="fill:#8638d0; stroke:none;" d="M159 222L160 223L159 222M352 222L353 223L352 222z"/>
<path style="fill:#f33856; stroke:none;" d="M160 223L161 224L160 223M351 223L352 224L351 223z"/>
<path style="fill:#8638d0; stroke:none;" d="M162 224L163 225L162 224M349 224L350 225L349 224M138 233L139 234L138 233M373 233L374 234L373 233z"/>
<path style="fill:#f33856; stroke:none;" d="M139 234L140 235L139 234M372 234L373 235L372 234z"/>
<path style="fill:#8638d0; stroke:none;" d="M140 236L141 237L140 236M371 236L372 237L371 236z"/>
<path style="fill:#f33856; stroke:none;" d="M141 237L142 238L141 237M370 237L371 238L370 237z"/>
<path style="fill:#8638d0; stroke:none;" d="M142 239L143 240L142 239M369 239L370 240L369 239z"/>
<path style="fill:#f33856; stroke:none;" d="M143 240L144 241L143 240M368 240L369 241L368 240z"/>
<path style="fill:#8638d0; stroke:none;" d="M144 242L145 243L144 242M367 242L368 243L367 242z"/>
<path style="fill:#3eaaf3; stroke:none;" d="M253.044 288.746C243.851 292.356 244.859 324.789 258.956 319.254C268.149 315.644 267.14 283.211 253.044 288.746M128 320L128 376L129 376C130.578 369.416 138.266 364.028 138.901 358C139.271 354.491 136.391 350.626 136.093 347C135.137 335.34 141.618 324.634 153 321L128 320z"/>
<path style="fill:#8638d0; stroke:none;" d="M153 320L153 321L156 321L153 320M164 320L164 321L167 321L164 320z"/>
<path style="fill:#3eaaf3; stroke:none;" d="M167 320L167 321C177.052 324.21 183.992 333.47 183.992 344C183.992 348.733 179.012 357.152 183 360C186.138 346.28 188.109 334.051 187 320L167 320z"/>
<path style="fill:#8638d0; stroke:none;" d="M187 320L186.561 343L183.081 360L191 378L192 378L192 320L187 320z"/>
<path style="fill:#3eaaf3; stroke:none;" d="M320 320L320 376L321 376C322.578 369.416 330.266 364.028 330.901 358C331.271 354.491 328.391 350.626 328.093 347C327.137 335.34 333.618 324.634 345 321L320 320z"/>
<path style="fill:#8638d0; stroke:none;" d="M345 320L345 321L348 321L345 320M356 320L356 321L359 321L356 320z"/>
<path style="fill:#3eaaf3; stroke:none;" d="M359 320L359 321C369.052 324.21 375.992 333.47 375.992 344C375.992 348.733 371.012 357.152 375 360C378.138 346.28 380.109 334.051 379 320L359 320z"/>
<path style="fill:#8638d0; stroke:none;" d="M379 320L378.561 343L375.081 360L383 378L384 378L384 320L379 320M150.667 321.333L151.333 321.667L150.667 321.333M168.667 321.333L169.333 321.667L168.667 321.333M342.667 321.333L343.333 321.667L342.667 321.333M360.667 321.333L361.333 321.667L360.667 321.333M148.667 322.333L149.333 322.667L148.667 322.333M171 322L172 323L171 322M340.667 322.333L341.333 322.667L340.667 322.333M363 322L364 323L363 322M147 323L148 324L147 323M172 323L173 324L172 323M339 323L340 324L339 323M364 323L365 324L364 323M145 324L146 325L145 324M174 324L175 325L174 324M337 324L338 325L337 324M366 324L367 325L366 324M144 325L145 326L144 325M175 325L176 326L175 325M336 325L337 326L336 325M367 325L368 326L367 325M143 326L144 327L143 326M176 326L177 327L176 326M335 326L336 327L335 326M368 326L369 327L368 326M142 327L143 328L142 327M177 327L178 328L177 327M334 327L335 328L334 327M369 327L370 328L369 327M141 328L142 329L141 328M178 328L179 329L178 328M333 328L334 329L333 328M370 328L371 329L370 328M140 329L141 330L140 329M179 329L180 330L179 329M332 329L333 330L332 329M371 329L372 330L371 329M139 331L140 332L139 331M180 331L181 332L180 331M331 331L332 332L331 331M372 331L373 332L372 331M138 332L139 333L138 332M181 332L182 333L181 332M330 332L331 333L330 332M373 332L374 333L373 332M137.333 334.667L137.667 335.333L137.333 334.667M182.333 334.667L182.667 335.333L182.333 334.667M329.333 334.667L329.667 335.333L329.333 334.667M374.333 334.667L374.667 335.333L374.333 334.667z"/>
<path style="fill:#3eaaf3; stroke:none;" d="M157 336L158 337L157 336z"/>
<path style="fill:#dfdfdf; stroke:none;" d="M158.043 336.696C148.579 339.27 152.723 354.32 161.985 351.215C171.161 348.137 167.415 334.147 158.043 336.696z"/>
<path style="fill:#3eaaf3; stroke:none;" d="M162 336L163 337L162 336M349 336L350 337L349 336z"/>
<path style="fill:#dfdfdf; stroke:none;" d="M350.043 336.696C340.579 339.27 344.723 354.32 353.985 351.215C363.161 348.137 359.415 334.147 350.043 336.696z"/>
<path style="fill:#3eaaf3; stroke:none;" d="M354 336L355 337L354 336z"/>
<path style="fill:#8638d0; stroke:none;" d="M136.333 337.667L136.667 338.333L136.333 337.667z"/>
<path style="fill:#3eaaf3; stroke:none;" d="M155 337L156 338L155 337M164 337L165 338L164 337z"/>
<path style="fill:#8638d0; stroke:none;" d="M183.333 337.667L183.667 338.333L183.333 337.667M328.333 337.667L328.667 338.333L328.333 337.667z"/>
<path style="fill:#3eaaf3; stroke:none;" d="M347 337L348 338L347 337M356 337L357 338L356 337z"/>
<path style="fill:#8638d0; stroke:none;" d="M375.333 337.667L375.667 338.333L375.333 337.667z"/>
<path style="fill:#3eaaf3; stroke:none;" d="M153 339L154 340L153 339M166 339L167 340L166 339M345 339L346 340L345 339M358 339L359 340L358 339M152 341L153 342L152 341M167 341L168 342L167 341M344 341L345 342L344 341M359 341L360 342L359 341M152 346L153 347L152 346z"/>
<path style="fill:#8638d0; stroke:none;" d="M167 346L168 347L167 346z"/>
<path style="fill:#3eaaf3; stroke:none;" d="M344 346L345 347L344 346z"/>
<path style="fill:#8638d0; stroke:none;" d="M359 346L360 347L359 346M136 348L136 351L137 351L136 348z"/>
<path style="fill:#3eaaf3; stroke:none;" d="M153 348L154 349L153 348z"/>
<path style="fill:#8638d0; stroke:none;" d="M166 348L167 349L166 348M183 348L183 351L184 351L183 348M328 348L328 351L329 351L328 348z"/>
<path style="fill:#3eaaf3; stroke:none;" d="M345 348L346 349L345 348z"/>
<path style="fill:#8638d0; stroke:none;" d="M358 348L359 349L358 348M375 348L375 351L376 351L375 348z"/>
<path style="fill:#3eaaf3; stroke:none;" d="M165 349L166 350L165 349M357 349L358 350L357 349M155 350L156 351L155 350z"/>
<path style="fill:#8638d0; stroke:none;" d="M164 350L165 351L164 350z"/>
<path style="fill:#3eaaf3; stroke:none;" d="M347 350L348 351L347 350z"/>
<path style="fill:#8638d0; stroke:none;" d="M356 350L357 351L356 350M157 351L158 352L157 351M162 351L163 352L162 351M349 351L350 352L349 351M354 351L355 352L354 351M137.333 352.667L137.667 353.333L137.333 352.667M182.333 352.667L182.667 353.333L182.333 352.667M329.333 352.667L329.667 353.333L329.333 352.667M374.333 352.667L374.667 353.333L374.333 352.667M138.333 354.667L138.667 355.333L138.333 354.667M181.333 354.667L181.667 355.333L181.333 354.667M330.333 354.667L330.667 355.333L330.333 354.667M373.333 354.667L373.667 355.333L373.333 354.667M139 356L140 357L139 356M180 356L181 357L180 356M331 356L332 357L331 356M372 356L373 357L372 356M140 358L141 359L140 358M179 358L180 359L179 358M332 358L333 359L332 358M371 358L372 359L371 358M139 359L140 360L139 359M180 359L181 360L180 359M331 359L332 360L331 359M372 359L373 360L372 359M135 363L136 364L135 363M327 363L328 364L327 363M134 364L135 365L134 364M326 364L327 365L326 364M133 365L134 366L133 365M325 365L326 366L325 365M132 367L133 368L132 367M324 367L325 368L324 367M131.333 368.667L131.667 369.333L131.333 368.667M155 368L156 369L155 368z"/>
<path style="fill:#3eaaf3; stroke:none;" d="M156 368L157 369L156 368z"/>
<path style="fill:#dfdfdf; stroke:none;" d="M157 368.533C137.065 372.897 143.204 403.938 163 399.464C182.827 394.982 176.859 364.186 157 368.533z"/>
<path style="fill:#3eaaf3; stroke:none;" d="M163 368L164 369L163 368z"/>
<path style="fill:#8638d0; stroke:none;" d="M164 368L165 369L164 368M323.333 368.667L323.667 369.333L323.333 368.667M347 368L348 369L347 368z"/>
<path style="fill:#3eaaf3; stroke:none;" d="M348 368L349 369L348 368z"/>
<path style="fill:#dfdfdf; stroke:none;" d="M349 368.533C329.065 372.897 335.204 403.938 355 399.464C374.827 394.982 368.859 364.186 349 368.533z"/>
<path style="fill:#3eaaf3; stroke:none;" d="M355 368L356 369L355 368z"/>
<path style="fill:#8638d0; stroke:none;" d="M356 368L357 369L356 368z"/>
<path style="fill:#3eaaf3; stroke:none;" d="M153 369L154 370L153 369M166 369L167 370L166 369M345 369L346 370L345 369M358 369L359 370L358 369z"/>
<path style="fill:#8638d0; stroke:none;" d="M130.333 370.667L130.667 371.333L130.333 370.667M151 370L152 371L151 370M168 370L169 371L168 370M322.333 370.667L322.667 371.333L322.333 370.667M343 370L344 371L343 370M360 370L361 371L360 370M129.333 373.667L129.667 374.333L129.333 373.667M321.333 373.667L321.667 374.333L321.333 373.667M146 375L147 376L146 375M173 375L174 376L173 375M338 375L339 376L338 375M365 375L366 376L365 375M128 376L128 379L129 379L128 376M320 376L320 379L321 379L320 376z"/>
<path style="fill:#3eaaf3; stroke:none;" d="M145 377L146 378L145 377M174 377L175 378L174 377M337 377L338 378L337 377M366 377L367 378L366 377z"/>
<path style="fill:#8638d0; stroke:none;" d="M144 379L145 380L144 379M175.333 379.667L175.667 380.333L175.333 379.667M336 379L337 380L336 379M367.333 379.667L367.667 380.333L367.333 379.667z"/>
<path style="fill:#3eaaf3; stroke:none;" d="M144 380L145 381L144 380M336 380L337 381L336 380M144 387L145 388L144 387M175 387L176 388L175 387M336 387L337 388L336 387M367 387L368 388L367 387z"/>
<path style="fill:#8638d0; stroke:none;" d="M144 388L145 389L144 388M175 388L176 389L175 388M336 388L337 389L336 388M367 388L368 389L367 388M128 389L128 392L129 392L128 389M320 389L320 392L321 392L320 389z"/>
<path style="fill:#3eaaf3; stroke:none;" d="M145 390L146 391L145 390M174 390L175 391L174 390z"/>
<path style="fill:#8638d0; stroke:none;" d="M191 390C188.862 402.378 178.378 412.862 166 415L166 416L192 416L191 390z"/>
<path style="fill:#3eaaf3; stroke:none;" d="M337 390L338 391L337 390M366 390L367 391L366 390z"/>
<path style="fill:#8638d0; stroke:none;" d="M383 390C380.862 402.378 370.378 412.862 358 415L358 416L384 416L383 390z"/>
<path style="fill:#3eaaf3; stroke:none;" d="M128 392L128 414L139 410L128 392z"/>
<path style="fill:#8638d0; stroke:none;" d="M146 392L147 393L146 392M173 392L174 393L173 392z"/>
<path style="fill:#3eaaf3; stroke:none;" d="M320 392L320 414L331 410L320 392z"/>
<path style="fill:#8638d0; stroke:none;" d="M338 392L339 393L338 392M365 392L366 393L365 392M129.333 393.667L129.667 394.333L129.333 393.667z"/>
<path style="fill:#3eaaf3; stroke:none;" d="M172 393L173 394L172 393z"/>
<path style="fill:#8638d0; stroke:none;" d="M321.333 393.667L321.667 394.333L321.333 393.667z"/>
<path style="fill:#3eaaf3; stroke:none;" d="M364 393L365 394L364 393z"/>
<path style="fill:#8638d0; stroke:none;" d="M130 396L131 397L130 396z"/>
<path style="fill:#3eaaf3; stroke:none;" d="M169 396L170 397L169 396z"/>
<path style="fill:#8638d0; stroke:none;" d="M322 396L323 397L322 396z"/>
<path style="fill:#3eaaf3; stroke:none;" d="M361 396L362 397L361 396z"/>
<path style="fill:#8638d0; stroke:none;" d="M151 397L152 398L151 397M168 397L169 398L168 397M343 397L344 398L343 397M360 397L361 398L360 397M131.333 398.667L131.667 399.333L131.333 398.667z"/>
<path style="fill:#3eaaf3; stroke:none;" d="M153 398L154 399L153 398M166 398L167 399L166 398z"/>
<path style="fill:#8638d0; stroke:none;" d="M323.333 398.667L323.667 399.333L323.333 398.667z"/>
<path style="fill:#3eaaf3; stroke:none;" d="M345 398L346 399L345 398M358 398L359 399L358 398z"/>
<path style="fill:#8638d0; stroke:none;" d="M155.667 399.333L156.333 399.667L155.667 399.333z"/>
<path style="fill:#3eaaf3; stroke:none;" d="M163 399L164 400L163 399z"/>
<path style="fill:#8638d0; stroke:none;" d="M164 399L165 400L164 399M347.667 399.333L348.333 399.667L347.667 399.333z"/>
<path style="fill:#3eaaf3; stroke:none;" d="M355 399L356 400L355 399z"/>
<path style="fill:#8638d0; stroke:none;" d="M356 399L357 400L356 399M132 400L133 401L132 400M324 400L325 401L324 400M133 402L134 403L133 402M325 402L326 403L325 402M134 403L135 404L134 403M326 403L327 404L326 403M135 404L136 405L135 404M327 404L328 405L327 404M139 408L128 416L154 416L154 415L139 408M331 408L320 416L346 416L346 415L331 408M32 432L32 464L144 464L144 432L32 432z"/>
<path style="fill:#f33856; stroke:none;" d="M160 432L160 480L352 480L352 432L160 432z"/>
<path style="fill:#8638d0; stroke:none;" d="M368 432L368 464L480 464L480 432L368 432z"/>
</svg>
