<?xml version="1.0" standalone="yes"?>
<!-- <svg xmlns="http://www.w3.org/2000/svg" width="24" height="24" viewBox="0 0 24 24">
  <path style="fill:#080504;stroke:none" d="M0 0v24h24V0H0z"/>
  <path style="fill:#865440;stroke:none" d="m10.125 1.641.047.047-.047-.047m-.469.093.047.047-.047-.047m1.735.141v.047h1.218l-1.218-.047m3.468 0 .047.047-.047-.047m-3.984.047v.047h.188l-.188-.047z"/>
  <path style="fill:#c4a379;stroke:none" d="M11.063 1.922v.047h.14l-.14-.047z"/>
  <path style="fill:#d0cebb;stroke:none" d="M3.609 16.969V12.75c0-.4-.158-1.233.152-1.534.186-.18.453-.153.692-.153h1.594V7.359c0-.354-.139-1.08.151-1.339.19-.168.506-.114.74-.114h1.828c.1-.519.27-1.022.585-1.453 1.766-2.419 5.338-1.358 5.883 1.453h1.829c.233 0 .549-.054.739.114.29.259.151.985.151 1.339v3.704h1.594c.239 0 .506-.027.692.153.31.301.152 1.134.152 1.534v4.219c.71-.001.96-1.103 1.156-1.688.628-1.877.721-3.94.215-5.859-1.235-4.684-5.475-7.508-10.184-7.5-4.602.007-8.693 3.762-9.496 8.203a10.459 10.459 0 0 0 .419 5.297c.195.563.427 1.546 1.108 1.547z"/>
  <path style="fill:#c4a379;stroke:none" d="M12.797 1.922v.047h.141l-.141-.047z"/>
  <path style="fill:#865440;stroke:none" d="M12.938 1.922v.047h.187l-.187-.047m-2.438.047v.047h.141l-.141-.047z"/>
  <path style="fill:#c4a379;stroke:none" d="m10.672 1.984.031.016-.031-.016m2.625 0 .031.016-.031-.016z"/>
  <path style="fill:#865440;stroke:none" d="M13.359 1.969v.047h.141l-.141-.047m-3.14.047v.047h.14l-.14-.047z"/>
  <path style="fill:#c4a379;stroke:none" d="m10.359 2.016.047.047-.047-.047m3.266.015.031.016-.031-.016z"/>
  <path style="fill:#865440;stroke:none" d="m13.719 2.031.031.016-.031-.016m-3.781.032v.046h.14l-.14-.046z"/>
  <path style="fill:#c4a379;stroke:none" d="m10.078 2.063.047.046-.047-.046m3.797 0 .047.046-.047-.046z"/>
  <path style="fill:#865440;stroke:none" d="m13.953 2.078.031.016-.031-.016m-4.172.047.031.016-.031-.016z"/>
  <path style="fill:#c4a379;stroke:none" d="m9.844 2.109.047.047-.047-.047m4.265 0 .047.047-.047-.047z"/>
  <path style="fill:#865440;stroke:none" d="m14.188 2.125.031.016-.031-.016m-4.594.047.031.016-.031-.016z"/>
  <path style="fill:#c4a379;stroke:none" d="m9.656 2.156.047.047-.047-.047m4.641 0 .047.047-.047-.047z"/>
  <path style="fill:#865440;stroke:none" d="m14.375 2.172.031.016-.031-.016m-4.969.047.031.015-.031-.015m5.157 0 .031.015-.031-.015m-5.329.031.047.047-.047-.047z"/>
  <path style="fill:#c4a379;stroke:none" d="m9.281 2.25.047.047-.047-.047m5.391 0 .047.047-.047-.047z"/>
  <path style="fill:#865440;stroke:none" d="m14.75 2.266.031.015-.031-.015m-5.672.046.031.016-.031-.016z"/>
  <path style="fill:#c4a379;stroke:none" d="m14.859 2.297.047.047-.047-.047z"/>
  <path style="fill:#865440;stroke:none" d="m14.906 2.297.047.047-.047-.047m-7.125.047.047.047-.047-.047m1.125 0 .047.047-.047-.047z"/>
  <path style="fill:#c4a379;stroke:none" d="M8.953 2.344 9 2.391l-.047-.047m6.047 0 .047.047L15 2.344z"/>
  <path style="fill:#865440;stroke:none" d="m15.047 2.344.047.047-.047-.047m1.125 0 .047.047-.047-.047m-7.406.047.047.047-.047-.047z"/>
  <path style="fill:#c4a379;stroke:none" d="m8.813 2.391.046.047-.046-.047m6.328 0 .047.047-.047-.047z"/>
  <path style="fill:#865440;stroke:none" d="m15.188 2.391.046.047-.046-.047m-6.563.047.047.046-.047-.046z"/>
  <path style="fill:#c4a379;stroke:none" d="m8.672 2.438.047.046-.047-.046m6.609 0 .047.046-.047-.046z"/>
  <path style="fill:#865440;stroke:none" d="m15.328 2.438.047.046-.047-.046m-6.844.046.047.047-.047-.047z"/>
  <path style="fill:#c4a379;stroke:none" d="m8.531 2.484.047.047-.047-.047m6.891 0 .047.047-.047-.047z"/>
  <path style="fill:#865440;stroke:none" d="m15.469 2.484.047.047-.047-.047m-7.078.047.047.047-.047-.047m7.203.016.031.016-.031-.016m-7.344.031.047.047-.047-.047z"/>
  <path style="fill:#c4a379;stroke:none" d="m8.297 2.578.047.047-.047-.047m7.359 0 .047.047-.047-.047z"/>
  <path style="fill:#865440;stroke:none" d="m15.703 2.578.047.047-.047-.047m-7.547.047.047.047-.047-.047m7.672.016.031.015-.031-.015m-7.812.031.047.047-.047-.047z"/>
  <path style="fill:#c4a379;stroke:none" d="m8.063 2.672.046.047-.046-.047m7.828 0 .047.047-.047-.047z"/>
  <path style="fill:#865440;stroke:none" d="m15.938 2.672.046.047-.046-.047m-8.016.047.047.047-.047-.047m8.109 0 .047.047-.047-.047m-8.203.047.047.047-.047-.047m8.297 0 .047.047-.047-.047m-9.281.047.047.046-.047-.046m.844 0 .046.046-.046-.046z"/>
  <path style="fill:#c4a379;stroke:none" d="m7.734 2.813.047.046-.047-.046m8.485 0 .047.046-.047-.046z"/>
  <path style="fill:#865440;stroke:none" d="m16.266 2.813.047.046-.047-.046m-8.672.046.047.047-.047-.047z"/>
  <path style="fill:#c4a379;stroke:none" d="m7.641 2.859.047.047-.047-.047m8.672 0 .046.047-.046-.047z"/>
  <path style="fill:#865440;stroke:none" d="m16.359 2.859.047.047-.047-.047M7.5 2.906l.047.047-.047-.047z"/>
  <path style="fill:#c4a379;stroke:none" d="m7.547 2.906.047.047-.047-.047m8.859 0 .047.047-.047-.047z"/>
  <path style="fill:#865440;stroke:none" d="m16.453 2.906.047.047-.047-.047m-9.047.047L7.453 3l-.047-.047z"/>
  <path style="fill:#c4a379;stroke:none" d="M7.453 2.953 7.5 3l-.047-.047m9.047 0 .047.047-.047-.047z"/>
  <path style="fill:#865440;stroke:none" d="m16.547 2.953.047.047-.047-.047M7.313 3l.046.047L7.313 3z"/>
  <path style="fill:#c4a379;stroke:none" d="m7.359 3 .047.047L7.359 3m9.235 0 .047.047L16.594 3z"/>
  <path style="fill:#865440;stroke:none" d="m16.641 3 .047.047L16.641 3m-9.422.047.047.047-.047-.047z"/>
  <path style="fill:#c4a379;stroke:none" d="m7.266 3.047.047.047-.047-.047z"/>
  <path style="fill:#7db5c2;stroke:none" d="M8.766 5.906H6.844c-.228 0-.558-.057-.715.152-.196.258-.082.851-.082 1.161h1.969c.217 0 .593-.071.783.048.258.161.393.774.587 1.03A3.262 3.262 0 0 0 12 9.583a3.265 3.265 0 0 0 2.614-1.286c.195-.258.326-.867.587-1.03.19-.119.566-.048.783-.048h1.969c0-.31.114-.903-.082-1.161-.157-.209-.487-.152-.715-.152h-1.922c-.386-2.995-4.481-3.858-6.037-1.265a3.291 3.291 0 0 0-.431 1.265z"/>
  <path style="fill:#c4a379;stroke:none" d="m16.688 3.047.046.047-.046-.047z"/>
  <path style="fill:#865440;stroke:none" d="m16.734 3.047.047.047-.047-.047z"/>
  <path style="fill:#c4a379;stroke:none" d="m7.172 3.094.047.047-.047-.047m9.609 0 .047.047-.047-.047z"/>
  <path style="fill:#865440;stroke:none" d="m7.078 3.141.047.047-.047-.047m9.797 0 .047.047-.047-.047m-9.891.047.047.046-.047-.046m9.985 0 .047.046-.047-.046m-10.078.046.047.047-.047-.047z"/>
  <path style="fill:#c4a379;stroke:none" d="m6.938 3.234.046.047-.046-.047m10.078 0 .047.047-.047-.047z"/>
  <path style="fill:#865440;stroke:none" d="m17.063 3.234.046.047-.046-.047z"/>
  <path style="fill:#c4a379;stroke:none" d="m6.844 3.281.047.047-.047-.047m10.265 0 .047.047-.047-.047z"/>
  <path style="fill:#865440;stroke:none" d="m6.75 3.328.047.047-.047-.047m10.453 0 .047.047-.047-.047m-10.547.047.047.047-.047-.047m10.641 0 .047.047-.047-.047m-10.688.047.047.047-.047-.047z"/>
  <path style="fill:#c4a379;stroke:none" d="m17.344 3.422.047.047-.047-.047z"/>
  <path style="fill:#865440;stroke:none" d="m5.813 3.469.046.047-.046-.047m.703 0 .047.047-.047-.047m10.922 0 .046.047-.046-.047m.703 0 .047.047-.047-.047z"/>
  <path style="fill:#c4a379;stroke:none" d="m6.469 3.516.047.047-.047-.047m11.015 0 .047.047-.047-.047z"/>
  <path style="fill:#865440;stroke:none" d="m6.375 3.563.047.046-.047-.046m11.203 0 .047.046-.047-.046m-11.953.046.047.047-.047-.047z"/>
  <path style="fill:#c4a379;stroke:none" d="m6.328 3.609.047.047-.047-.047m11.297 0 .047.047-.047-.047z"/>
  <path style="fill:#865440;stroke:none" d="m6.234 3.656.047.047-.047-.047m11.485 0 .047.047-.047-.047m-11.531.047.046.047-.046-.047z"/>
  <path style="fill:#c4a379;stroke:none" d="m17.766 3.703.047.047-.047-.047z"/>
  <path style="fill:#865440;stroke:none" d="m6.094 3.75.047.047-.047-.047m11.765 0 .047.047-.047-.047m-11.812.047.047.047-.047-.047m11.859 0 .047.047-.047-.047z"/>
  <path style="fill:#c4a379;stroke:none" d="m6 3.844.047.047L6 3.844m11.953 0 .047.047-.047-.047z"/>
  <path style="fill:#865440;stroke:none" d="m5.906 3.891.047.047-.047-.047m12.141 0 .047.047-.047-.047m-12.188.047.047.046-.047-.046m12.235 0 .047.046-.047-.046z"/>
  <path style="fill:#c4a379;stroke:none" d="m5.813 3.984.046.047-.046-.047m12.328 0 .047.047-.047-.047z"/>
  <path style="fill:#865440;stroke:none" d="m5.719 4.031.047.047-.047-.047m12.515 0 .047.047-.047-.047m-12.562.047.047.047-.047-.047m12.609 0 .047.047-.047-.047z"/>
  <path style="fill:#c4a379;stroke:none" d="m5.625 4.125.047.047-.047-.047m12.703 0 .047.047-.047-.047m-12.75.047.047.047-.047-.047m12.797 0 .047.047-.047-.047z"/>
  <path style="fill:#865440;stroke:none" d="m5.484 4.219.047.047-.047-.047m12.985 0 .047.047-.047-.047m-13.031.047.046.047-.046-.047m13.078 0 .047.047-.047-.047m-13.125.047.047.046-.047-.046m13.172 0 .046.046-.046-.046m-13.219.046.047.047-.047-.047m13.265 0 .047.047-.047-.047z"/>
  <path style="fill:#c4a379;stroke:none" d="m5.297 4.406.047.047-.047-.047m13.359 0 .047.047-.047-.047M5.25 4.453l.047.047-.047-.047m13.453 0 .047.047-.047-.047z"/>
  <path style="fill:#865440;stroke:none" d="m5.063 4.594.046.047-.046-.047m13.828 0 .047.047-.047-.047m-13.875.047.047.047-.047-.047m13.922 0 .046.047-.046-.047m-13.969.047.047.046-.047-.046m14.015 0 .047.046-.047-.046m-14.062.046.047.047-.047-.047m14.109 0 .047.047-.047-.047m-14.156.047.047.047-.047-.047m14.203 0 .047.047-.047-.047m-14.25.047.047.047-.047-.047m14.297 0 .047.047-.047-.047m-14.344.047.047.047-.047-.047m14.391 0 .047.047-.047-.047m-14.438.047.047.047-.047-.047m14.485 0 .047.047-.047-.047m-14.531.047.046.047-.046-.047m14.578 0 .047.047-.047-.047m-14.625.047.047.047-.047-.047m14.672 0 .046.047-.046-.047m-14.719.047.047.046-.047-.046m14.765 0 .047.046-.047-.046m.047.046.047.047-.047-.047z"/>
  <path style="fill:#c4a379;stroke:none" d="m4.453 5.25.047.047-.047-.047m15.047 0 .047.047-.047-.047m-15.094.047.047.047-.047-.047m15.141 0 .047.047-.047-.047z"/>
  <path style="fill:#865440;stroke:none" d="m4.359 5.344.047.047-.047-.047m15.235 0 .047.047-.047-.047m-15.281.047.046.047-.046-.047m15.328 0 .047.047-.047-.047m-15.375.047.047.046-.047-.046m15.422 0 .046.046-.046-.046m-15.469.046.047.047-.047-.047m15.515 0 .047.047-.047-.047z"/>
  <path style="fill:#c4a379;stroke:none" d="m4.172 5.578.047.047-.047-.047m15.609 0 .047.047-.047-.047m-15.656.047.047.047-.047-.047z"/>
  <path style="fill:#865440;stroke:none" d="m19.828 5.625.047.047-.047-.047m.516 0 .047.047-.047-.047m-16.266.047.047.047-.047-.047m15.797 0 .047.047-.047-.047m-15.844.047.047.047-.047-.047m15.891 0 .047.047-.047-.047m-16.453.094.047.046-.047-.046z"/>
  <path style="fill:#c4a379;stroke:none" d="m3.984 5.813.047.046-.047-.046m15.985 0 .047.046-.047-.046z"/>
  <path style="fill:#865440;stroke:none" d="m3.938 5.859.046.047-.046-.047m16.078 0 .047.047-.047-.047m-16.125.047.047.047-.047-.047m16.172 0 .046.047-.046-.047z"/>
  <path style="fill:#c4a379;stroke:none" d="m3.844 6 .047.047L3.844 6m16.265 0 .047.047L20.109 6z"/>
  <path style="fill:#865440;stroke:none" d="m3.797 6.047.047.047-.047-.047m16.359 0 .047.047-.047-.047M3.75 6.094l.047.047-.047-.047m16.453 0 .047.047-.047-.047z"/>
  <path style="fill:#c4a379;stroke:none" d="m3.703 6.188.047.046-.047-.046m16.547 0 .047.046-.047-.046z"/>
  <path style="fill:#865440;stroke:none" d="m3.656 6.234.047.047-.047-.047m16.641 0 .047.047-.047-.047z"/>
  <path style="fill:#c4a379;stroke:none" d="m3.609 6.328.047.047-.047-.047m16.735 0 .047.047-.047-.047z"/>
  <path style="fill:#865440;stroke:none" d="m3.563 6.375.046.047-.046-.047m16.828 0 .047.047-.047-.047z"/>
  <path style="fill:#c4a379;stroke:none" d="m3.516 6.469.047.047-.047-.047m16.922 0 .046.047-.046-.047z"/>
  <path style="fill:#865440;stroke:none" d="m3 6.516.047.047L3 6.516m.469 0 .047.047-.047-.047m17.015 0 .047.047-.047-.047m.469 0 .047.047-.047-.047z"/>
  <path style="fill:#c4a379;stroke:none" d="m3.422 6.609.047.047-.047-.047z"/>
  <path style="fill:#865440;stroke:none" d="m20.531 6.609.047.047-.047-.047m-17.156.047.047.047-.047-.047m17.203 0 .047.047-.047-.047m-17.25.094.047.047-.047-.047m17.297 0 .047.047-.047-.047z"/>
  <path style="fill:#c4a379;stroke:none" d="m3.281 6.844.047.047-.047-.047m17.391 0 .047.047-.047-.047z"/>
  <path style="fill:#865440;stroke:none" d="m21.141 6.844.047.047-.047-.047m-17.907.047.047.047-.047-.047m17.485 0 .047.047-.047-.047z"/>
  <path style="fill:#c4a379;stroke:none" d="m3.234 6.938.047.046-.047-.046m17.485 0 .047.046-.047-.046z"/>
  <path style="fill:#865440;stroke:none" d="m3.188 6.984.046.047-.046-.047m17.578 0 .047.047-.047-.047m-17.625.094.047.047-.047-.047m17.672 0 .046.047-.046-.047z"/>
  <path style="fill:#c4a379;stroke:none" d="m3.094 7.172.047.047-.047-.047m17.765 0 .047.047-.047-.047z"/>
  <path style="fill:#865440;stroke:none" d="m3.047 7.219.047.047-.047-.047z"/>
  <path style="fill:#c4a379;stroke:none" d="M6.047 7.219v3.844H3.938v.046H6v5.86h.047v-2.016h2.062V7.219H6.047z"/>
  <path style="fill:#d0cebb;stroke:none" d="M8.109 7.219v7.734h7.782V7.219c-.197 0-.559-.07-.726.048-.132.092-.172.329-.24.467A3.225 3.225 0 0 1 12 9.57a3.214 3.214 0 0 1-2.34-.992 3.442 3.442 0 0 1-.568-.797c-.074-.149-.114-.414-.257-.514-.167-.118-.529-.048-.726-.048z"/>
  <path style="fill:#c4a379;stroke:none" d="M15.891 7.219v7.734h2.062v2.016H18v-5.86h2.063v-.046h-2.11V7.219h-2.062z"/>
  <path style="fill:#865440;stroke:none" d="m20.906 7.219.047.047-.047-.047z"/>
  <path style="fill:#c4a379;stroke:none" d="m3.047 7.266.047.047-.047-.047m17.859 0 .047.047-.047-.047z"/>
  <path style="fill:#865440;stroke:none" d="m3 7.313.047.046L3 7.313m17.953 0 .047.046-.047-.046z"/>
  <path style="fill:#c4a379;stroke:none" d="m3 7.359.047.047L3 7.359m17.953 0 .047.047-.047-.047z"/>
  <path style="fill:#865440;stroke:none" d="M2.953 7.406 3 7.453l-.047-.047m18.047 0 .047.047L21 7.406z"/>
  <path style="fill:#c4a379;stroke:none" d="M2.953 7.453 3 7.5l-.047-.047m18.047 0 .047.047L21 7.453z"/>
  <path style="fill:#865440;stroke:none" d="m2.906 7.5.047.047-.047-.047m18.141 0 .047.047-.047-.047z"/>
  <path style="fill:#c4a379;stroke:none" d="m2.906 7.547.047.047-.047-.047m18.141 0 .047.047-.047-.047z"/>
  <path style="fill:#865440;stroke:none" d="m2.859 7.594.047.047-.047-.047z"/>
  <path style="fill:#d0cebb;stroke:none" d="M6.422 7.594c.349.749.963.749 1.312 0H6.422m9.844 0c.349.749.963.749 1.312 0h-1.312z"/>
  <path style="fill:#865440;stroke:none" d="m21.094 7.594.047.047-.047-.047z"/>
  <path style="fill:#c4a379;stroke:none" d="m2.859 7.641.047.047-.047-.047m18.235 0 .047.047-.047-.047z"/>
  <path style="fill:#865440;stroke:none" d="m2.813 7.688.046.046-.046-.046m18.328 0 .047.046-.047-.046z"/>
  <path style="fill:#c4a379;stroke:none" d="m2.813 7.734.046.047-.046-.047m18.328 0 .047.047-.047-.047z"/>
  <path style="fill:#865440;stroke:none" d="m2.344 7.781.047.047-.047-.047m19.265 0 .047.047-.047-.047m-18.843.047.047.047-.047-.047m18.422 0 .046.047-.046-.047m-18.469.094.047.047-.047-.047m18.515 0 .047.047-.047-.047m-18.562.094.047.047-.047-.047m18.609 0 .047.047-.047-.047z"/>
  <path style="fill:#c4a379;stroke:none" d="m2.672 8.063.047.046-.047-.046m18.609 0 .047.046-.047-.046z"/>
  <path style="fill:#865440;stroke:none" d="m2.641 8.141.015.031-.015-.031m18.703 0 .015.031-.015-.031z"/>
  <path style="fill:#d0cebb;stroke:none" d="M6.422 8.203v.75c.374-.264.374-.486 0-.75m1.359.75v-.75c-.437.204-.437.546 0 .75m8.438-.75v.75c.437-.204.437-.546 0-.75m1.312 0c-.306.311-.327.486.047.75l-.047-.75z"/>
  <path style="fill:#865440;stroke:none" d="m2.578 8.25.047.047-.047-.047m18.797 0 .047.047-.047-.047z"/>
  <path style="fill:#c4a379;stroke:none" d="m2.578 8.297.047.047-.047-.047m18.797 0 .047.047-.047-.047z"/>
  <path style="fill:#865440;stroke:none" d="m2.531 8.391.047.047-.047-.047m18.891 0 .047.047-.047-.047m-18.938.093.047.047-.047-.047m18.985 0 .047.047-.047-.047z"/>
  <path style="fill:#c4a379;stroke:none" d="m2.484 8.531.047.047-.047-.047m18.985 0 .047.047-.047-.047z"/>
  <path style="fill:#865440;stroke:none" d="m2.438 8.625.046.047-.046-.047m19.078 0 .047.047-.047-.047z"/>
  <path style="fill:#c4a379;stroke:none" d="m2.438 8.672.046.047-.046-.047m19.078 0 .047.047-.047-.047z"/>
  <path style="fill:#865440;stroke:none" d="m2.391 8.766.047.047-.047-.047m19.172 0 .046.047-.046-.047z"/>
  <path style="fill:#c4a379;stroke:none" d="m2.391 8.813.047.046-.047-.046m19.172 0 .046.046-.046-.046z"/>
  <path style="fill:#d0cebb;stroke:none" d="M7.078 8.859c-.505.506-.505.62 0 1.125h.047c.479-.478.558-.698-.047-1.125m9.797 0c-.505.506-.505.62 0 1.125h.047c.479-.478.558-.698-.047-1.125z"/>
  <path style="fill:#865440;stroke:none" d="m2.344 8.906.047.047-.047-.047m19.265 0 .047.047-.047-.047z"/>
  <path style="fill:#c4a379;stroke:none" d="M2.344 8.953 2.391 9l-.047-.047m19.265 0 .047.047-.047-.047z"/>
  <path style="fill:#865440;stroke:none" d="m2.297 9.047.047.047-.047-.047m19.375.031.016.031-.016-.031m-19.797.016.047.047-.047-.047z"/>
  <path style="fill:#c4a379;stroke:none" d="m2.297 9.094.047.047-.047-.047z"/>
  <path style="fill:#865440;stroke:none" d="m2.266 9.219.015.031-.015-.031m19.453 0 .015.031-.015-.031z"/>
  <path style="fill:#c4a379;stroke:none" d="m2.25 9.281.047.047-.047-.047m19.453 0 .047.047-.047-.047z"/>
  <path style="fill:#865440;stroke:none" d="m2.219 9.406.015.031-.015-.031m19.547 0 .015.031-.015-.031m-19.594.188.016.031-.016-.031m19.64 0 .016.031-.016-.031m-20.078.062.047.047-.047-.047z"/>
  <path style="fill:#c4a379;stroke:none" d="m2.156 9.656.047.047-.047-.047m19.641 0 .047.047-.047-.047z"/>
  <path style="fill:#865440;stroke:none" d="m2.125 9.781.016.031-.016-.031m19.734 0 .016.031-.016-.031z"/>
  <path style="fill:#c4a379;stroke:none" d="m2.109 9.844.047.047-.047-.047z"/>
  <path style="fill:#d0cebb;stroke:none" d="M6.422 9.844v.797c.392-.278.392-.52 0-.797m1.312 0-.375.375v.047l.422.375-.047-.797m8.485 0v.797l.422-.375v-.047l-.422-.375m1.312 0c-.322.326-.348.517.047.797l-.047-.797z"/>
  <path style="fill:#c4a379;stroke:none" d="m21.844 9.844.047.047-.047-.047z"/>
  <path style="fill:#865440;stroke:none" d="m2.078 10.016.016.031-.016-.031m19.828 0 .016.031-.016-.031z"/>
  <path style="fill:#c4a379;stroke:none" d="m2.063 10.078.046.047-.046-.047m19.828 0 .047.047-.047-.047z"/>
  <path style="fill:#865440;stroke:none" d="m1.641 10.125.047.047-.047-.047m.375.094v.14h.047l-.047-.14m19.922 0v.14h.046l-.046-.14z"/>
  <path style="fill:#c4a379;stroke:none" d="m2.016 10.359.047.047-.047-.047m19.922 0 .046.047-.046-.047z"/>
  <path style="fill:#865440;stroke:none" d="M1.969 10.5v.141h.047l-.047-.141m20.015 0v.141h.047l-.047-.141z"/>
  <path style="fill:#d0cebb;stroke:none" d="M7.641 11.109a2.306 2.306 0 0 0-.282-.327c-.25-.241-.803-.096-.753.327.023.196.363.53.566.434.179-.085.33-.295.469-.434m8.718-.046c.085.119.176.225.282.327.25.241.803.096.753-.327-.023-.196-.363-.531-.566-.434-.179.085-.33.295-.469.434z"/>
  <path style="fill:#c4a379;stroke:none" d="m1.984 10.672.016.031-.016-.031m20.016 0 .016.031-.016-.031z"/>
  <path style="fill:#865440;stroke:none" d="M1.922 10.875v.188h.047l-.047-.188m20.109 0v.188h.047l-.047-.188z"/>
  <path style="fill:#c4a379;stroke:none" d="M1.922 11.063v.14h.047l-.047-.14m20.109 0v.14h.047l-.047-.14m-18.234.046-.141.188.141-.188z"/>
  <path style="fill:#865440;stroke:none" d="M3.656 16.969H6v-5.86H4.406c-.202 0-.483-.049-.641.109-.265.265-.109 1.131-.109 1.485v4.266M18 11.109v5.86h2.344v-4.266c0-.354.156-1.22-.109-1.485-.158-.158-.439-.109-.641-.109H18z"/>
  <path style="fill:#c4a379;stroke:none" d="m20.156 11.109.047.047-.047-.047m.047.047.047.047-.047-.047m.047.047.047.047-.047-.047m.047.047.047.047-.047-.047z"/>
  <path style="fill:#865440;stroke:none" d="m1.5 11.297.047.047-.047-.047z"/>
  <path style="fill:#c4a379;stroke:none" d="M3.609 11.344v5.625h.047v-3.938l-.047-1.687m16.735 0v5.625h.047v-3.938l-.047-1.687z"/>
  <path style="fill:#865440;stroke:none" d="M1.875 11.391v1.218h.047l-.047-1.218m20.203 0v1.172h.047l-.047-1.172z"/>
  <path style="fill:#d0cebb;stroke:none" d="M6.422 11.531v.797c.367-.281.382-.527 0-.797m1.359.75v-.75c-.431.202-.431.549 0 .75m8.438-.75v.75c.437-.204.437-.546 0-.75m1.312 0c-.312.317-.321.515.047.797l-.047-.797z"/>
  <path style="fill:#c4a379;stroke:none" d="M4.688 12.047v.047h.281l-.281-.047m14.343 0v.047h.282l-.282-.047m-14.484.047.047.047-.047-.047z"/>
  <path style="fill:#d0cebb;stroke:none" d="M4.594 12.124c-.834.263-.412 1.576.422 1.339.902-.257.474-1.621-.422-1.339z"/>
  <path style="fill:#c4a379;stroke:none" d="m5.094 12.109.031.016-.031-.016m13.703.079.141-.047-.141.047z"/>
  <path style="fill:#d0cebb;stroke:none" d="M18.938 12.124c-.838.263-.423 1.599.421 1.338.891-.275.469-1.617-.421-1.338z"/>
  <path style="fill:#c4a379;stroke:none" d="m19.406 12.094.047.047-.047-.047m-14.953.047.047.047-.047-.047m.703 0 .047.047-.047-.047m14.344 0 .047.047-.047-.047m-15.141.047.047.046-.047-.046m.891 0 .047.046-.047-.046z"/>
  <path style="fill:#d0cebb;stroke:none" d="M7.078 12.188c-.505.505-.505.619 0 1.125h.047c.479-.479.558-.699-.047-1.125m9.797 0c-.505.505-.505.619 0 1.125h.047c.479-.479.558-.699-.047-1.125z"/>
  <path style="fill:#c4a379;stroke:none" d="m18.703 12.188.047.046-.047-.046m.891 0 .047.046-.047-.046m-15.281.046.046.047-.046-.047m.984 0 .047.047-.047-.047m13.359 0 .047.047-.047-.047m.985 0 .047.047-.047-.047m-15.375.047.047.047-.047-.047m1.078 0 .047.047-.047-.047m13.265 0 .047.047-.047-.047m1.079 0 .046.047-.046-.047m-14.297.047.047.047-.047-.047m13.172 0 .046.047-.046-.047m-14.344.047.047.047-.047-.047m15.515 0 .047.047-.047-.047m-15.562.047.047.047-.047-.047m1.266 0 .046.047-.046-.047m13.078 0 .047.047-.047-.047m1.265 0 .047.047-.047-.047m-15.64.125.015.031-.015-.031m.643.014c-.276.062-.203.506.088.453.284-.052.19-.515-.088-.453m.716-.014.016.031-.016-.031m12.984 0 .016.031-.016-.031m.644.014c-.276.062-.204.506.088.453.284-.052.19-.515-.088-.453m.716-.014.015.031-.015-.031m-14.313.109v.235h.047l-.047-.235m12.891 0v.235h.047l-.047-.235m-14.328.125.015.031-.015-.031m15.797 0 .015.031-.015-.031m-17.969.016v.141h.047l-.047-.141m20.109 0v.141h.047l-.047-.141z"/>
  <path style="fill:#865440;stroke:none" d="M1.922 12.938v.187h.047l-.047-.187z"/>
  <path style="fill:#c4a379;stroke:none" d="m4.141 12.969.015.031-.015-.031m15.703 0 .015.031-.015-.031z"/>
  <path style="fill:#865440;stroke:none" d="M22.031 12.938v.187h.047l-.047-.187z"/>
  <path style="fill:#c4a379;stroke:none" d="m5.5 13.016.016.031-.016-.031m12.984 0 .016.031-.016-.031m-14.312.062.047.047-.047-.047m15.609 0 .047.047-.047-.047m-14.343.047.046.047-.046-.047m13.078 0 .047.047-.047-.047m-14.297.047.047.047-.047-.047m1.172 0 .047.047-.047-.047z"/>
  <path style="fill:#d0cebb;stroke:none" d="M6.422 13.172v.797c.392-.278.392-.52 0-.797m1.312 0-.375.375v.047l.422.375-.047-.797m8.485 0v.797l.422-.375v-.047l-.422-.375m1.312 0c-.316.324-.343.521.047.797l-.047-.797z"/>
  <path style="fill:#c4a379;stroke:none" d="m18.563 13.172.046.047-.046-.047m1.171 0 .047.047-.047-.047m-15.468.047.047.047-.047-.047m15.422 0 .046.047-.046-.047m-17.704.078.016.031-.016-.031m16.625-.031.047.047-.047-.047m1.032 0 .047.047-.047-.047m2.359.031.016.031-.016-.031m-17.641.016.047.046-.047-.046m15.235 0 .047.046-.047-.046z"/>
  <path style="fill:#865440;stroke:none" d="M1.969 13.359v.141h.047l-.047-.141z"/>
  <path style="fill:#c4a379;stroke:none" d="m4.406 13.359.047.047-.047-.047m.797 0 .047.047-.047-.047m13.547 0 .047.047-.047-.047m.797 0 .047.047-.047-.047z"/>
  <path style="fill:#865440;stroke:none" d="M21.984 13.359v.141h.047l-.047-.141z"/>
  <path style="fill:#c4a379;stroke:none" d="m4.5 13.406.047.047-.047-.047m.641.016.031.016-.031-.016m13.687 0 .031.016-.031-.016m.625-.016.047.047-.047-.047m-14.828.063.031.015-.031-.015m.375 0 .031.015L5 13.469m13.969 0 .031.015-.031-.015m.375 0 .031.015-.031-.015m-17.328.125.047.047-.047-.047m19.922 0 .046.047-.046-.047z"/>
  <path style="fill:#865440;stroke:none" d="M2.016 13.641v.14h.047l-.047-.14m19.922 0v.14h.046l-.046-.14m-20.297.187.047.047-.047-.047z"/>
  <path style="fill:#c4a379;stroke:none" d="m2.063 13.875.046.047-.046-.047z"/>
  <path style="fill:#d0cebb;stroke:none" d="M6.422 14.578h1.359c-.453-.644-.97-.834-1.359 0m9.797 0h1.359c-.389-.834-.906-.644-1.359 0z"/>
  <path style="fill:#c4a379;stroke:none" d="m21.891 13.875.047.047-.047-.047z"/>
  <path style="fill:#865440;stroke:none" d="m2.078 13.953.016.031-.016-.031m19.828 0 .016.031-.016-.031z"/>
  <path style="fill:#c4a379;stroke:none" d="m2.109 14.109.047.047-.047-.047m19.735 0 .047.047-.047-.047z"/>
  <path style="fill:#865440;stroke:none" d="m2.125 14.188.016.031-.016-.031m19.734 0 .016.031-.016-.031z"/>
  <path style="fill:#c4a379;stroke:none" d="M4.688 14.203v.047h.281l-.281-.047m14.343 0v.047h.282l-.282-.047m-14.453.063.031.015-.031-.015z"/>
  <path style="fill:#d0cebb;stroke:none" d="M4.641 14.276c-.881.23-.488 1.579.375 1.354.876-.229.511-1.585-.375-1.354z"/>
  <path style="fill:#c4a379;stroke:none" d="m5.047 14.266.031.015-.031-.015m13.875 0 .031.015-.031-.015z"/>
  <path style="fill:#d0cebb;stroke:none" d="M18.984 14.275c-.855.207-.531 1.552.329 1.363.912-.201.582-1.583-.329-1.363z"/>
  <path style="fill:#c4a379;stroke:none" d="m19.391 14.266.031.015-.031-.015m-17.235.031.047.047-.047-.047m2.297 0 .047.047-.047-.047m.703 0 .047.047-.047-.047m13.641 0 .047.047-.047-.047m.703 0 .047.047-.047-.047m2.297 0 .047.047-.047-.047z"/>
  <path style="fill:#865440;stroke:none" d="m2.172 14.375.016.031-.016-.031z"/>
  <path style="fill:#c4a379;stroke:none" d="m4.406 14.344.047.047-.047-.047m.844 0 .047.047-.047-.047m13.453 0 .047.047-.047-.047m.844 0 .047.047-.047-.047z"/>
  <path style="fill:#865440;stroke:none" d="m21.812 14.375.016.031-.016-.031z"/>
  <path style="fill:#c4a379;stroke:none" d="m4.313 14.391.046.047-.046-.047m.984 0 .047.047-.047-.047m13.359 0 .047.047-.047-.047m.985 0 .047.047-.047-.047m-15.375.047.047.046-.047-.046m1.078 0 .047.046-.047-.046m13.265 0 .047.046-.047-.046m1.079 0 .046.046-.046-.046m-14.297.046.047.047-.047-.047m13.172 0 .046.047-.046-.047z"/>
  <path style="fill:#865440;stroke:none" d="m2.219 14.563.015.031-.015-.031z"/>
  <path style="fill:#c4a379;stroke:none" d="m4.219 14.531.047.047-.047-.047m15.515 0 .047.047-.047-.047z"/>
  <path style="fill:#865440;stroke:none" d="m21.766 14.563.015.031-.015-.031z"/>
  <path style="fill:#c4a379;stroke:none" d="m4.172 14.578.047.047-.047-.047m1.266 0 .046.047-.046-.047m13.078 0 .047.047-.047-.047m1.265 0 .047.047-.047-.047m-17.531.094.047.047-.047-.047m1.891.031.015.031-.015-.031m1.359 0 .016.031-.016-.031m12.984 0 .016.031-.016-.031m1.36 0 .015.031-.015-.031m1.859-.031.047.047-.047-.047z"/>
  <path style="fill:#865440;stroke:none" d="m2.266 14.75.015.031-.015-.031z"/>
  <path style="fill:#c4a379;stroke:none" d="M4.702 14.767c-.239.155.008.529.252.372.239-.155-.008-.529-.252-.372m14.341 0c-.257.156.013.528.255.372.242-.156-.008-.523-.255-.372z"/>
  <path style="fill:#865440;stroke:none" d="m21.703 14.719.047.047-.047-.047z"/>
  <path style="fill:#c4a379;stroke:none" d="M5.531 14.813v.281h.047l-.047-.281m12.891 0v.281h.047l-.047-.281z"/>
  <path style="fill:#865440;stroke:none" d="m1.875 14.859.047.047-.047-.047m.437.032.016.031-.016-.031m19.36 0 .016.031-.016-.031z"/>
  <path style="fill:#c4a379;stroke:none" d="m4.094 14.938.015.031-.015-.031m15.797 0 .015.031-.015-.031z"/>
  <path style="fill:#7db5c2;stroke:none" d="M6.047 14.953v2.016H3.234c.408 1.286 1.846 2.519 2.907 3.267 3.659 2.582 8.749 2.438 12.234-.39.868-.704 2.04-1.776 2.391-2.877h-2.813v-2.016H6.047z"/>
  <path style="fill:#c4a379;stroke:none" d="m2.344 15 .047.047L2.344 15m19.265 0 .047.047-.047-.047z"/>
  <path style="fill:#865440;stroke:none" d="m2.344 15.047.047.047-.047-.047m19.265 0 .047.047-.047-.047z"/>
  <path style="fill:#c4a379;stroke:none" d="m2.391 15.141.047.047-.047-.047m1.734 0 .047.047-.047-.047m1.375.031.016.031-.016-.031m12.984 0 .016.031-.016-.031m1.344-.031.047.047-.047-.047m1.735 0 .046.047-.046-.047z"/>
  <path style="fill:#865440;stroke:none" d="m2.391 15.188.047.046-.047-.046m19.172 0 .046.046-.046-.046z"/>
  <path style="fill:#c4a379;stroke:none" d="m4.187 15.266.016.031-.016-.031m15.61 0 .016.031-.016-.031m-17.359.015.046.047-.046-.047m3 0 .046.047-.046-.047m13.078 0 .047.047-.047-.047m3 0 .047.047-.047-.047z"/>
  <path style="fill:#865440;stroke:none" d="m2.438 15.328.046.047-.046-.047z"/>
  <path style="fill:#c4a379;stroke:none" d="m4.219 15.328.047.047-.047-.047m1.172 0 .047.047-.047-.047m13.172 0 .046.047-.046-.047m1.171 0 .047.047-.047-.047z"/>
  <path style="fill:#865440;stroke:none" d="m21.516 15.328.047.047-.047-.047z"/>
  <path style="fill:#c4a379;stroke:none" d="m4.266 15.375.047.047-.047-.047m-1.782.047.047.047-.047-.047m2.86 0 .047.047-.047-.047m13.265 0 .047.047-.047-.047m2.86 0 .047.047-.047-.047z"/>
  <path style="fill:#865440;stroke:none" d="m2.484 15.469.047.047-.047-.047z"/>
  <path style="fill:#c4a379;stroke:none" d="m4.359 15.469.047.047-.047-.047m.938 0 .047.047-.047-.047m13.359 0 .047.047-.047-.047m.938 0 .047.047-.047-.047z"/>
  <path style="fill:#865440;stroke:none" d="m21.469 15.469.047.047-.047-.047z"/>
  <path style="fill:#c4a379;stroke:none" d="m4.406 15.516.047.047-.047-.047m.797 0 .047.047-.047-.047m13.547 0 .047.047-.047-.047m.797 0 .047.047-.047-.047z"/>
  <path style="fill:#865440;stroke:none" d="m2.531 15.563.047.046-.047-.046z"/>
  <path style="fill:#c4a379;stroke:none" d="m4.484 15.578.032.016-.032-.016m.672-.015.047.046-.047-.046m13.641 0 .047.046-.047-.046m.687.015.032.016-.032-.016z"/>
  <path style="fill:#865440;stroke:none" d="m21.422 15.563.047.046-.047-.046z"/>
  <path style="fill:#c4a379;stroke:none" d="m4.594 15.609.047.047-.047-.047m.453.016.031.016-.031-.016m13.875 0 .031.016-.031-.016m.437-.016.047.047-.047-.047m-16.781.047.047.047-.047-.047m2.235.016.031.016-.031-.016m14.343 0 .031.016-.031-.016m2.219-.016.047.047-.047-.047z"/>
  <path style="fill:#865440;stroke:none" d="m2.578 15.703.047.047-.047-.047m18.797 0 .047.047-.047-.047m-18.734.125.015.031-.015-.031m18.703 0 .015.031-.015-.031z"/>
  <path style="fill:#c4a379;stroke:none" d="m2.672 15.891.047.047-.047-.047m18.609 0 .047.047-.047-.047z"/>
  <path style="fill:#865440;stroke:none" d="m2.672 15.938.047.046-.047-.046m18.609 0 .047.046-.047-.046m-18.562.093.047.047-.047-.047m18.515 0 .047.047-.047-.047m-18.468.094.047.047-.047-.047m18.422 0 .046.047-.046-.047z"/>
  <path style="fill:#c4a379;stroke:none" d="m2.813 16.219.046.047-.046-.047m18.328 0 .047.047-.047-.047z"/>
  <path style="fill:#865440;stroke:none" d="m2.813 16.266.046.047-.046-.047m18.328 0 .047.047-.047-.047z"/>
  <path style="fill:#c4a379;stroke:none" d="m2.859 16.313.047.046-.047-.046m18.235 0 .047.046-.047-.046z"/>
  <path style="fill:#865440;stroke:none" d="m2.859 16.359.047.047-.047-.047m18.235 0 .047.047-.047-.047z"/>
  <path style="fill:#c4a379;stroke:none" d="m2.906 16.406.047.047-.047-.047m18.141 0 .047.047-.047-.047z"/>
  <path style="fill:#865440;stroke:none" d="m2.906 16.453.047.047-.047-.047m18.141 0 .047.047-.047-.047z"/>
  <path style="fill:#c4a379;stroke:none" d="m2.953 16.5.047.047-.047-.047M21 16.5l.047.047L21 16.5z"/>
  <path style="fill:#865440;stroke:none" d="m2.953 16.547.047.047-.047-.047m18.047 0 .047.047-.047-.047z"/>
  <path style="fill:#c4a379;stroke:none" d="m3 16.594.047.047L3 16.594m17.953 0 .047.047-.047-.047z"/>
  <path style="fill:#865440;stroke:none" d="m3 16.641.047.047L3 16.641m17.953 0 .047.047-.047-.047z"/>
  <path style="fill:#c4a379;stroke:none" d="m3.047 16.688.047.046-.047-.046m17.859 0 .047.046-.047-.046z"/>
  <path style="fill:#865440;stroke:none" d="m3.047 16.734.047.047-.047-.047m17.859 0 .047.047-.047-.047z"/>
  <path style="fill:#c4a379;stroke:none" d="m3.094 16.781.047.047-.047-.047m17.765 0 .047.047-.047-.047z"/>
  <path style="fill:#865440;stroke:none" d="m3.141 16.875.047.047-.047-.047m17.672 0 .046.047-.046-.047m-17.625.094.046.047-.046-.047m17.578 0 .047.047-.047-.047m-17.532.094.047.046-.047-.046m17.485 0 .047.046-.047-.046m-17.391.14.047.047-.047-.047m17.297 0 .047.047-.047-.047m-17.25.094.047.047-.047-.047m17.203 0 .047.047-.047-.047m-.047.047.047.047-.047-.047M3 17.438l.047.046L3 17.438m.469 0 .047.046-.047-.046m17.015 0 .047.046-.047-.046m-16.921.14.046.047-.046-.047m16.828 0 .047.047-.047-.047m-16.735.141.047.047-.047-.047m16.641 0 .047.047-.047-.047m-16.547.14.047.047-.047-.047m16.453 0 .047.047-.047-.047m-16.406.047.047.047-.047-.047m16.359 0 .047.047-.047-.047m-16.265.141.047.047-.047-.047m16.172 0 .046.047-.046-.047m-16.125.047.046.047-.046-.047m16.078 0 .047.047-.047-.047m-16.547.047.047.047-.047-.047m17.015 0 .047.047-.047-.047m-16.453.093.047.047-.047-.047m15.891 0 .047.047-.047-.047m-15.844.047.047.047-.047-.047m15.797 0 .047.047-.047-.047m-15.75.047.047.047-.047-.047m15.703 0 .047.047-.047-.047m-15.609.141.047.047-.047-.047m15.515 0 .047.047-.047-.047m-15.468.047.047.047-.047-.047m15.422 0 .046.047-.046-.047m-15.891.047.047.046-.047-.046m.516 0 .046.046-.046-.046m15.328 0 .047.046-.047-.046m.515 0 .047.046-.047-.046m-15.797.046.047.047-.047-.047m15.235 0 .047.047-.047-.047m-15.563.235.047.047-.047-.047m.516 0 .047.047-.047-.047m14.859 0 .047.047-.047-.047m-14.812.047.047.047-.047-.047m14.765 0 .047.047-.047-.047m-14.718.047.047.046-.047-.046m14.672 0 .046.046-.046-.046m-14.625.046.046.047-.046-.047m14.578 0 .047.047-.047-.047m-14.532.047.047.047-.047-.047m14.485 0 .047.047-.047-.047m-14.438.047.047.047-.047-.047m14.391 0 .047.047-.047-.047m-14.344.047.047.047-.047-.047m14.297 0 .047.047-.047-.047m-14.25.047.047.047-.047-.047m14.203 0 .047.047-.047-.047m-14.156.047.047.047-.047-.047m14.109 0 .047.047-.047-.047m-14.062.047.047.047-.047-.047m14.015 0 .047.047-.047-.047m-13.968.047.047.046-.047-.046m13.922 0 .046.046-.046-.046m-13.875.046.046.047-.046-.047m13.828 0 .047.047-.047-.047m-13.782.047.047.047-.047-.047m13.735 0 .047.047-.047-.047m-13.5.188.047.047-.047-.047m13.265 0 .047.047-.047-.047m-13.218.047.047.047-.047-.047m13.172 0 .046.047-.046-.047m-13.125.047.046.046-.046-.046m13.078 0 .047.046-.047-.046m-13.032.046.047.047-.047-.047m12.985 0 .047.047-.047-.047m-12.844.094.047.047-.047-.047m12.703 0 .047.047-.047-.047m-12.656.047.047.047-.047-.047m12.609 0 .047.047-.047-.047m-13.172.047.047.047-.047-.047m.61 0 .047.047-.047-.047m12.515 0 .047.047-.047-.047m-12.375.094.047.047-.047-.047m12.235 0 .047.047-.047-.047m-12.188.047.047.046-.047-.046m12.141 0 .047.046-.047-.046m-.047.046.047.047-.047-.047m-11.953.047.047.047-.047-.047m11.859 0 .047.047-.047-.047m.657 0 .046.047-.046-.047m-12.469.047.047.047-.047-.047m11.765 0 .047.047-.047-.047m-11.671.047.046.047-.046-.047m11.578 0 .047.047-.047-.047m-11.532.047.047.047-.047-.047m11.485 0 .047.047-.047-.047m.609.047.047.047-.047-.047m-11.953.047.047.047-.047-.047m11.203 0 .047.047-.047-.047m-11.109.047.047.046-.047-.046m-.656.046.046.047-.046-.047m.703 0 .047.047-.047-.047m10.922 0 .046.047-.046-.047m-10.829.047.047.047-.047-.047m10.735 0 .047.047-.047-.047m-10.688.047.047.047-.047-.047m10.641 0 .047.047-.047-.047m-10.547.047.047.047-.047-.047m10.453 0 .047.047-.047-.047m-10.359.047.047.047-.047-.047m.047.047.047.047-.047-.047m10.172 0 .046.047-.046-.047m-10.079.047.047.047-.047-.047m9.985 0 .047.047-.047-.047m-9.891.047.047.046-.047-.046m9.797 0 .047.046-.047-.046m-9.656.093.047.047-.047-.047m9.515 0 .047.047-.047-.047m-9.421.047.046.047-.046-.047m9.328 0 .047.047-.047-.047M7.406 21l.047.047L7.406 21m9.141 0 .047.047-.047-.047m-9.047.047.047.047-.047-.047m8.953 0 .047.047-.047-.047m-8.859.047.047.047-.047-.047m8.765 0 .047.047-.047-.047m-8.64.062.031.016-.031-.016m8.531 0 .031.016-.031-.016m-8.422.032.047.046-.047-.046m8.297 0 .047.046-.047-.046m-8.203.046.047.047-.047-.047m8.109 0 .047.047-.047-.047m-8.015.047.047.047-.047-.047m7.922 0 .046.047-.046-.047m-7.797.063.031.015-.031-.015m7.687 0 .031.015-.031-.015m-7.578.031.047.047-.047-.047m7.453 0 .047.047-.047-.047m-7.312.047.047.047-.047-.047m7.203.015.031.016-.031-.016m-7.11.032.047.047-.047-.047m6.985 0 .047.047-.047-.047m-6.813.062.031.016-.031-.016m6.672-.015.047.047-.047-.047m-6.562.047.047.046-.047-.046m6.422 0 .046.046-.046-.046m-6.282.046.047.047-.047-.047m6.141 0 .047.047-.047-.047m-5.969.063.031.016-.031-.016m5.813 0 .031.016-.031-.016m-5.672.047.031.015-.031-.015m5.531 0 .031.015-.031-.015m-5.344.047.031.015-.031-.015m5.157 0 .031.015-.031-.015m-4.969.046.031.016-.031-.016m4.781 0 .031.016-.031-.016m-4.594.047.031.016-.031-.016m4.407 0 .031.016-.031-.016m-4.25.032v.047h.14l-.14-.047m3.984 0v.047h.141l-.141-.047m-3.703.047v.046h.14l-.14-.046m3.422 0v.046h.14l-.14-.046m-3.141.046v.047h.188l-.188-.047m2.813 0v.047h.187l-.187-.047m-2.438.047v.047h.234l-.234-.047m2.016 0v.047h.234l-.234-.047m-1.5.047v.047h1.218l-1.218-.047m3.468 0 .047.047-.047-.047m-4.734.235.047.046-.047-.046m3.703 0 .047.046-.047-.046z"/>
</svg> -->

<?xml version="1.0" standalone="yes"?>
<svg xmlns="http://www.w3.org/2000/svg" width="32" height="32" viewBox="0 0 512 512" preserveAspectRatio="xMidYMid meet">
<path style="fill:#080504; stroke:none;" d="M0 0L0 512L512 512L512 0L0 0z"/>
<path style="fill:#865440; stroke:none;" d="M216 35L217 36L216 35M206 37L207 38L206 37M243 40L243 41L269 41L243 40M317 40L318 41L317 40M232 41L232 42L236 42L232 41z"/>
<path style="fill:#c4a379; stroke:none;" d="M236 41L236 42L239 42L236 41z"/>
<path style="fill:#d0cebb; stroke:none;" d="M77 362L77 272C77 263.462 73.6198 245.688 80.2284 239.279C84.2012 235.426 89.9079 236 95 236L129 236L129 157C129 149.45 126.028 133.942 132.228 128.434C136.274 124.839 143.01 126 148 126L187 126C189.151 114.917 192.77 104.201 199.489 95C237.17 43.4008 313.364 66.0341 325 126L364 126C368.99 126 375.726 124.839 379.772 128.434C385.972 133.942 383 149.45 383 157L383 236L417 236C422.092 236 427.799 235.426 431.772 239.279C438.38 245.688 435 263.462 435 272L435 362C450.144 361.988 455.492 338.479 459.667 326C473.068 285.942 475.061 241.949 464.265 201C437.92 101.069 347.451 40.8388 247 41C148.832 41.1575 61.5414 121.266 44.4244 216C37.5862 253.846 40.7351 292.686 53.3441 329C57.5162 341.016 62.4743 361.989 77 362z"/>
<path style="fill:#c4a379; stroke:none;" d="M273 41L273 42L276 42L273 41z"/>
<path style="fill:#865440; stroke:none;" d="M276 41L276 42L280 42L276 41M224 42L224 43L227 43L224 42z"/>
<path style="fill:#c4a379; stroke:none;" d="M227.667 42.3333L228.333 42.6667L227.667 42.3333M283.667 42.3333L284.333 42.6667L283.667 42.3333z"/>
<path style="fill:#865440; stroke:none;" d="M285 42L285 43L288 43L285 42M218 43L218 44L221 44L218 43z"/>
<path style="fill:#c4a379; stroke:none;" d="M221 43L222 44L221 43M290.667 43.3333L291.333 43.6667L290.667 43.3333z"/>
<path style="fill:#865440; stroke:none;" d="M292.667 43.3333L293.333 43.6667L292.667 43.3333M212 44L212 45L215 45L212 44z"/>
<path style="fill:#c4a379; stroke:none;" d="M215 44L216 45L215 44M296 44L297 45L296 44z"/>
<path style="fill:#865440; stroke:none;" d="M297.667 44.3333L298.333 44.6667L297.667 44.3333M208.667 45.3333L209.333 45.6667L208.667 45.3333z"/>
<path style="fill:#c4a379; stroke:none;" d="M210 45L211 46L210 45M301 45L302 46L301 45z"/>
<path style="fill:#865440; stroke:none;" d="M302.667 45.3333L303.333 45.6667L302.667 45.3333M204.667 46.3333L205.333 46.6667L204.667 46.3333z"/>
<path style="fill:#c4a379; stroke:none;" d="M206 46L207 47L206 46M305 46L306 47L305 46z"/>
<path style="fill:#865440; stroke:none;" d="M306.667 46.3333L307.333 46.6667L306.667 46.3333M200.667 47.3333L201.333 47.6667L200.667 47.3333M310.667 47.3333L311.333 47.6667L310.667 47.3333M197 48L198 49L197 48z"/>
<path style="fill:#c4a379; stroke:none;" d="M198 48L199 49L198 48M313 48L314 49L313 48z"/>
<path style="fill:#865440; stroke:none;" d="M314.667 48.3333L315.333 48.6667L314.667 48.3333M193.667 49.3333L194.333 49.6667L193.667 49.3333z"/>
<path style="fill:#c4a379; stroke:none;" d="M317 49L318 50L317 49z"/>
<path style="fill:#865440; stroke:none;" d="M318 49L319 50L318 49M166 50L167 51L166 50M190 50L191 51L190 50z"/>
<path style="fill:#c4a379; stroke:none;" d="M191 50L192 51L191 50M320 50L321 51L320 50z"/>
<path style="fill:#865440; stroke:none;" d="M321 50L322 51L321 50M345 50L346 51L345 50M187 51L188 52L187 51z"/>
<path style="fill:#c4a379; stroke:none;" d="M188 51L189 52L188 51M323 51L324 52L323 51z"/>
<path style="fill:#865440; stroke:none;" d="M324 51L325 52L324 51M184 52L185 53L184 52z"/>
<path style="fill:#c4a379; stroke:none;" d="M185 52L186 53L185 52M326 52L327 53L326 52z"/>
<path style="fill:#865440; stroke:none;" d="M327 52L328 53L327 52M181 53L182 54L181 53z"/>
<path style="fill:#c4a379; stroke:none;" d="M182 53L183 54L182 53M329 53L330 54L329 53z"/>
<path style="fill:#865440; stroke:none;" d="M330 53L331 54L330 53M179 54L180 55L179 54M332.667 54.3333L333.333 54.6667L332.667 54.3333M176 55L177 56L176 55z"/>
<path style="fill:#c4a379; stroke:none;" d="M177 55L178 56L177 55M334 55L335 56L334 55z"/>
<path style="fill:#865440; stroke:none;" d="M335 55L336 56L335 55M174 56L175 57L174 56M337.667 56.3333L338.333 56.6667L337.667 56.3333M171 57L172 58L171 57z"/>
<path style="fill:#c4a379; stroke:none;" d="M172 57L173 58L172 57M339 57L340 58L339 57z"/>
<path style="fill:#865440; stroke:none;" d="M340 57L341 58L340 57M169 58L170 59L169 58M342 58L343 59L342 58M167 59L168 60L167 59M344 59L345 60L344 59M146 60L147 61L146 60M164 60L165 61L164 60z"/>
<path style="fill:#c4a379; stroke:none;" d="M165 60L166 61L165 60M346 60L347 61L346 60z"/>
<path style="fill:#865440; stroke:none;" d="M347 60L348 61L347 60M162 61L163 62L162 61z"/>
<path style="fill:#c4a379; stroke:none;" d="M163 61L164 62L163 61M348 61L349 62L348 61z"/>
<path style="fill:#865440; stroke:none;" d="M349 61L350 62L349 61M160 62L161 63L160 62z"/>
<path style="fill:#c4a379; stroke:none;" d="M161 62L162 63L161 62M350 62L351 63L350 62z"/>
<path style="fill:#865440; stroke:none;" d="M351 62L352 63L351 62M158 63L159 64L158 63z"/>
<path style="fill:#c4a379; stroke:none;" d="M159 63L160 64L159 63M352 63L353 64L352 63z"/>
<path style="fill:#865440; stroke:none;" d="M353 63L354 64L353 63M156 64L157 65L156 64z"/>
<path style="fill:#c4a379; stroke:none;" d="M157 64L158 65L157 64M354 64L355 65L354 64z"/>
<path style="fill:#865440; stroke:none;" d="M355 64L356 65L355 64M154 65L155 66L154 65z"/>
<path style="fill:#c4a379; stroke:none;" d="M155 65L156 66L155 65z"/>
<path style="fill:#7db5c2; stroke:none;" d="M187 126L146 126C141.131 126 134.103 124.781 130.742 129.228C126.581 134.734 129 147.391 129 154L171 154C175.631 154 183.656 152.481 187.722 155.028C193.208 158.463 196.1 171.535 200.239 177C213.5 194.507 234.089 204.429 256 204.429C277.865 204.429 298.528 194.498 311.761 177C315.919 171.501 318.72 158.509 324.278 155.028C328.344 152.481 336.369 154 341 154L383 154C383 147.391 385.419 134.734 381.258 129.228C377.897 124.781 370.869 126 366 126L325 126C316.749 62.1111 229.394 43.6883 196.208 99C191.327 107.135 188.213 116.609 187 126z"/>
<path style="fill:#c4a379; stroke:none;" d="M356 65L357 66L356 65z"/>
<path style="fill:#865440; stroke:none;" d="M357 65L358 66L357 65z"/>
<path style="fill:#c4a379; stroke:none;" d="M153 66L154 67L153 66M358 66L359 67L358 66z"/>
<path style="fill:#865440; stroke:none;" d="M151 67L152 68L151 67M360 67L361 68L360 67M149 68L150 69L149 68M362 68L363 69L362 68M147 69L148 70L147 69z"/>
<path style="fill:#c4a379; stroke:none;" d="M148 69L149 70L148 69M363 69L364 70L363 69z"/>
<path style="fill:#865440; stroke:none;" d="M364 69L365 70L364 69z"/>
<path style="fill:#c4a379; stroke:none;" d="M146 70L147 71L146 70M365 70L366 71L365 70z"/>
<path style="fill:#865440; stroke:none;" d="M144 71L145 72L144 71M367 71L368 72L367 71M142 72L143 73L142 72M369 72L370 73L369 72M141 73L142 74L141 73z"/>
<path style="fill:#c4a379; stroke:none;" d="M370 73L371 74L370 73z"/>
<path style="fill:#865440; stroke:none;" d="M124 74L125 75L124 74M139 74L140 75L139 74M372 74L373 75L372 74M387 74L388 75L387 74z"/>
<path style="fill:#c4a379; stroke:none;" d="M138 75L139 76L138 75M373 75L374 76L373 75z"/>
<path style="fill:#865440; stroke:none;" d="M136 76L137 77L136 76M375 76L376 77L375 76M120 77L121 78L120 77z"/>
<path style="fill:#c4a379; stroke:none;" d="M135 77L136 78L135 77M376 77L377 78L376 77z"/>
<path style="fill:#865440; stroke:none;" d="M133 78L134 79L133 78M378 78L379 79L378 78M132 79L133 80L132 79z"/>
<path style="fill:#c4a379; stroke:none;" d="M379 79L380 80L379 79z"/>
<path style="fill:#865440; stroke:none;" d="M130 80L131 81L130 80M381 80L382 81L381 80M129 81L130 82L129 81M382 81L383 82L382 81z"/>
<path style="fill:#c4a379; stroke:none;" d="M128 82L129 83L128 82M383 82L384 83L383 82z"/>
<path style="fill:#865440; stroke:none;" d="M126 83L127 84L126 83M385 83L386 84L385 83M125 84L126 85L125 84M386 84L387 85L386 84z"/>
<path style="fill:#c4a379; stroke:none;" d="M124 85L125 86L124 85M387 85L388 86L387 85z"/>
<path style="fill:#865440; stroke:none;" d="M122 86L123 87L122 86M389 86L390 87L389 86M121 87L122 88L121 87M390 87L391 88L390 87z"/>
<path style="fill:#c4a379; stroke:none;" d="M120 88L121 89L120 88M391 88L392 89L391 88M119 89L120 90L119 89M392 89L393 90L392 89z"/>
<path style="fill:#865440; stroke:none;" d="M117 90L118 91L117 90M394 90L395 91L394 90M116 91L117 92L116 91M395 91L396 92L395 91M115 92L116 93L115 92M396 92L397 93L396 92M114 93L115 94L114 93M397 93L398 94L397 93z"/>
<path style="fill:#c4a379; stroke:none;" d="M113 94L114 95L113 94M398 94L399 95L398 94M112 95L113 96L112 95M399 95L400 96L399 95z"/>
<path style="fill:#865440; stroke:none;" d="M108 98L109 99L108 98M403 98L404 99L403 98M107 99L108 100L107 99M404 99L405 100L404 99M106 100L107 101L106 100M405 100L406 101L405 100M105 101L106 102L105 101M406 101L407 102L406 101M104 102L105 103L104 102M407 102L408 103L407 102M103 103L104 104L103 103M408 103L409 104L408 103M102 104L103 105L102 104M409 104L410 105L409 104M101 105L102 106L101 105M410 105L411 106L410 105M100 106L101 107L100 106M411 106L412 107L411 106M99 107L100 108L99 107M412 107L413 108L412 107M98 108L99 109L98 108M413 108L414 109L413 108M414 109L415 110L414 109z"/>
<path style="fill:#c4a379; stroke:none;" d="M95 112L96 113L95 112M416 112L417 113L416 112M94 113L95 114L94 113M417 113L418 114L417 113z"/>
<path style="fill:#865440; stroke:none;" d="M93 114L94 115L93 114M418 114L419 115L418 114M92 115L93 116L92 115M419 115L420 116L419 115M91 116L92 117L91 116M420 116L421 117L420 116M90 117L91 118L90 117M421 117L422 118L421 117z"/>
<path style="fill:#c4a379; stroke:none;" d="M89 119L90 120L89 119M422 119L423 120L422 119M88 120L89 121L88 120z"/>
<path style="fill:#865440; stroke:none;" d="M423 120L424 121L423 120M434 120L435 121L434 120M87 121L88 122L87 121M424 121L425 122L424 121M86 122L87 123L86 122M425 122L426 123L425 122M74 124L75 125L74 124z"/>
<path style="fill:#c4a379; stroke:none;" d="M85 124L86 125L85 124M426 124L427 125L426 124z"/>
<path style="fill:#865440; stroke:none;" d="M84 125L85 126L84 125M427 125L428 126L427 125M83 126L84 127L83 126M428 126L429 127L428 126z"/>
<path style="fill:#c4a379; stroke:none;" d="M82 128L83 129L82 128M429 128L430 129L429 128z"/>
<path style="fill:#865440; stroke:none;" d="M81 129L82 130L81 129M430 129L431 130L430 129M80 130L81 131L80 130M431 130L432 131L431 130z"/>
<path style="fill:#c4a379; stroke:none;" d="M79 132L80 133L79 132M432 132L433 133L432 132z"/>
<path style="fill:#865440; stroke:none;" d="M78 133L79 134L78 133M433 133L434 134L433 133z"/>
<path style="fill:#c4a379; stroke:none;" d="M77 135L78 136L77 135M434 135L435 136L434 135z"/>
<path style="fill:#865440; stroke:none;" d="M76 136L77 137L76 136M435 136L436 137L435 136z"/>
<path style="fill:#c4a379; stroke:none;" d="M75 138L76 139L75 138M436 138L437 139L436 138z"/>
<path style="fill:#865440; stroke:none;" d="M64 139L65 140L64 139M74 139L75 140L74 139M437 139L438 140L437 139M447 139L448 140L447 139z"/>
<path style="fill:#c4a379; stroke:none;" d="M73 141L74 142L73 141z"/>
<path style="fill:#865440; stroke:none;" d="M438 141L439 142L438 141M72 142L73 143L72 142M439 142L440 143L439 142M71 144L72 145L71 144M440 144L441 145L440 144z"/>
<path style="fill:#c4a379; stroke:none;" d="M70 146L71 147L70 146M441 146L442 147L441 146z"/>
<path style="fill:#865440; stroke:none;" d="M451 146L452 147L451 146M69 147L70 148L69 147M442 147L443 148L442 147z"/>
<path style="fill:#c4a379; stroke:none;" d="M69 148L70 149L69 148M442 148L443 149L442 148z"/>
<path style="fill:#865440; stroke:none;" d="M68 149L69 150L68 149M443 149L444 150L443 149M67 151L68 152L67 151M444 151L445 152L444 151z"/>
<path style="fill:#c4a379; stroke:none;" d="M66 153L67 154L66 153M445 153L446 154L445 153z"/>
<path style="fill:#865440; stroke:none;" d="M65 154L66 155L65 154z"/>
<path style="fill:#c4a379; stroke:none;" d="M129 154L129 236L84 236L84 237L128 237L128 362L129 362L129 319L173 319L173 154L129 154z"/>
<path style="fill:#d0cebb; stroke:none;" d="M173 154L173 319L339 319L339 154C334.798 154 327.089 152.519 323.51 155.028C320.705 156.994 319.847 162.053 318.395 165C315.147 171.593 310.988 177.659 305.91 182.985C292.854 196.681 274.796 204.151 256 204.151C237.283 204.151 219.021 196.736 206.09 182.996C201.338 177.948 197.077 172.213 193.971 166C192.375 162.808 191.534 157.161 188.49 155.028C184.911 152.519 177.202 154 173 154z"/>
<path style="fill:#c4a379; stroke:none;" d="M339 154L339 319L383 319L383 362L384 362L384 237L428 237L428 236L383 236L383 154L339 154z"/>
<path style="fill:#865440; stroke:none;" d="M446 154L447 155L446 154z"/>
<path style="fill:#c4a379; stroke:none;" d="M65 155L66 156L65 155M446 155L447 156L446 155z"/>
<path style="fill:#865440; stroke:none;" d="M64 156L65 157L64 156M447 156L448 157L447 156z"/>
<path style="fill:#c4a379; stroke:none;" d="M64 157L65 158L64 157M447 157L448 158L447 157z"/>
<path style="fill:#865440; stroke:none;" d="M63 158L64 159L63 158M448 158L449 159L448 158z"/>
<path style="fill:#c4a379; stroke:none;" d="M63 159L64 160L63 159M448 159L449 160L448 159z"/>
<path style="fill:#865440; stroke:none;" d="M62 160L63 161L62 160M449 160L450 161L449 160z"/>
<path style="fill:#c4a379; stroke:none;" d="M62 161L63 162L62 161M449 161L450 162L449 161z"/>
<path style="fill:#865440; stroke:none;" d="M61 162L62 163L61 162z"/>
<path style="fill:#d0cebb; stroke:none;" d="M137 162C144.45 177.976 157.55 177.976 165 162L137 162M347 162C354.45 177.976 367.55 177.976 375 162L347 162z"/>
<path style="fill:#865440; stroke:none;" d="M450 162L451 163L450 162z"/>
<path style="fill:#c4a379; stroke:none;" d="M61 163L62 164L61 163M450 163L451 164L450 163z"/>
<path style="fill:#865440; stroke:none;" d="M60 164L61 165L60 164M451 164L452 165L451 164z"/>
<path style="fill:#c4a379; stroke:none;" d="M60 165L61 166L60 165M451 165L452 166L451 165z"/>
<path style="fill:#865440; stroke:none;" d="M50 166L51 167L50 166M461 166L462 167L461 166M59 167L60 168L59 167M452 167L453 168L452 167M58 169L59 170L58 169M453 169L454 170L453 169M57 171L58 172L57 171M454 171L455 172L454 171z"/>
<path style="fill:#c4a379; stroke:none;" d="M57 172L58 173L57 172M454 172L455 173L454 172z"/>
<path style="fill:#865440; stroke:none;" d="M56.3333 173.667L56.6667 174.333L56.3333 173.667M455.333 173.667L455.667 174.333L455.333 173.667z"/>
<path style="fill:#d0cebb; stroke:none;" d="M137 175L137 191C144.972 185.364 144.972 180.636 137 175M166 191L166 175C156.68 179.349 156.68 186.651 166 191M346 175L346 191C355.32 186.651 355.32 179.349 346 175M374 175C367.457 181.626 367.018 185.357 375 191L374 175z"/>
<path style="fill:#865440; stroke:none;" d="M55 176L56 177L55 176M456 176L457 177L456 176z"/>
<path style="fill:#c4a379; stroke:none;" d="M55 177L56 178L55 177M456 177L457 178L456 177z"/>
<path style="fill:#865440; stroke:none;" d="M54 179L55 180L54 179M457 179L458 180L457 179M53 181L54 182L53 181M458 181L459 182L458 181z"/>
<path style="fill:#c4a379; stroke:none;" d="M53 182L54 183L53 182M458 182L459 183L458 182z"/>
<path style="fill:#865440; stroke:none;" d="M52 184L53 185L52 184M459 184L460 185L459 184z"/>
<path style="fill:#c4a379; stroke:none;" d="M52 185L53 186L52 185M459 185L460 186L459 185z"/>
<path style="fill:#865440; stroke:none;" d="M51 187L52 188L51 187M460 187L461 188L460 187z"/>
<path style="fill:#c4a379; stroke:none;" d="M51 188L52 189L51 188M460 188L461 189L460 188z"/>
<path style="fill:#d0cebb; stroke:none;" d="M151 189C140.219 199.781 140.219 202.219 151 213L152 213C162.215 202.785 163.91 198.094 151 189M360 189C349.219 199.781 349.219 202.219 360 213L361 213C371.215 202.785 372.91 198.094 360 189z"/>
<path style="fill:#865440; stroke:none;" d="M50 190L51 191L50 190M461 190L462 191L461 190z"/>
<path style="fill:#c4a379; stroke:none;" d="M50 191L51 192L50 191M461 191L462 192L461 191z"/>
<path style="fill:#865440; stroke:none;" d="M49 193L50 194L49 193M462.333 193.667L462.667 194.333L462.333 193.667M40 194L41 195L40 194z"/>
<path style="fill:#c4a379; stroke:none;" d="M49 194L50 195L49 194z"/>
<path style="fill:#865440; stroke:none;" d="M48.3333 196.667L48.6667 197.333L48.3333 196.667M463.333 196.667L463.667 197.333L463.333 196.667z"/>
<path style="fill:#c4a379; stroke:none;" d="M48 198L49 199L48 198M463 198L464 199L463 198z"/>
<path style="fill:#865440; stroke:none;" d="M47.3333 200.667L47.6667 201.333L47.3333 200.667M464.333 200.667L464.667 201.333L464.333 200.667M46.3333 204.667L46.6667 205.333L46.3333 204.667M465.333 204.667L465.667 205.333L465.333 204.667M37 206L38 207L37 206z"/>
<path style="fill:#c4a379; stroke:none;" d="M46 206L47 207L46 206M465 206L466 207L465 206z"/>
<path style="fill:#865440; stroke:none;" d="M45.3333 208.667L45.6667 209.333L45.3333 208.667M466.333 208.667L466.667 209.333L466.333 208.667z"/>
<path style="fill:#c4a379; stroke:none;" d="M45 210L46 211L45 210z"/>
<path style="fill:#d0cebb; stroke:none;" d="M137 210L137 227C145.372 221.082 145.372 215.918 137 210M165 210L157 218L157 219L166 227L165 210M346 210L346 227L355 219L355 218L346 210M374 210C367.125 216.958 366.569 221.04 375 227L374 210z"/>
<path style="fill:#c4a379; stroke:none;" d="M466 210L467 211L466 210z"/>
<path style="fill:#865440; stroke:none;" d="M44.3333 213.667L44.6667 214.333L44.3333 213.667M467.333 213.667L467.667 214.333L467.333 213.667z"/>
<path style="fill:#c4a379; stroke:none;" d="M44 215L45 216L44 215M467 215L468 216L467 215z"/>
<path style="fill:#865440; stroke:none;" d="M35 216L36 217L35 216M43 218L43 221L44 221L43 218M468 218L468 221L469 221L468 218z"/>
<path style="fill:#c4a379; stroke:none;" d="M43 221L44 222L43 221M468 221L469 222L468 221z"/>
<path style="fill:#865440; stroke:none;" d="M42 224L42 227L43 227L42 224M469 224L469 227L470 227L469 224z"/>
<path style="fill:#d0cebb; stroke:none;" d="M163 237C161.204 234.45 159.255 232.19 156.995 230.019C151.649 224.882 139.856 227.972 140.921 237C141.413 241.164 148.67 248.308 153 246.248C156.82 244.431 160.045 239.955 163 237M349 236C350.796 238.55 352.745 240.81 355.005 242.981C360.351 248.118 372.144 245.028 371.079 236C370.587 231.836 363.33 224.692 359 226.752C355.18 228.569 351.955 233.045 349 236z"/>
<path style="fill:#c4a379; stroke:none;" d="M42.3333 227.667L42.6667 228.333L42.3333 227.667M469.333 227.667L469.667 228.333L469.333 227.667z"/>
<path style="fill:#865440; stroke:none;" d="M41 232L41 236L42 236L41 232M470 232L470 236L471 236L470 232z"/>
<path style="fill:#c4a379; stroke:none;" d="M41 236L41 239L42 239L41 236M470 236L470 239L471 239L470 236M81 237L78 241L81 237z"/>
<path style="fill:#865440; stroke:none;" d="M78 362L128 362L128 237L94 237C89.6814 237 83.6811 235.955 80.3179 239.318C74.6655 244.97 78 263.444 78 271L78 362M384 237L384 362L434 362L434 271C434 263.444 437.335 244.97 431.682 239.318C428.319 235.955 422.319 237 418 237L384 237z"/>
<path style="fill:#c4a379; stroke:none;" d="M430 237L431 238L430 237M431 238L432 239L431 238M432 239L433 240L432 239M433 240L434 241L433 240z"/>
<path style="fill:#865440; stroke:none;" d="M32 241L33 242L32 241z"/>
<path style="fill:#c4a379; stroke:none;" d="M77 242L77 362L78 362L78 278L77 242M434 242L434 362L435 362L435 278L434 242z"/>
<path style="fill:#865440; stroke:none;" d="M40 243L40 269L41 269L40 243M471 243L471 268L472 268L471 243z"/>
<path style="fill:#d0cebb; stroke:none;" d="M137 246L137 263C144.842 256.997 145.147 251.76 137 246M166 262L166 246C156.798 250.304 156.808 257.71 166 262M346 246L346 262C355.32 257.651 355.32 250.349 346 246M374 246C367.332 252.753 367.141 256.984 375 263L374 246z"/>
<path style="fill:#c4a379; stroke:none;" d="M100 257L100 258L106 258L100 257M406 257L406 258L412 258L406 257M97 258L98 259L97 258z"/>
<path style="fill:#d0cebb; stroke:none;" d="M98.0008 258.653C80.2201 264.254 89.2173 292.271 107 287.21C126.256 281.73 117.115 252.632 98.0008 258.653z"/>
<path style="fill:#c4a379; stroke:none;" d="M108.667 258.333L109.333 258.667L108.667 258.333M401 260L404 259L401 260z"/>
<path style="fill:#d0cebb; stroke:none;" d="M404 258.653C386.134 264.262 394.993 292.755 413 287.195C431.99 281.332 423.004 252.686 404 258.653z"/>
<path style="fill:#c4a379; stroke:none;" d="M414 258L415 259L414 258M95 259L96 260L95 259M110 259L111 260L110 259M416 259L417 260L416 259M93 260L94 261L93 260M112 260L113 261L112 260z"/>
<path style="fill:#d0cebb; stroke:none;" d="M151 260C140.219 270.781 140.219 273.219 151 284L152 284C162.215 273.785 163.91 269.094 151 260M360 260C349.219 270.781 349.219 273.219 360 284L361 284C371.215 273.785 372.91 269.094 360 260z"/>
<path style="fill:#c4a379; stroke:none;" d="M399 260L400 261L399 260M418 260L419 261L418 260M92 261L93 262L92 261M113 261L114 262L113 261M398 261L399 262L398 261M419 261L420 262L419 261M91 262L92 263L91 262M114 262L115 263L114 262M397 262L398 263L397 262M420 262L421 263L420 262M115 263L116 264L115 263M396 263L397 264L396 263M90 264L91 265L90 264M421 264L422 265L421 264M89 265L90 266L89 265M116 265L117 266L116 265M395 265L396 266L395 265M422 265L423 266L422 265M88.3333 267.667L88.6667 268.333L88.3333 267.667M102.054 267.971C96.1776 269.284 97.722 278.763 103.946 277.623C109.999 276.516 107.986 266.645 102.054 267.971M117.333 267.667L117.667 268.333L117.333 267.667M394.333 267.667L394.667 268.333L394.333 267.667M408.054 267.971C402.178 269.284 403.722 278.763 409.946 277.623C415.999 276.516 413.986 266.645 408.054 267.971M423.333 267.667L423.667 268.333L423.333 267.667M118 270L118 275L119 275L118 270M393 270L393 275L394 275L393 270M87.3333 272.667L87.6667 273.333L87.3333 272.667M424.333 272.667L424.667 273.333L424.333 272.667M41 273L41 276L42 276L41 273M470 273L470 276L471 276L470 273z"/>
<path style="fill:#865440; stroke:none;" d="M41 276L41 280L42 280L41 276z"/>
<path style="fill:#c4a379; stroke:none;" d="M88.3333 276.667L88.6667 277.333L88.3333 276.667M423.333 276.667L423.667 277.333L423.333 276.667z"/>
<path style="fill:#865440; stroke:none;" d="M470 276L470 280L471 280L470 276z"/>
<path style="fill:#c4a379; stroke:none;" d="M117.333 277.667L117.667 278.333L117.333 277.667M394.333 277.667L394.667 278.333L394.333 277.667M89 279L90 280L89 279M422 279L423 280L422 279M116 280L117 281L116 280M395 280L396 281L395 280M90 281L91 282L90 281M115 281L116 282L115 281z"/>
<path style="fill:#d0cebb; stroke:none;" d="M137 281L137 298C145.372 292.082 145.372 286.918 137 281M165 281L157 289L157 290L166 298L165 281M346 281L346 298L355 290L355 289L346 281M374 281C367.25 287.918 366.676 292.115 375 298L374 281z"/>
<path style="fill:#c4a379; stroke:none;" d="M396 281L397 282L396 281M421 281L422 282L421 281M91 282L92 283L91 282M420 282L421 283L420 282M42.3333 283.667L42.6667 284.333L42.3333 283.667M397 283L398 284L397 283M419 283L420 284L419 283M469.333 283.667L469.667 284.333L469.333 283.667M93 284L94 285L93 284M418 284L419 285L418 284z"/>
<path style="fill:#865440; stroke:none;" d="M42 285L42 288L43 288L42 285z"/>
<path style="fill:#c4a379; stroke:none;" d="M94 285L95 286L94 285M111 285L112 286L111 285M400 285L401 286L400 285M417 285L418 286L417 285z"/>
<path style="fill:#865440; stroke:none;" d="M469 285L469 288L470 288L469 285z"/>
<path style="fill:#c4a379; stroke:none;" d="M96 286L97 287L96 286M109.667 286.333L110.333 286.667L109.667 286.333M401.667 286.333L402.333 286.667L401.667 286.333M415 286L416 287L415 286M98.6667 287.333L99.3333 287.667L98.6667 287.333M106.667 287.333L107.333 287.667L106.667 287.333M404.667 287.333L405.333 287.667L404.667 287.333M412.667 287.333L413.333 287.667L412.667 287.333M43 290L44 291L43 290M468 290L469 291L468 290z"/>
<path style="fill:#865440; stroke:none;" d="M43 291L43 294L44 294L43 291M468 291L468 294L469 294L468 291M35 295L36 296L35 295z"/>
<path style="fill:#c4a379; stroke:none;" d="M44 296L45 297L44 296z"/>
<path style="fill:#d0cebb; stroke:none;" d="M137 311L166 311C156.326 297.267 145.302 293.197 137 311M346 311L375 311C366.698 293.197 355.674 297.267 346 311z"/>
<path style="fill:#c4a379; stroke:none;" d="M467 296L468 297L467 296z"/>
<path style="fill:#865440; stroke:none;" d="M44.3333 297.667L44.6667 298.333L44.3333 297.667M467.333 297.667L467.667 298.333L467.333 297.667z"/>
<path style="fill:#c4a379; stroke:none;" d="M45 301L46 302L45 301M466 301L467 302L466 301z"/>
<path style="fill:#865440; stroke:none;" d="M45.3333 302.667L45.6667 303.333L45.3333 302.667M466.333 302.667L466.667 303.333L466.333 302.667z"/>
<path style="fill:#c4a379; stroke:none;" d="M100 303L100 304L106 304L100 303M406 303L406 304L412 304L406 303M97.6667 304.333L98.3333 304.667L97.6667 304.333z"/>
<path style="fill:#d0cebb; stroke:none;" d="M99 304.558C80.2238 309.461 88.5945 338.248 107 333.442C125.706 328.558 117.92 299.617 99 304.558z"/>
<path style="fill:#c4a379; stroke:none;" d="M107.667 304.333L108.333 304.667L107.667 304.333M403.667 304.333L404.333 304.667L403.667 304.333z"/>
<path style="fill:#d0cebb; stroke:none;" d="M405 304.533C386.758 308.939 393.66 337.643 412 333.606C431.46 329.322 424.424 299.841 405 304.533z"/>
<path style="fill:#c4a379; stroke:none;" d="M413.667 304.333L414.333 304.667L413.667 304.333M46 305L47 306L46 305M95 305L96 306L95 305M110 305L111 306L110 305M401 305L402 306L401 305M416 305L417 306L416 305M465 305L466 306L465 305z"/>
<path style="fill:#865440; stroke:none;" d="M46.3333 306.667L46.6667 307.333L46.3333 306.667z"/>
<path style="fill:#c4a379; stroke:none;" d="M94 306L95 307L94 306M112 306L113 307L112 306M399 306L400 307L399 306M417 306L418 307L417 306z"/>
<path style="fill:#865440; stroke:none;" d="M465.333 306.667L465.667 307.333L465.333 306.667z"/>
<path style="fill:#c4a379; stroke:none;" d="M92 307L93 308L92 307M113 307L114 308L113 307M398 307L399 308L398 307M419 307L420 308L419 307M91 308L92 309L91 308M114 308L115 309L114 308M397 308L398 309L397 308M420 308L421 309L420 308M115 309L116 310L115 309M396 309L397 310L396 309z"/>
<path style="fill:#865440; stroke:none;" d="M47.3333 310.667L47.6667 311.333L47.3333 310.667z"/>
<path style="fill:#c4a379; stroke:none;" d="M90 310L91 311L90 310M421 310L422 311L421 310z"/>
<path style="fill:#865440; stroke:none;" d="M464.333 310.667L464.667 311.333L464.333 310.667z"/>
<path style="fill:#c4a379; stroke:none;" d="M89 311L90 312L89 311M116 311L117 312L116 311M395 311L396 312L395 311M422 311L423 312L422 311M48 313L49 314L48 313M88.3333 313.667L88.6667 314.333L88.3333 313.667M117.333 313.667L117.667 314.333L117.333 313.667M394.333 313.667L394.667 314.333L394.333 313.667M423.333 313.667L423.667 314.333L423.333 313.667M463 313L464 314L463 313z"/>
<path style="fill:#865440; stroke:none;" d="M48.3333 314.667L48.6667 315.333L48.3333 314.667z"/>
<path style="fill:#c4a379; stroke:none;" d="M100.318 315.032C95.2073 318.332 100.49 326.32 105.682 322.968C110.793 319.668 105.51 311.68 100.318 315.032M406.243 315.032C400.775 318.366 406.524 326.298 411.682 322.968C416.848 319.632 411.523 311.813 406.243 315.032z"/>
<path style="fill:#865440; stroke:none;" d="M463 314L464 315L463 314z"/>
<path style="fill:#c4a379; stroke:none;" d="M118 316L118 322L119 322L118 316M393 316L393 322L394 322L393 316z"/>
<path style="fill:#865440; stroke:none;" d="M40 317L41 318L40 317M49.3333 317.667L49.6667 318.333L49.3333 317.667M462.333 317.667L462.667 318.333L462.333 317.667z"/>
<path style="fill:#c4a379; stroke:none;" d="M87.3333 318.667L87.6667 319.333L87.3333 318.667M424.333 318.667L424.667 319.333L424.333 318.667z"/>
<path style="fill:#7db5c2; stroke:none;" d="M129 319L129 362L69 362C77.6861 389.439 108.372 415.74 131 431.706C209.058 486.781 317.66 483.708 392 423.389C410.511 408.369 435.515 385.49 443 362L383 362L383 319L129 319z"/>
<path style="fill:#c4a379; stroke:none;" d="M50 320L51 321L50 320M461 320L462 321L461 320z"/>
<path style="fill:#865440; stroke:none;" d="M50 321L51 322L50 321M461 321L462 322L461 321z"/>
<path style="fill:#c4a379; stroke:none;" d="M51 323L52 324L51 323M88 323L89 324L88 323M117.333 323.667L117.667 324.333L117.333 323.667M394.333 323.667L394.667 324.333L394.333 323.667M423 323L424 324L423 323M460 323L461 324L460 323z"/>
<path style="fill:#865440; stroke:none;" d="M51 324L52 325L51 324M460 324L461 325L460 324z"/>
<path style="fill:#c4a379; stroke:none;" d="M89.3333 325.667L89.6667 326.333L89.3333 325.667M422.333 325.667L422.667 326.333L422.333 325.667M52 326L53 327L52 326M116 326L117 327L116 326M395 326L396 327L395 326M459 326L460 327L459 326z"/>
<path style="fill:#865440; stroke:none;" d="M52 327L53 328L52 327z"/>
<path style="fill:#c4a379; stroke:none;" d="M90 327L91 328L90 327M115 327L116 328L115 327M396 327L397 328L396 327M421 327L422 328L421 327z"/>
<path style="fill:#865440; stroke:none;" d="M459 327L460 328L459 327z"/>
<path style="fill:#c4a379; stroke:none;" d="M91 328L92 329L91 328M53 329L54 330L53 329M114 329L115 330L114 329M397 329L398 330L397 329M458 329L459 330L458 329z"/>
<path style="fill:#865440; stroke:none;" d="M53 330L54 331L53 330z"/>
<path style="fill:#c4a379; stroke:none;" d="M93 330L94 331L93 330M113 330L114 331L113 330M398 330L399 331L398 330M418 330L419 331L418 330z"/>
<path style="fill:#865440; stroke:none;" d="M458 330L459 331L458 330z"/>
<path style="fill:#c4a379; stroke:none;" d="M94 331L95 332L94 331M111 331L112 332L111 331M400 331L401 332L400 331M417 331L418 332L417 331z"/>
<path style="fill:#865440; stroke:none;" d="M54 332L55 333L54 332z"/>
<path style="fill:#c4a379; stroke:none;" d="M95.6667 332.333L96.3333 332.667L95.6667 332.333M110 332L111 333L110 332M401 332L402 333L401 332M415.667 332.333L416.333 332.667L415.667 332.333z"/>
<path style="fill:#865440; stroke:none;" d="M457 332L458 333L457 332z"/>
<path style="fill:#c4a379; stroke:none;" d="M98 333L99 334L98 333M107.667 333.333L108.333 333.667L107.667 333.333M403.667 333.333L404.333 333.667L403.667 333.333M413 333L414 334L413 333M55 334L56 335L55 334M102.667 334.333L103.333 334.667L102.667 334.333M408.667 334.333L409.333 334.667L408.667 334.333M456 334L457 335L456 334z"/>
<path style="fill:#865440; stroke:none;" d="M55 335L56 336L55 335M456 335L457 336L456 335M56.3333 337.667L56.6667 338.333L56.3333 337.667M455.333 337.667L455.667 338.333L455.333 337.667z"/>
<path style="fill:#c4a379; stroke:none;" d="M57 339L58 340L57 339M454 339L455 340L454 339z"/>
<path style="fill:#865440; stroke:none;" d="M57 340L58 341L57 340M454 340L455 341L454 340M58 342L59 343L58 342M453 342L454 343L453 342M59 344L60 345L59 344M452 344L453 345L452 344z"/>
<path style="fill:#c4a379; stroke:none;" d="M60 346L61 347L60 346M451 346L452 347L451 346z"/>
<path style="fill:#865440; stroke:none;" d="M60 347L61 348L60 347M451 347L452 348L451 347z"/>
<path style="fill:#c4a379; stroke:none;" d="M61 348L62 349L61 348M450 348L451 349L450 348z"/>
<path style="fill:#865440; stroke:none;" d="M61 349L62 350L61 349M450 349L451 350L450 349z"/>
<path style="fill:#c4a379; stroke:none;" d="M62 350L63 351L62 350M449 350L450 351L449 350z"/>
<path style="fill:#865440; stroke:none;" d="M62 351L63 352L62 351M449 351L450 352L449 351z"/>
<path style="fill:#c4a379; stroke:none;" d="M63 352L64 353L63 352M448 352L449 353L448 352z"/>
<path style="fill:#865440; stroke:none;" d="M63 353L64 354L63 353M448 353L449 354L448 353z"/>
<path style="fill:#c4a379; stroke:none;" d="M64 354L65 355L64 354M447 354L448 355L447 354z"/>
<path style="fill:#865440; stroke:none;" d="M64 355L65 356L64 355M447 355L448 356L447 355z"/>
<path style="fill:#c4a379; stroke:none;" d="M65 356L66 357L65 356M446 356L447 357L446 356z"/>
<path style="fill:#865440; stroke:none;" d="M65 357L66 358L65 357M446 357L447 358L446 357z"/>
<path style="fill:#c4a379; stroke:none;" d="M66 358L67 359L66 358M445 358L446 359L445 358z"/>
<path style="fill:#865440; stroke:none;" d="M67 360L68 361L67 360M444 360L445 361L444 360M68 362L69 363L68 362M443 362L444 363L443 362M69 364L70 365L69 364M442 364L443 365L442 364M71 367L72 368L71 367M440 367L441 368L440 367M72 369L73 370L72 369M439 369L440 370L439 369M438 370L439 371L438 370M64 372L65 373L64 372M74 372L75 373L74 372M437 372L438 373L437 372M76 375L77 376L76 375M435 375L436 376L435 375M78 378L79 379L78 378M433 378L434 379L433 378M80 381L81 382L80 381M431 381L432 382L431 381M81 382L82 383L81 382M430 382L431 383L430 382M83 385L84 386L83 385M428 385L429 386L428 385M84 386L85 387L84 386M427 386L428 387L427 386M74 387L75 388L74 387M437 387L438 388L437 387M86 389L87 390L86 389M425 389L426 390L425 389M87 390L88 391L87 390M424 390L425 391L424 390M88 391L89 392L88 391M423 391L424 392L423 391M90 394L91 395L90 394M421 394L422 395L421 394M91 395L92 396L91 395M420 395L421 396L420 395M81 396L82 397L81 396M92 396L93 397L92 396M419 396L420 397L419 396M430 396L431 397L430 396M93 397L94 398L93 397M418 397L419 398L418 397M86 402L87 403L86 402M97 402L98 403L97 402M414 402L415 403L414 402M98 403L99 404L98 403M413 403L414 404L413 403M99 404L100 405L99 404M412 404L413 405L412 404M100 405L101 406L100 405M411 405L412 406L411 405M101 406L102 407L101 406M410 406L411 407L410 406M102 407L103 408L102 407M409 407L410 408L409 407M103 408L104 409L103 408M408 408L409 409L408 408M104 409L105 410L104 409M407 409L408 410L407 409M105 410L106 411L105 410M406 410L407 411L406 410M106 411L107 412L106 411M405 411L406 412L405 411M107 412L108 413L107 412M404 412L405 413L404 412M108 413L109 414L108 413M403 413L404 414L403 413M109 414L110 415L109 414M402 414L403 415L402 414M114 418L115 419L114 418M397 418L398 419L397 418M115 419L116 420L115 419M396 419L397 420L396 419M116 420L117 421L116 420M395 420L396 421L395 420M117 421L118 422L117 421M394 421L395 422L394 421M120 423L121 424L120 423M391 423L392 424L391 423M121 424L122 425L121 424M390 424L391 425L390 424M109 425L110 426L109 425M122 425L123 426L122 425M389 425L390 426L389 425M125 427L126 428L125 427M386 427L387 428L386 427M126 428L127 429L126 428M385 428L386 429L385 428M384 429L385 430L384 429M129 430L130 431L129 430M382 430L383 431L382 430M396 430L397 431L396 430M130 431L131 432L130 431M381 431L382 432L381 431M132 432L133 433L132 432M379 432L380 433L379 432M133 433L134 434L133 433M378 433L379 434L378 433M391 434L392 435L391 434M136 435L137 436L136 435M375 435L376 436L375 435M138 436L139 437L138 436M124 437L125 438L124 437M139 437L140 438L139 437M372 437L373 438L372 437M141 438L142 439L141 438M370 438L371 439L370 438M142 439L143 440L142 439M369 439L370 440L369 439M144 440L145 441L144 440M367 440L368 441L367 440M146 441L147 442L146 441M147 442L148 443L147 442M364 442L365 443L364 442M149 443L150 444L149 443M362 443L363 444L362 443M151 444L152 445L151 444M360 444L361 445L360 444M154 446L155 447L154 446M357 446L358 447L357 446M156 447L157 448L156 447M355 447L356 448L355 447M158 448L159 449L158 448M353 448L354 449L353 448M160 449L161 450L160 449M351 449L352 450L351 449M162 450L163 451L162 450M349 450L350 451L349 450M164.667 451.333L165.333 451.667L164.667 451.333M346.667 451.333L347.333 451.667L346.667 451.333M167 452L168 453L167 452M344 452L345 453L344 452M169 453L170 454L169 453M342 453L343 454L342 453M171 454L172 455L171 454M340 454L341 455L340 454M173.667 455.333L174.333 455.667L173.667 455.333M337.667 455.333L338.333 455.667L337.667 455.333M176 456L177 457L176 456M335 456L336 457L335 456M179 457L180 458L179 457M332.667 457.333L333.333 457.667L332.667 457.333M181 458L182 459L181 458M330 458L331 459L330 458M184.667 459.333L185.333 459.667L184.667 459.333M327 459L328 460L327 459M187 460L188 461L187 460M324 460L325 461L324 460M190 461L191 462L190 461M321 461L322 462L321 461M193.667 462.333L194.333 462.667L193.667 462.333M317.667 462.333L318.333 462.667L317.667 462.333M196.667 463.333L197.333 463.667L196.667 463.333M314.667 463.333L315.333 463.667L314.667 463.333M200.667 464.333L201.333 464.667L200.667 464.333M310.667 464.333L311.333 464.667L310.667 464.333M204.667 465.333L205.333 465.667L204.667 465.333M306.667 465.333L307.333 465.667L306.667 465.333M208.667 466.333L209.333 466.667L208.667 466.333M302.667 466.333L303.333 466.667L302.667 466.333M212 467L212 468L215 468L212 467M297 467L297 468L300 468L297 467M218 468L218 469L221 469L218 468M291 468L291 469L294 469L291 468M224 469L224 470L228 470L224 469M284 469L284 470L288 470L284 469M232 470L232 471L237 471L232 470M275 470L275 471L280 471L275 470M243 471L243 472L269 472L243 471M317 471L318 472L317 471M216 476L217 477L216 476M295 476L296 477L295 476z"/>
</svg>
