<?xml version="1.0" standalone="no"?>
<!DOCTYPE svg PUBLIC "-//W3C//DTD SVG 20010904//EN"
 "http://www.w3.org/TR/2001/REC-SVG-20010904/DTD/svg10.dtd">
<svg version="1.0" xmlns="http://www.w3.org/2000/svg"
 width="512.000000pt" height="512.000000pt" viewBox="0 0 512.000000 512.000000"
 preserveAspectRatio="xMidYMid meet">

<g transform="translate(0.000000,512.000000) scale(0.100000,-0.100000)"
fill="#000000" stroke="none">
<path d="M1927 2812 c-39 -24 -71 -93 -62 -134 26 -122 168 -159 244 -62 46
59 30 155 -34 194 -40 25 -110 26 -148 2z"/>
<path d="M2487 2812 c-39 -24 -71 -93 -62 -134 26 -122 168 -159 244 -62 46
59 30 155 -34 194 -40 25 -110 26 -148 2z"/>
<path d="M3049 2813 c-59 -36 -81 -132 -45 -188 93 -141 311 -24 237 127 -11
24 -34 51 -50 61 -37 21 -108 22 -142 0z"/>
<path d="M1161 2530 c-4 -262 123 -566 331 -785 226 -239 517 -385 867 -434
l115 -16 40 -202 c23 -111 44 -205 48 -208 24 -24 479 347 613 500 39 44 79
76 130 104 372 205 634 604 650 991 l5 105 -15 -80 c-45 -241 -150 -445 -322
-626 -96 -100 -211 -191 -321 -251 -48 -27 -91 -60 -127 -102 -107 -121 -383
-356 -544 -464 -35 -23 -66 -40 -69 -37 -3 3 -24 96 -47 207 l-41 203 -120 16
c-488 69 -884 345 -1080 752 -46 98 -89 234 -103 332 l-9 60 -1 -65z"/>
</g>
</svg>
