<?xml version="1.0" standalone="no"?>
<!DOCTYPE svg PUBLIC "-//W3C//DTD SVG 20010904//EN"
 "http://www.w3.org/TR/2001/REC-SVG-20010904/DTD/svg10.dtd">
<svg version="1.0" xmlns="http://www.w3.org/2000/svg"
 width="512.000000pt" height="512.000000pt" viewBox="0 0 512.000000 512.000000"
 preserveAspectRatio="xMidYMid meet">

<g transform="translate(0.000000,512.000000) scale(0.100000,-0.100000)"
fill="#000000" stroke="none">
<path d="M2496 2950 l-57 -180 -196 0 -196 0 154 -111 c85 -62 156 -114 158
-116 3 -2 -23 -86 -56 -188 -33 -102 -56 -182 -49 -178 6 3 75 53 153 110 79
56 147 103 153 103 6 0 74 -47 153 -103 78 -57 147 -107 153 -110 7 -4 -16 76
-49 178 -33 102 -59 186 -56 188 2 2 73 54 158 116 l154 111 -196 0 -196 0
-57 180 c-32 99 -60 180 -64 180 -4 0 -32 -81 -64 -180z"/>
<path d="M0 1065 l0 -85 2560 0 2560 0 0 85 0 85 -2560 0 -2560 0 0 -85z"/>
<path d="M475 463 c-180 -18 -324 -141 -371 -318 -8 -27 -14 -60 -14 -72 l0
-23 421 0 422 0 -6 56 c-21 208 -236 378 -452 357z"/>
<path d="M2770 463 c-190 -29 -328 -154 -365 -329 -8 -38 -15 -75 -15 -81 0
-10 92 -13 425 -13 l425 0 0 23 c0 40 -30 139 -57 189 -35 63 -120 143 -185
173 -46 21 -164 47 -193 44 -5 -1 -21 -3 -35 -6z"/>
<path d="M4220 463 c-208 -32 -356 -183 -372 -378 l-3 -40 423 -3 422 -2 0 23
c0 40 -30 139 -57 189 -35 63 -120 143 -185 173 -46 21 -164 47 -193 44 -5 -1
-21 -3 -35 -6z"/>
</g>
</svg>
