<?xml version="1.0" standalone="yes"?>
<svg xmlns="http://www.w3.org/2000/svg" width="512" height="512">
<path style="fill:#ffffff; stroke:none;" d="M0 0L0 42L1 42C2.8199 21.2861 24.5708 1.93356 45 1C33.2988 -3.90997 12.742 0 0 0z"/>
<path style="fill:#5c3d99; stroke:none;" d="M77 201L94 195C91.0958 175.61 78.8768 155.191 71.6003 137C69.2836 131.208 64.2587 123.273 64.1034 117C63.9119 109.266 79.856 98.144 85 93C92.6033 85.3967 103.797 68.7866 114 65.2407C119.132 63.457 128.373 70.0785 133 72.1389C150.131 79.7682 167.251 88.9563 185 95L192 78C176.151 71.4101 160.68 63.8443 145 56.8611C136.276 52.9761 125.794 49.9163 118 44.3619C98.5628 30.5101 87.2979 6.09769 62 1.26157C24.4641 -5.91406 -9.20359 28.2756 1.42824 66C7.95532 89.1597 30.5988 99.1899 43.3009 118C49.1486 126.66 52.1336 138.333 56 148C63.0323 165.583 70.9317 183.062 77 201z"/>
<path style="fill:#ffffff; stroke:none;" d="M57 0L57 1C83.4989 2.1554 97.2519 28.9385 116 43.6096C124.098 49.9468 135.692 53.0469 145 57.3087C160.195 64.2662 175.94 73.3753 192 78L185 95C168.172 87.0263 151.01 79.7143 134 72.1389C128.96 69.8945 119.64 63.1827 114 64.7083C103.681 67.4996 91.4843 85.5157 84 93C78.7357 98.2643 64.2431 108.218 63.6466 116C63.1246 122.81 69.4959 132.739 72 139C79.275 157.19 89.4812 175.931 94 195L77 201C72.6535 182.658 63.0003 164.503 56 147C52.0528 137.131 49.0302 124.528 42.5818 116C29.0322 98.0814 4.56075 86.1109 1 62L0 62L0 401L512 401L512 63L511 63C505.872 87.5286 483.058 98.0061 469.51 117C462.393 126.977 459.417 142.495 455.308 154C449.029 171.581 438.729 190.519 436 209L418 203C426.65 183.578 432.643 162.869 440.192 143C442.96 135.714 450.012 123.83 449.357 116C448.702 108.177 434.3 98.3004 429 93L409 73C406.278 70.2788 402.969 65.6743 399 64.8163C394.003 63.736 386.316 69.5953 382 71.7531C366.705 79.4007 350.767 86.381 336 95L329 78C341.957 74.1887 354.868 65.3129 367 59.2469C377.004 54.2449 389.435 50.0458 398 42.787C414.036 29.1971 425.878 9.13144 447 3.00076C473.825 -4.7851 508.406 13.2876 511 43L512 43L512 0L57 0z"/>
<path style="fill:#5c3d99; stroke:none;" d="M175 242C182.533 236.694 193.532 227.331 197.686 219C203.137 208.066 203.606 191.973 206 180C211.03 154.845 217.715 129.435 221 104L292 104L295 122C299.876 118.565 307.377 112.827 309.382 107C311.962 99.5025 308 84.3907 308 76C308 63.231 309.51 49.3853 305.79 37C298.46 12.5956 273.797 -1.94104 249 1.28937C229.459 3.83502 212.506 18.0414 206.913 37C201.508 55.3209 207.47 75.3347 204.561 94C196.832 143.586 184.555 192.729 175 242z"/>
<path style="fill:#3776b5; stroke:none;" d="M336 95C351.022 88.746 365.444 80.5248 380 73.2469C384.657 70.9183 392.677 64.789 398 65.2407C405.011 65.8358 414.237 79.2366 419 84C427.035 92.0346 445.042 104.177 448.647 115C449.97 118.973 446.632 124.322 445.343 128C441.357 139.375 436.736 150.538 433 162C443.173 154.834 455.247 143.154 462.49 133C466.887 126.836 467.547 119.69 473.019 114C483.828 102.76 497.35 92.5319 505.373 79C527.617 41.4852 493.438 -8.4411 450 1.89893C421.94 8.57843 409.706 37.4001 385 49.7531C368.65 57.9281 326.467 72.0593 336 95z"/>
<path style="fill:#ffffff; stroke:none;" d="M99 53C93.2597 44.8509 85.0849 38.0017 78 31.0038C55.5695 8.84882 14.3764 20.6385 18.1736 56C19.3185 66.662 25.7299 73.7271 33 81C36.7627 84.7642 47.134 99.1167 53 97.6543C58.1107 96.3803 63.397 88.603 67 85L99 53M223 86L290 86C290 70.3325 293.679 48.9487 285.045 35.0008C271.057 12.4046 236.316 14.5095 225.529 39C219.641 52.3666 223 71.6629 223 86M457 19.4391C442.929 21.6322 433.641 31.3582 424 41C421.324 43.6761 414.245 48.5841 415.346 53C417.222 60.5268 430.595 69.5952 436 75C441.998 80.9981 447.939 87.0607 454 92.9954C456.023 94.9758 458.762 98.4615 462 97.6543C467.111 96.3803 472.397 88.603 476 85C483.317 77.6832 491.23 70.5549 493.482 60C498.112 38.2995 479.847 15.8781 457 19.4391z"/>
<path style="fill:#5c3d99; stroke:none;" d="M348 68L349 69L348 68M329 78L331 85L348 69L329 78z"/>
<path style="fill:#ffffff; stroke:none;" d="M221 104L176 329C193.542 326.373 209.99 318.92 228 317.17C266.36 313.443 299.08 320.459 336 329L325.6 274L303.2 162L292 104L221 104z"/>
<path style="fill:#3776b5; stroke:none;" d="M310 107C305.746 111.254 297.336 116.955 295.893 123C293.246 134.081 301.362 153.811 303.6 165C310.441 199.195 313.826 237.001 325 270C329.941 266.519 339.393 259.609 339.562 253C339.807 243.482 335.668 232.338 333.8 223L321 159C317.787 142.93 317.079 121.727 310 107M350 120L350 138L368 138L368 120L350 120z"/>
<path style="fill:#5c3d99; stroke:none;" d="M134 153C137.328 150.656 140.118 147.879 143 145C145.209 142.794 147.89 140.618 149.623 138C152.852 133.124 145.04 124.516 140 123.921C135.337 123.371 122.175 136.304 123.346 141C124.464 145.485 130.837 149.837 134 153z"/>
<path style="fill:#2592c2; stroke:none;" d="M471 140C473.626 143.729 478.33 150.49 483 151.654C487.658 152.816 499.56 140.4 500.079 136C500.549 132.017 492.918 124.207 489 124.207C485.83 124.207 483.023 127.993 481 130.001L471 140M462 133L432.995 163L418 203L436 209L455.657 154L462 133z"/>
<path style="fill:#5c3d99; stroke:none;" d="M15 182C12.1089 184.891 4.47062 189.957 3.9213 194.17C3.3257 198.737 16.4534 211.788 21 210.654C25.4849 209.536 29.8374 203.163 33 200L33 199L15 182z"/>
<path style="fill:#3776b5; stroke:none;" d="M238 231C227.065 231 212.542 228.462 202.015 231.434C196.228 233.067 194.107 239.934 197.093 244.91C202.724 254.291 220.869 257.364 224.454 267.615C228.304 278.623 205.854 298.838 219.133 308.258C231.229 316.838 244.962 292.286 255.715 290.599C265.138 289.12 274.763 306.968 284 308.593C288.711 309.422 295.988 301.38 296.357 297C297.149 287.565 289.141 275.253 287 266C295.746 262.303 308.773 253.463 314.682 245.96C318.159 241.545 317.67 234.071 311.956 231.742C301.897 227.643 285.463 235.981 276.419 229.972C267.941 224.339 270.006 205.085 263.49 197.133C259.269 191.983 251.884 192.416 248.417 198.105C243.116 206.802 239.353 220.957 238 231z"/>
<path style="fill:#2592c2; stroke:none;" d="M390 216C386.837 219.163 380.464 223.515 379.346 228C378.188 232.643 391.357 245.812 396 244.654C400.485 243.536 404.837 237.163 408 234L408 233L390 216z"/>
<path style="fill:#3776b5; stroke:none;" d="M197 220C190.153 226.847 179.666 234.272 175.314 243C171.751 250.146 171.36 260.198 169.8 268L159.6 319C157.07 331.649 150.378 349.282 154.97 362C160.144 376.331 178.574 382.749 192 386.127C196.07 387.15 201.823 389.708 206 388.357C211.843 386.468 218.5 378.362 221 373C213.959 372.698 206.774 371.207 200 369.29C194.225 367.656 173.207 362.874 173.207 355C173.207 350.027 183.264 346.331 187 344.823C202.58 338.534 221.22 335.109 238 335.001C244.572 334.958 254.869 335.657 261 333.397C267.445 331.02 274.145 322.472 278 317C270.565 314.802 261.722 316 254 316C226.318 316 202.565 322.708 176 329L191.4 253L197 220z"/>
<path style="fill:#ffffff; stroke:none;" d="M256 232C251.554 245.662 247.26 249 233 249L233 250C245.456 257.757 245.039 262.866 242 276C256.073 270.08 257.265 268.524 271 277L267.782 261.004L279 249C262.878 249 263.563 244.018 256 232z"/>
<path style="fill:#0fb3d2; stroke:none;" d="M407 234L408 235L407 234M406 235L407 236L406 235M405 236L406 237L405 236M404 237L405 238L404 237M403 238L404 239L403 238M402 239L403 240L402 239M401 240L402 241L401 240M400 241L401 242L400 241M399 242L400 243L399 242M398 243L399 244L398 243M397 244L398 245L397 244M396 245L397 246L396 245z"/>
<path style="fill:#2592c2; stroke:none;" d="M339 256L325.693 271L328.2 288L336 329L296 318.59L279 317.603L262 334C273.005 334.869 284.077 335.275 295 337.08C306.63 339.002 318.231 341.327 329 346.309C332.051 347.721 338.645 350.31 339.218 354.173C340.593 363.457 315.198 368.647 309 370.116C291.362 374.296 272.113 376.422 254 375.985C244.504 375.756 234.465 373.351 225 374.062C217.711 374.61 209.894 383.795 207 390C245.453 391.651 281.96 397.099 320 386.29C333.733 382.388 352.385 376.936 357.867 362C363.975 345.357 352.752 317.756 349.4 301C346.938 288.692 346.737 265.832 339 256z"/>
<path style="fill:#5c3d99; stroke:none;" d="M101 272C98.3735 268.271 93.6699 261.51 89 260.346C84.3419 259.184 72.4405 271.6 71.9213 276C71.4514 279.983 79.0821 287.793 83 287.793C86.1699 287.793 88.977 284.007 91 281.999L101 272z"/>
<path style="fill:#0fb3d2; stroke:none;" d="M454 301C456.387 304.389 461.667 312.518 466.09 313.079C470.577 313.647 482.793 301.381 482.793 297C482.793 284.241 468.804 286.238 463 292.001L454 301z"/>
<path style="fill:#2592c2; stroke:none;" d="M296 299L286 310C292.276 309.674 298.95 306.252 296 299M454 302L455 303L454 302M455 303L456 304L455 303M456 304L457 305L456 304M457 305L458 306L457 305M458 306L459 307L458 306M459 307L460 308L459 307M460 308L461 309L460 308M461 309L462 310L461 309M462 310L463 311L462 310M466 314L467 315L466 314z"/>
<path style="fill:#ffffff; stroke:none;" d="M246 334.424C226.618 336.969 207.767 336.989 189 343.692C184.565 345.276 172.636 349.073 172.636 355C172.636 363.107 193.057 367.609 199 369.29C228.077 377.517 261.255 377.415 291 373.714C304.072 372.087 317.977 369.17 330 363.688C333.399 362.138 340.643 358.921 339.94 354.173C338.971 347.635 324.249 343.688 319 342.144C296.728 335.594 269.176 331.381 246 334.424z"/>
<path style="fill:#5c3d99; stroke:none;" d="M34 359L34 377C43.8745 376.883 51.8834 368.875 52 359L34 359z"/>
<path style="fill:#3776b5; stroke:none;" d="M51 366L41 377L52 377L51 366z"/>
<path style="fill:#5c3d99; stroke:none;" d="M0 401L0 417L16 401L0 401z"/>
<path style="fill:#3776b5; stroke:none;" d="M0 419L134 419C146.038 419 164.708 422.56 176 418.397C182.734 415.914 189.967 406.726 194 401L52 401C31.827 401 10.2886 396.937 0 419z"/>
<path style="fill:#2592c2; stroke:none;" d="M177 419L267 419C278.489 419 296.218 422.372 307 418.397C313.734 415.914 320.967 406.726 325 401L235 401C223.511 401 205.782 397.628 195 401.603C188.266 404.086 181.033 413.274 177 419z"/>
<path style="fill:#0fb3d2; stroke:none;" d="M308 419L512 419L512 401L370 401C357.413 401 337.801 397.252 326 401.603C319.266 404.086 312.033 413.274 308 419z"/>
<path style="fill:#ffffff; stroke:none;" d="M0 419L0 508L1 508C2.07194 456.341 78.2248 445.178 98 491L99 491C116.933 449.972 187.819 452.094 195 500L196 500C196 482.055 190.647 453.76 200.468 438.004C210.676 421.628 235.03 422.454 244.637 439C250.283 448.726 248 462.169 248 473C253.916 470.512 258.873 466.288 265 464.09C283.353 457.506 299.285 463.311 315 473C315 462.374 313.13 448.461 318.995 439C329.319 422.345 353.958 421.698 364.045 439.004C368.714 447.015 368 457.081 368 466L368 512L375 512C377.18 484.414 399.742 459.086 429 461.09C440.918 461.906 450.021 466.971 460 473C460 460.586 457.94 445.315 466.681 435.174C479.499 420.301 505.243 424.618 511 444L512 444L512 419L0 419z"/>
<path style="fill:#2592c2; stroke:none;" d="M196 500L195 500C192.778 474.706 158.8 454.204 135 462.344C128.949 464.414 124.388 470.612 120 475C109.22 485.78 91.4561 498.156 85 512L112 512C115.432 469.988 175.568 469.988 179 512L214 512L214 463C214 457.098 212.839 448.534 219.105 445.184C224.135 442.495 229.09 447.109 229.852 452C232.031 465.979 230 481.842 230 496C240.598 488.535 252.535 476.598 260 466L248 473C248 461.927 250.413 447.936 244.637 438C235.54 422.353 210.193 421.618 200.468 437.015C190.477 452.834 196 481.924 196 500z"/>
<path style="fill:#0fb3d2; stroke:none;" d="M315 473C301.744 461.731 279.315 456.589 263 464.569C256.386 467.803 251.134 474.866 246 480C234.783 491.217 230 496.104 230 512C234.379 512 243.817 513.786 247.397 510.972C249.796 509.087 249.717 503.737 250.88 501C253.288 495.33 257.156 490.206 262.001 486.39C282.922 469.913 314.439 485.685 315 512L334 512L334 460C334 454.564 333.332 445.202 341.001 444.466C348.579 443.738 349.973 453.705 349.999 459C350.086 476.666 350 494.334 350 512L368 512L368 465C368 456.118 368.747 445.976 364.045 438.015C354.409 421.699 328.807 422.192 318.995 438C312.98 447.69 315 462.115 315 473M460 473C426.436 445.215 376.829 469.401 375 512C379.317 512 388.753 513.786 392.258 510.972C394.691 509.02 394.712 503.785 395.877 501C398.307 495.187 402.07 490.313 407 486.38C428.062 469.578 458.867 486.012 460 512L478 512C478 494.334 477.914 476.666 478.001 459C478.027 453.581 479.135 443.499 487 444.451C494.662 445.38 494 454.437 494 460L494 512L512 512L512 462C512 454.126 513.355 445.008 509.005 438C499.167 422.15 473.596 421.69 463.955 438.015C458.051 448.013 460 461.888 460 473z"/>
<path style="fill:#ffffff; stroke:none;" d="M214 512L230 512L230 460C230 454.112 231.139 444.958 223 444.192C214.313 443.375 214.002 452.862 214 459L214 512M334 512L350 512L350 459C349.991 453.101 349.258 443.636 341.001 444.207C332.852 444.77 334 454.248 334 460L334 512M478 512L494 512L494 460C494 454.179 495.145 444.866 487 444.203C478.531 443.514 478.01 452.954 478 459L478 512z"/>
<path style="fill:#3776b5; stroke:none;" d="M0 512C4.31704 512 13.753 513.786 17.2585 510.972C19.6907 509.02 19.7122 503.785 20.8765 501C23.3065 495.187 27.0696 490.313 32 486.38C52.7154 469.855 81.6579 485.201 85 510C101.095 498.663 120.663 479.095 132 463C118.256 466.181 103.156 476.977 99 491C92.8295 480.539 86.148 471.944 75 466.37C39.925 448.833 2.90002 475.253 0 512z"/>
<path style="fill:#ffffff; stroke:none;" d="M18 512L85 512C84.4696 486.441 55.8564 470.693 34 484.272C23.6271 490.717 20.1348 500.67 18 512M112 512L179 512C177.147 469.497 113.853 469.497 112 512M248 512L315 512C314.778 485.5 284.833 470.725 263 484.966C252.967 491.51 250.593 501.234 248 512M393 512L460 512C459.47 486.441 430.856 470.693 409 484.272C398.627 490.717 395.135 500.67 393 512z"/>
</svg>
