<?xml version="1.0" standalone="yes"?>
<svg xmlns="http://www.w3.org/2000/svg" width="512" height="512">
<path style="fill:#050505; stroke:none;" d="M0 0L0 512L512 512L512 0L0 0z"/>
<path style="fill:#3faef3; stroke:none;" d="M16 101L17 101C22.9169 93.5357 34.3753 96 43 96L111 96L391 96L467 96C475.979 96 488.845 93.2349 495 101C497.558 94.9028 498.723 70.4031 493.566 65.7029C487.387 60.0709 471.998 59.7993 464 58.1998C439.296 53.2596 414.688 47.8174 390 42.8009C359.647 36.6334 329.37 30.0732 299 24C285.159 21.2321 270.15 16.0077 256 16.0077C239.376 16.0077 221.235 22.3372 205 25.7893C174.048 32.371 143.029 38.7951 112 45C88.9728 49.6048 66.027 54.5936 43 59.1998C36.4251 60.515 22.2055 60.995 17.7423 66.419C12.378 72.938 16 92.7904 16 101z"/>
<path style="fill:#b6b6b6; stroke:none;" d="M16 424L80 424L80 160L128 160L128.603 184.675L144 199L144 160L368 160L368 199L383.397 184.7L384 160L432 160L432 424L496 424L496 185L496 123C496 116.622 498.291 104.565 494.258 99.2284C489.871 93.4235 476.421 96 470 96L402 96L121 96L44 96C37.2717 96 22.313 93.1801 17.7423 99.2284C13.7093 104.565 16 116.621 16 123L16 185L16 424z"/>
<path style="fill:#050505; stroke:none;" d="M32 112L32 123L43 112L32 112M85 112L104 131.999L112 137.793L120 131.999L139 112L85 112M181 112L200 131.999L208 137.793L216 131.999L235 112L181 112M277 112L296 131.999L304 137.793L312 131.999L331 112L277 112M373 112L392 131.999L400 137.793L408 131.999L427 112L373 112M469 112L480 123L480 112L469 112M37 144L91 144L72 124.001L64 118.207L56 124.001L37 144M133 144L187 144L168 124.001L160 118.207L152 124.001L133 144M229 144L283 144L264 124.001L256 118.207L248 124.001L229 144M325 144L379 144L360 124.001L352 118.207L344 124.001L325 144M421 144L475 144L456 124.001L448 118.207L440 124.001L421 144M53 160L64 171L64 160L53 160M80 160L80 424L120 424L120 312L200 312L200 424L248 424C248 393.099 250.74 360.798 247.941 330.039C247.284 322.812 240.115 319.158 240.004 311C239.824 297.744 239.463 277.165 259 280.214C274.424 282.621 272.623 301.463 271.957 313C271.545 320.127 264.656 323.469 264.059 330.039C261.26 360.798 264 393.099 264 424L312 424L312 312L392 312L392 424L432 424L432 160L384 160L384 185C397.071 181.888 413.102 191.904 406.991 207C403.818 214.836 394.788 221.071 389.015 227C381.225 234.998 373.779 245.898 369 256C357.43 247.85 344.15 234.57 336 223C345.386 218.56 362.187 209.556 366.972 200C371.8 190.359 368 170.744 368 160L144 160C144 170.744 140.2 190.359 145.028 200C149.813 209.556 166.614 218.56 176 223C167.85 234.57 154.57 247.85 143 256C138.221 245.898 130.775 234.999 122.985 227C117.212 221.071 108.182 214.836 105.009 207C98.8979 191.904 114.929 181.888 128 185L128 160L80 160M469 160L480 171L480 160L469 160M32 165L32 219L51.9992 200L57.7932 192L51.9992 184L32 165M448 165L448 219L467.999 200L473.793 192L467.999 184L448 165z"/>
<path style="fill:#ffa812; stroke:none;" d="M143 256C153.577 251.068 171.068 233.577 176 223C166.976 216.913 156.91 211.485 149 203.96C142.328 197.612 135.238 187.174 126 184.51C111.891 180.442 99.5039 194.401 105.009 208C108.516 216.662 118.709 223.257 124.907 230C131.974 237.688 137.172 247.362 143 256M336 223C340.932 233.577 358.423 251.068 369 256C374.827 247.362 380.026 237.688 387.093 230C393.291 223.257 403.484 216.662 406.991 208C412.471 194.462 400.114 180.344 386 184.513C376.838 187.22 369.637 197.646 363 203.96C355.09 211.485 345.024 216.913 336 223z"/>
<path style="fill:#050505; stroke:none;" d="M63 213L44.0008 232L38.2068 240L44.0008 248L64 267L64 231L63 213M479 213L460.001 232L454.207 240L460.001 248L480 267L480 231L479 213M32 261L32 315L51.9992 296L57.7932 288L51.9992 280L32 261M448 261L448 315L467.999 296L473.793 288L467.999 280L448 261z"/>
<path style="fill:#3faef3; stroke:none;" d="M250 280.653C231.165 286.568 235.461 336.022 262 327.08C280.907 320.71 276.403 272.361 250 280.653z"/>
<path style="fill:#050505; stroke:none;" d="M63 309L44.0008 328L38.2068 336L44.0008 344L64 363L64 327L63 309M479 309L460.001 328L454.207 336L460.001 344L480 363L480 327L479 309z"/>
<path style="fill:#b6b6b6; stroke:none;" d="M120 312L120 417C129.455 415.023 137.677 408.184 146.715 406.373C157.478 404.216 165.666 411.57 175.96 402.671C183.003 396.581 185.452 387 183.62 378C182.915 374.532 180.038 371.142 180.201 367.576C180.46 361.9 184.315 355.632 185.575 350C188.427 337.252 188.378 324.804 186 312L120 312z"/>
<path style="fill:#3faef3; stroke:none;" d="M186 312L186 315L187 315L186 312z"/>
<path style="fill:#bc27a1; stroke:none;" d="M187 312C187.491 323.431 188.925 334.581 186.916 346C185.638 353.263 180.936 360.752 180.592 368C180.034 379.734 188.414 387.742 178.786 398.996C168.737 410.744 160.69 405.524 148 406.459C143.2 406.813 138.318 410.742 134 412.688C127.514 415.612 120.273 415.674 120 424L16 424L16 472L152 472L152 488L360 488L360 472L496 472L496 424L392 424L392 312L379 312C379.491 323.431 380.925 334.581 378.916 346C377.638 353.263 372.936 360.751 372.592 368C372.034 379.734 380.414 387.742 370.786 398.996C360.737 410.744 352.69 405.524 340 406.459C335.2 406.813 330.318 410.742 326 412.688C319.514 415.612 312.273 415.674 312 424L200 424L200 312L187 312z"/>
<path style="fill:#b6b6b6; stroke:none;" d="M312 312L312 417C321.455 415.023 329.677 408.184 338.715 406.373C349.478 404.216 357.666 411.57 367.96 402.671C375.003 396.581 377.452 387 375.62 378C374.915 374.532 372.038 371.142 372.201 367.576C372.46 361.9 376.315 355.632 377.575 350C380.427 337.252 380.378 324.804 378 312L312 312z"/>
<path style="fill:#3faef3; stroke:none;" d="M378 312L378 315L379 315L378 312M187 317L187 323L188 323L187 317M379 317L379 323L380 323L379 317z"/>
<path style="fill:#b6b6b6; stroke:none;" d="M248 326L248 424L264 424L264 326C258.138 328.136 253.862 328.136 248 326z"/>
<path style="fill:#3faef3; stroke:none;" d="M187 337L187 343L188 343L187 337M379 337L379 343L380 343L379 337M186 345L186 349L187 349L186 345M378 345L378 349L379 349L378 345M185 350L185 353L186 353L185 350M377 350L377 353L378 353L377 350M184.333 354.667L184.667 355.333L184.333 354.667M376.333 354.667L376.667 355.333L376.333 354.667z"/>
<path style="fill:#050505; stroke:none;" d="M32 357L32 411L51.9992 392L57.7932 384L51.9992 376L32 357z"/>
<path style="fill:#3faef3; stroke:none;" d="M183.333 357.667L183.667 358.333L183.333 357.667M375.333 357.667L375.667 358.333L375.333 357.667z"/>
<path style="fill:#050505; stroke:none;" d="M448 357L448 411L467.999 392L473.793 384L467.999 376L448 357z"/>
<path style="fill:#3faef3; stroke:none;" d="M182.333 360.667L182.667 361.333L182.333 360.667M374.333 360.667L374.667 361.333L374.333 360.667M181.333 363.667L181.667 364.333L181.333 363.667M373.333 363.667L373.667 364.333L373.333 363.667M180.333 365.667L180.667 366.333L180.333 365.667M372.333 365.667L372.667 366.333L372.333 365.667M179 368L180 369L179 368M371 368L372 369L371 368M180 370L181 371L180 370M372 370L373 371L372 370M182 374L183 375L182 374M374 374L375 375L374 374M182 393L183 394L182 393M374 393L375 394L374 393M180 397L181 398L180 397M372 397L373 398L372 397M173 404L174 405L173 404M365 404L366 405L365 404z"/>
<path style="fill:#050505; stroke:none;" d="M63 405L53 416L64 416L63 405z"/>
<path style="fill:#3faef3; stroke:none;" d="M147 405L148 406L147 405M339 405L340 406L339 405z"/>
<path style="fill:#050505; stroke:none;" d="M479 405L469 416L480 416L479 405z"/>
<path style="fill:#3faef3; stroke:none;" d="M145 406L146 407L145 406M337 406L338 407L337 406M143.667 407.333L144.333 407.667L143.667 407.333M335.667 407.333L336.333 407.667L335.667 407.333M142 408L143 409L142 408M334 408L335 409L334 408M140 409L141 410L140 409M332 409L333 410L332 409M138 410L139 411L138 410M330 410L331 411L330 410M136 411L137 412L136 411M328 411L329 412L328 411M134 412L135 413L134 412M326 412L327 413L326 412M131.667 413.333L132.333 413.667L131.667 413.333M323.667 413.333L324.333 413.667L323.667 413.333M128.667 414.333L129.333 414.667L128.667 414.333M320.667 414.333L321.333 414.667L320.667 414.333M126 415L127 416L126 415M318 415L319 416L318 415M122 416L122 417L125 417L122 416M314 416L314 417L317 417L314 416M120 417L121 418L120 417M312 417L313 418L312 417z"/>
</svg>
