<?xml version="1.0" standalone="yes"?>
<svg xmlns="http://www.w3.org/2000/svg" width="512" height="512">
<path style="fill:#010101; stroke:none;" d="M0 0L0 512L512 512L512 0L0 0z"/>
<path style="fill:#5c5950; stroke:none;" d="M122 142C120.229 153.151 109.48 155.682 106 144L105 144C99.5703 155.701 105.077 162.508 118 165L129 145L122 142M383 145L394 165C406.923 162.508 412.43 155.701 407 144L406 144C402.52 155.682 391.771 153.151 390 142L383 145M144 149L128 177L136 181L151 153L144 149M367 149L361 153L376 181L384 177C380.189 168.156 374.331 155.28 367 149M299.667 221.333L300.333 221.667L299.667 221.333z"/>
<path style="fill:#fcc828; stroke:none;" d="M301 221C280.132 229.978 255.048 234.041 233 239.626C226.856 241.182 211.01 242.598 207.028 247.728C203.264 252.576 206.329 266.035 205.956 272C205.568 278.203 200.83 279.439 198.603 284.375C197.028 287.867 197.712 294.202 198.059 297.957C198.517 302.93 203.544 304.573 205.258 309.004C207.491 314.777 207.244 328.115 205.347 333.985C202.5 342.794 193.867 339.321 187 340.185C177.844 341.337 171.173 348.992 170.188 358C168.706 371.552 180.937 381.962 194 379.671C218.329 375.405 210 333.739 210 316L210 283C210 277.944 209.013 271.526 211.858 267.044C215.562 261.207 223.894 260.721 230 259.116C243.348 255.606 256.722 252.059 270 248.29C275.577 246.707 284.212 242.718 289.996 243.618C295.666 244.501 296.929 250.208 296.996 255C297.159 266.662 297 278.337 297 290C297 294.715 298.258 301.671 295.972 305.956C292.441 312.576 285.865 309.686 280 310.097C273.837 310.53 268.286 313.889 264.854 319.004C252.538 337.363 276.465 359.065 293.96 346.2C303.387 339.268 302 327.315 302 317L302 250C302 241.466 304.306 228.879 301 221z"/>
<path style="fill:#5c5950; stroke:none;" d="M296.667 222.333L297.333 222.667L296.667 222.333M292.667 223.333L293.333 223.667L292.667 223.333M288.667 224.333L289.333 224.667L288.667 224.333M285 225L286 226L285 225M281.667 226.333L282.333 226.667L281.667 226.333M277.667 227.333L278.333 227.667L277.667 227.333M273.667 228.333L274.333 228.667L273.667 228.333M270 229L271 230L270 229M266.667 230.333L267.333 230.667L266.667 230.333M262.667 231.333L263.333 231.667L262.667 231.333M258.667 232.333L259.333 232.667L258.667 232.333M255 233L256 234L255 233M251.667 234.333L252.333 234.667L251.667 234.333M247.667 235.333L248.333 235.667L247.667 235.333M243.667 236.333L244.333 236.667L243.667 236.333M240 237L241 238L240 237M236.667 238.333L237.333 238.667L236.667 238.333M232.667 239.333L233.333 239.667L232.667 239.333M229 240L230 241L229 240M225 241L226 242L225 241M221.667 242.333L222.333 242.667L221.667 242.333M217.667 243.333L218.333 243.667L217.667 243.333M287 243L287 244L292 244L287 243M213.667 244.333L214.333 244.667L213.667 244.333M284 244L285 245L284 244M293 244L294 245L293 244M210.667 245.333L211.333 245.667L210.667 245.333M280.667 245.333L281.333 245.667L280.667 245.333M294 245L295 246L294 245M206.667 246.333L207.333 246.667L206.667 246.333M276.667 246.333L277.333 246.667L276.667 246.333M295 246L296 247L295 246M205 247L205 277L206 277L205 247M272.667 247.333L273.333 247.667L272.667 247.333M269.667 248.333L270.333 248.667L269.667 248.333M296 248L297 249L296 248M265.667 249.333L266.333 249.667L265.667 249.333M261.667 250.333L262.333 250.667L261.667 250.333M258 251L259 252L258 251M254.667 252.333L255.333 252.667L254.667 252.333M250.667 253.333L251.333 253.667L250.667 253.333M246.667 254.333L247.333 254.667L246.667 254.333M243 255L244 256L243 255M239.667 256.333L240.333 256.667L239.667 256.333M235.667 257.333L236.333 257.667L235.667 257.333M232 258L233 259L232 258M228.667 259.333L229.333 259.667L228.667 259.333M224.667 260.333L225.333 260.667L224.667 260.333M220.667 261.333L221.333 261.667L220.667 261.333M216.667 262.333L217.333 262.667L216.667 262.333M214 263L215 264L214 263M211 266L212 267L211 266M210 269L210 364L211 364L211 298L210 269M204 278L205 279L204 278M201 281L202 282L201 281M198.667 282.333L199.333 282.667L198.667 282.333M198.667 302.333L199.333 302.667L198.667 302.333M201 303L202 304L201 303M296.333 305.667L296.667 306.333L296.333 305.667M204 306L205 307L204 306M295 307L296 308L295 307M205 308L205 335L206 335L205 308M281.667 309.333L282.333 309.667L281.667 309.333M293 309L294 310L293 309M275.667 310.333L276.333 310.667L275.667 310.333M286 310L286 311L289 311L286 310M290.667 310.333L291.333 310.667L290.667 310.333M273 311L274 312L273 311M271 312L272 313L271 312M268 314L269 315L268 314M267 315L268 316L267 315M266 316L267 317L266 316M265 317L266 318L265 317M264 319L265 320L264 319M263 320L264 321L263 320M262 323L263 324L262 323M261 326L261 334L262 334L261 326M301.333 334.667L301.667 335.333L301.333 334.667M262.333 336.667L262.667 337.333L262.333 336.667M300.333 337.667L300.667 338.333L300.333 337.667M203 338L204 339L203 338M188 339L188 340L193 340L188 339M263 339L264 340L263 339M183.667 340.333L184.333 340.667L183.667 340.333M196 340L196 341L200 341L196 340M181 341L182 342L181 341M298 341L299 342L298 341M179 342L180 343L179 342M265 342L266 343L265 342M178 343L179 344L178 343M266 343L267 344L266 343M267 344L268 345L267 344M268 345L269 346L268 345M269 346L270 347L269 346M293 346L294 347L293 346M271 347L272 348L271 347M292 347L293 348L292 347M173 348L174 349L173 348M272 348L273 349L272 348M290 348L291 349L290 348M275 349L276 350L275 349M287.667 349.333L288.333 349.667L287.667 349.333M279 350L279 351L285 351L279 350M171.333 351.667L171.667 352.333L171.333 351.667M170.333 354.667L170.667 355.333L170.333 354.667M170.333 364.667L170.667 365.333L170.333 364.667M209 366L210 367L209 366M171 367L172 368L171 367M208 369L209 370L208 369M207 370L208 371L207 370M173 371L174 372L173 371M206 372L207 373L206 372M205 373L206 374L205 373M204 374L205 375L204 374M203 375L204 376L203 375M178 376L179 377L178 376M202 376L203 377L202 376M179 377L180 378L179 377M200 377L201 378L200 377M181 378L182 379L181 378M198 378L199 379L198 378M184 379L185 380L184 379M195.667 379.333L196.333 379.667L195.667 379.333M188 380L188 381L192 381L188 380z"/>
<path style="fill:#3696e9; stroke:none;" d="M387 412C383.793 421.349 375.263 420 367 420L313 420L77 420L77 453L78.0278 465.397L94 467L140 467C140 458.99 136.544 441.457 145.019 437.028C149.353 434.763 156.248 436 161 436L198 436L319 436L352 436C356.501 436 362.869 434.879 366.981 437.028C375.456 441.457 372 458.99 372 467L418 467L433.972 465.397L435 453L435 420C425.766 420 410.219 423.363 407 412L387 412z"/>
<path style="fill:#5c5950; stroke:none;" d="M386 414L387 415L386 414M407 415L408 416L407 415M383 418L384 419L383 418M410 418L411 419L410 418M380.667 419.333L381.333 419.667L380.667 419.333M412 419L413 420L412 419M144 436L145 437L144 436M367 436L368 437L367 436M140 440L141 441L140 440M371.333 440.667L371.667 441.333L371.333 440.667z"/>
<path style="fill:#e94178; stroke:none;" d="M155 451L155 467L357 467L357 451L155 451z"/>
<path style="fill:#5c5950; stroke:none;" d="M77 466L78 467L77 466M434 466L435 467L434 466z"/>
</svg>
