<svg version="1.1" id="Layer_1" xmlns="http://www.w3.org/2000/svg" xmlns:xlink="http://www.w3.org/1999/xlink" x="0px" y="0px"
	 width="100%" viewBox="0 0 1000 1000" enable-background="new 0 0 1000 1000" xml:space="preserve">
<!-- <path fill="#000000" opacity="1.000000" stroke="none" 
	d="
M458.000000,1001.000000 
	C306.833344,1001.000000 156.166656,1000.983765 5.500069,1001.093994 
	C1.750620,1001.096741 0.905755,1000.249084 0.906896,996.500000 
	C1.007416,666.166687 1.007416,335.833344 0.906896,5.500028 
	C0.905755,1.750898 1.750897,0.905753 5.500028,0.906894 
	C335.833344,1.007430 666.166687,1.007430 996.500000,0.906894 
	C1000.249084,0.905753 1001.094238,1.750897 1001.093140,5.500028 
	C1000.992615,335.833344 1000.992615,666.166687 1001.093140,996.500000 
	C1001.094299,1000.249084 1000.249268,1001.095947 996.499939,1001.093750 
	C817.166687,1000.986328 637.833313,1001.000000 458.000000,1001.000000 
z"/> -->
<path fill="#FC735D" opacity="1.000000" stroke="none" 
	d="
M495.254700,398.754456 
	C500.998840,404.500549 500.998505,404.500214 506.517822,398.981049 
	C553.770325,351.729797 600.904358,304.359100 648.362305,257.315216 
	C659.599609,246.175964 673.653015,240.388702 689.736694,239.964767 
	C700.652283,239.677048 711.310852,240.363785 721.473145,244.968414 
	C734.313049,250.786301 744.765259,259.302246 752.045593,271.427155 
	C765.835266,294.393036 765.679443,317.818604 753.818909,341.430176 
	C751.471741,346.102966 748.238708,350.266296 744.512756,353.992065 
	C696.788635,401.714325 649.105530,449.477753 601.253296,497.071167 
	C597.875366,500.430847 598.371765,502.017029 601.425110,505.058411 
	C648.651855,552.099365 695.596802,599.424255 742.968384,646.318237 
	C763.487671,666.630737 767.818909,699.922791 755.677612,724.406006 
	C745.822083,744.279724 729.805420,757.230164 707.385437,760.997559 
	C683.558838,765.001343 662.731628,759.378174 645.331177,741.900879 
	C598.536255,694.899597 551.526978,648.111633 504.760559,601.082092 
	C501.502197,597.805420 500.059265,598.299072 497.126556,601.243164 
	C449.496155,649.058716 401.856018,696.865967 353.945190,744.399963 
	C342.446228,755.808411 328.160919,761.779785 311.682190,762.035767 
	C301.112671,762.199951 290.829956,761.553955 280.917664,757.123047 
	C267.868073,751.289795 257.667908,742.612732 249.789413,730.607483 
	C240.407318,716.310974 238.602371,700.530151 240.218704,684.368958 
	C241.588654,670.671265 247.366119,658.250427 257.228973,648.351440 
	C304.982269,600.423096 352.842163,552.600586 400.780365,504.857239 
	C403.771484,501.878265 404.123566,500.434631 400.894989,497.223358 
	C353.870728,450.451569 307.027740,403.497620 260.105377,356.623322 
	C246.721024,343.252686 239.579819,327.454224 239.898651,308.271606 
	C240.055634,298.825958 241.108322,289.807739 244.868866,281.004730 
	C250.442383,267.957703 259.162659,257.813080 270.885345,249.997009 
	C285.315521,240.375702 301.536285,238.425262 318.045441,240.232697 
	C331.690796,241.726578 344.032532,247.608871 353.926208,257.477081 
	C401.004272,304.433929 447.986969,351.486420 495.254700,398.754456 
z"/>
</svg>